<svg width="49" height="48" viewBox="0 0 49 48" fill="none" xmlns="http://www.w3.org/2000/svg">
<path fill-rule="evenodd" clip-rule="evenodd" d="M29.3712 13.9933C28.8456 13.9933 28.4194 13.5664 28.4194 13.0396C28.4194 12.513 28.8456 12.0861 29.3712 12.0861C29.8969 12.0861 30.3231 12.513 30.3231 13.0396C30.3231 13.5664 29.8969 13.9933 29.3712 13.9933ZM38.6997 23.7329L38.2127 24.545L37.7011 22.3968L37.6876 22.3856C37.5617 20.6581 37.0508 17.599 36.5801 15.9412C36.4066 15.9921 36.4284 17.3799 36.2476 17.4376C35.4104 17.7044 34.8408 17.0979 34.7515 16.421C34.4057 15.8641 34.5521 15.0563 35.1651 14.6956C35.1828 14.6853 35.2013 14.6764 35.2192 14.6662C34.6703 14.3486 34.4917 13.5154 34.7685 12.94C34.8237 12.8256 35.4764 13.4524 35.5391 13.3516C33.2758 8.97996 29.2442 5.03264 25.3518 4.66286C25.4653 4.3036 25.7012 3.98152 26.0148 3.77425C26.3476 3.5546 26.7644 3.46067 27.1591 3.51706C27.2597 3.53148 27.3531 3.46122 27.3675 3.36027C27.3817 3.25932 27.3117 3.16595 27.2111 3.15153C26.7289 3.08274 26.2189 3.19738 25.8122 3.46603C25.4056 3.73468 25.0994 4.15902 24.9724 4.63013C24.9714 4.63309 24.9724 4.63605 24.9716 4.63919C24.8844 4.63494 24.7973 4.62957 24.7095 4.62828C24.8402 4.26015 24.8666 3.8532 24.7766 3.4738C24.6638 2.99899 24.3707 2.56559 23.9723 2.28474C23.8891 2.22594 23.7741 2.24591 23.7156 2.3293C23.706 2.34298 23.6984 2.35759 23.6931 2.37256C23.6653 2.44893 23.6907 2.53749 23.7602 2.58649C24.0862 2.81631 24.326 3.17075 24.4181 3.55903C24.5029 3.91662 24.458 4.30194 24.3047 4.63623C24.1707 4.64122 24.0364 4.64492 23.9035 4.65657C23.8007 4.19692 23.5324 3.7724 23.1587 3.48637C22.7718 3.18998 22.2711 3.04003 21.7852 3.07498C21.6836 3.08219 21.6073 3.17057 21.6145 3.27226C21.6158 3.2889 21.6191 3.3048 21.6243 3.31996C21.6511 3.3967 21.7265 3.44921 21.8114 3.4431C22.2089 3.41463 22.6185 3.53722 22.935 3.77961C23.231 4.00629 23.4424 4.33984 23.532 4.70261C17.031 5.58714 11.865 14.383 11.4762 23.0534L11.2147 24.9146L10.5058 23.7329C10.1642 23.1634 9.29996 23.3021 9.15814 23.9513C8.707 26.0145 8.46442 27.9455 8.46442 29.5817C8.46442 38.5113 15.6899 45.7503 24.6028 45.7503C33.5158 45.7503 40.7411 38.5113 40.7411 29.5817C40.7411 27.9455 40.4985 26.0145 40.0474 23.9513C39.9056 23.3021 39.0416 23.1634 38.6997 23.7329Z" fill="black"/>
<mask id="mask0_7101_92774" style="mask-type:luminance" maskUnits="userSpaceOnUse" x="7" y="1" width="35" height="46">
<path fill-rule="evenodd" clip-rule="evenodd" d="M7.35715 1.14307H41.8481V46.8574H7.35715V1.14307Z" fill="white"/>
</mask>
<g mask="url(#mask0_7101_92774)">
<path fill-rule="evenodd" clip-rule="evenodd" d="M29.3648 12.8859C29.2792 12.8859 29.2096 12.9548 29.2096 13.0395C29.2096 13.1241 29.2792 13.1929 29.3648 13.1929C29.4505 13.1929 29.5201 13.1241 29.5201 13.0395C29.5201 12.9548 29.4505 12.8859 29.3648 12.8859ZM29.3699 15.1006C28.2344 15.1006 27.3109 14.1761 27.3109 13.0398C27.3109 11.9034 28.2344 10.9787 29.3699 10.9787C30.5053 10.9787 31.4288 11.9034 31.4288 13.0398C31.4288 14.1761 30.5053 15.1006 29.3699 15.1006ZM10.0453 25.1226C9.73224 26.7669 9.56842 28.2932 9.56842 29.5812C9.56842 37.8861 16.3113 44.6425 24.5994 44.6425C32.8877 44.6425 39.6305 37.8861 39.6305 29.5812C39.6305 28.2926 39.4666 26.7663 39.1538 25.1224L37.7614 27.4432L36.7065 23.0135L36.6278 22.9484L36.5799 22.4657C36.5043 21.4282 36.2914 19.9483 36.0396 18.6006C35.5648 18.6408 35.1066 18.5311 34.7089 18.2787C34.2014 17.9567 33.8318 17.4121 33.6911 16.7929C33.4544 16.302 33.3941 15.73 33.5275 15.1892C33.579 14.9799 33.6571 14.7824 33.7588 14.6003C33.4631 13.9461 33.4398 13.1494 33.7625 12.4701C31.4304 8.71784 28.0742 6.03354 25.2438 5.76452L25.1469 5.75546L24.8442 5.74103C24.7934 5.73845 24.7425 5.73567 24.6913 5.73493L24.5715 5.73327L24.2757 5.74455C24.1831 5.74806 24.0904 5.75083 23.9983 5.75897L23.9266 5.76544L23.6781 5.79928C18.0481 6.5653 12.9653 14.4893 12.5789 23.1026L12.5693 23.2069L11.8726 28.1682L10.0453 25.1226ZM24.6012 46.8574C15.0921 46.8574 7.35571 39.1073 7.35571 29.5814C7.35571 27.8957 7.6044 25.867 8.07495 23.7145C8.23674 22.9736 8.82507 22.4154 9.57426 22.2924C9.85974 22.2457 10.1436 22.2658 10.4068 22.3451C10.7101 18.119 12.1042 13.7873 14.2756 10.3649C16.1574 7.39825 18.481 5.29877 20.9834 4.26151C20.8011 4.11397 20.6578 3.91594 20.577 3.68335C20.5387 3.57333 20.5156 3.45925 20.5082 3.34388C20.4581 2.64035 20.9945 2.02133 21.7039 1.97011C22.0145 1.94811 22.329 1.97436 22.6334 2.04536C22.6386 2.02891 22.6441 2.01227 22.65 1.996C22.6929 1.88099 22.7445 1.78281 22.8077 1.69277C23.0059 1.41044 23.3025 1.22203 23.6429 1.16268C23.9831 1.10314 24.3266 1.18024 24.6086 1.37937C24.9738 1.63675 25.2816 1.97677 25.5081 2.36375C26.0767 2.07735 26.7356 1.96512 27.3659 2.05498C27.7074 2.10379 28.0099 2.28277 28.217 2.55919C28.4237 2.83523 28.5108 3.17526 28.462 3.51694C28.4219 3.80057 28.291 4.05813 28.0883 4.25615C31.6063 5.76508 34.7279 9.37866 36.521 12.8421L36.8109 13.4022L36.4772 13.9372C36.4496 13.9812 36.4193 14.0232 36.3864 14.0626L37.283 14.5812L37.339 14.565L37.3556 14.6232L37.4403 14.6724L37.3793 14.7071L37.6437 15.6385C38.1043 17.26 38.6234 20.2499 38.778 22.1456L38.8235 22.337C39.0792 22.2647 39.353 22.2475 39.628 22.2924C40.377 22.4152 40.9657 22.9734 41.1277 23.7145C41.598 25.8665 41.8467 27.8951 41.8467 29.5814C41.8467 39.1073 34.1105 46.8574 24.6012 46.8574Z" fill="#231F1F"/>
</g>
<path fill-rule="evenodd" clip-rule="evenodd" d="M35.8656 26.6864L31.4821 22.1971C31.2129 21.9213 30.7767 21.9004 30.4824 22.1493L25.1484 26.6594C24.8745 26.8909 24.4739 26.8909 24.2 26.6594L18.866 22.1493C18.5717 21.9004 18.1357 21.9213 17.8663 22.1971L13.4828 26.6864C13.1463 27.0312 12.5752 26.9641 12.3272 26.5507L10.5772 23.634C10.2355 23.0643 9.37149 23.2032 9.22949 23.8523C8.77853 25.9154 8.53595 27.8466 8.53595 29.4826C8.53595 38.4124 15.7613 45.6514 24.6743 45.6514C33.5871 45.6514 40.8125 38.4124 40.8125 29.4826C40.8125 27.8466 40.5699 25.9154 40.1189 23.8523C39.9769 23.2032 39.1129 23.0643 38.7712 23.634L37.0214 26.5507C36.7733 26.9641 36.2023 27.0312 35.8656 26.6864Z" fill="#FEC402"/>
<path fill-rule="evenodd" clip-rule="evenodd" d="M29.4396 13.8948C28.9139 13.8948 28.4878 13.4679 28.4878 12.9411C28.4878 12.4145 28.9139 11.9876 29.4396 11.9876C29.9653 11.9876 30.3914 12.4145 30.3914 12.9411C30.3914 13.4679 29.9653 13.8948 29.4396 13.8948ZM24.678 4.5249C17.681 4.5249 11.9613 13.8125 11.5512 22.9545L12.3309 24.2541C12.5788 24.6673 13.15 24.7344 13.4867 24.3896L17.87 19.9004C18.1393 19.6245 18.5755 19.6036 18.8697 19.8525L24.2037 24.3626C24.4777 24.5941 24.8782 24.5941 25.152 24.3626L30.4862 19.8525C30.7804 19.6036 31.2166 19.6245 31.486 19.9004L35.8693 24.3896C36.206 24.7344 36.7769 24.6673 37.025 24.2541L37.8046 22.9545C37.3947 13.8125 31.6749 4.5249 24.678 4.5249Z" fill="#FEC402"/>
<path fill-rule="evenodd" clip-rule="evenodd" d="M36.634 16.458L39.7288 13.3573C39.8255 13.2604 39.757 13.0947 39.6202 13.0947H35.0045C34.6983 13.0947 34.448 13.3386 34.4402 13.6453C34.4029 15.1092 34.5007 18.8291 36.634 16.458Z" fill="#231F1F"/>
<path fill-rule="evenodd" clip-rule="evenodd" d="M35.1906 13.4331C35.1766 13.4337 34.8186 13.3845 34.7339 13.792C34.654 14.1766 34.7864 14.434 34.8482 14.5281C34.8643 14.5527 34.894 14.5634 34.9225 14.5556L38.8029 13.4934C38.8804 13.4721 38.8632 13.3573 38.7827 13.3599L35.1906 13.4331Z" fill="#FEC402"/>
<path fill-rule="evenodd" clip-rule="evenodd" d="M25.2192 4.76413C25.2033 4.76413 25.187 4.7621 25.1709 4.75766C25.0728 4.73104 25.0147 4.62971 25.0411 4.53135C25.1684 4.06024 25.4744 3.6359 25.8811 3.36725C26.2879 3.0986 26.7978 2.98397 27.2799 3.05275C27.3806 3.06717 27.4507 3.16054 27.4365 3.26149C27.422 3.36244 27.3287 3.4327 27.2281 3.4181C26.8333 3.36189 26.4166 3.45582 26.0838 3.67547C25.7511 3.89513 25.501 4.24217 25.3969 4.62768C25.3747 4.70996 25.3004 4.76413 25.2192 4.76413Z" fill="#FEC402"/>
<path fill-rule="evenodd" clip-rule="evenodd" d="M21.6949 3.22112C21.6898 3.20596 21.6864 3.19006 21.6851 3.17342C21.6779 3.07173 21.7543 2.98335 21.8558 2.97613C22.3417 2.94137 22.8424 3.09114 23.2294 3.38753C23.6164 3.6841 23.8924 4.12858 23.9861 4.60728C24.0059 4.7073 23.9408 4.80437 23.841 4.82416C23.7412 4.84376 23.6443 4.77849 23.6247 4.67865C23.5479 4.28648 23.3222 3.92335 23.0057 3.68077C22.6891 3.43837 22.2796 3.31579 21.882 3.34444C21.7972 3.35036 21.7217 3.29785 21.6949 3.22112Z" fill="#FEC402"/>
<path fill-rule="evenodd" clip-rule="evenodd" d="M23.7668 2.2738C23.7723 2.25882 23.7797 2.24422 23.7894 2.23053C23.848 2.14733 23.9628 2.12736 24.046 2.18597C24.4444 2.46683 24.7375 2.90022 24.8503 3.37503C24.9631 3.84984 24.8961 4.36921 24.6665 4.79946C24.6186 4.88932 24.5069 4.92334 24.4173 4.87545C24.3274 4.8272 24.2936 4.71533 24.3416 4.62566C24.5295 4.27325 24.584 3.84892 24.492 3.46027C24.3997 3.07199 24.1599 2.71773 23.8339 2.48791C23.7644 2.43873 23.7391 2.35016 23.7668 2.2738Z" fill="#FEC402"/>
<path fill-rule="evenodd" clip-rule="evenodd" d="M40.622 24.2865C40.568 24.0428 40.4106 23.871 40.2169 23.7817C39.4961 27.2452 37.7086 30.636 34.8782 33.4253C27.8206 40.3799 16.9678 40.961 10.638 34.7234C9.9287 34.0247 9.31134 33.2674 8.77515 32.4681C10.0143 40.1854 16.7831 46.0856 24.9486 46.0856C33.9935 46.0856 41.3259 38.8466 41.3259 29.9169C41.3259 28.2808 41.0798 26.3496 40.622 24.2865Z" fill="#F0A31E"/>
</svg>
