<svg width="130" height="50" viewBox="0 0 130 50" fill="none" xmlns="http://www.w3.org/2000/svg">
<path fill-rule="evenodd" clip-rule="evenodd" d="M128.989 49.6232L103.833 28.6275C103.671 28.4959 103.47 28.4283 103.257 28.4283H93.3186L121.261 0.363608C121.399 0.227301 121.302 0 121.11 0H106.398C106.174 0 105.963 0.0844156 105.796 0.232417L88.9676 15.7463L78.613 6.7273C78.451 6.58734 78.2433 6.50951 78.0282 6.50951H63.5546C63.3518 6.50951 63.2522 6.75106 63.3978 6.88737L75.4095 18.2513C75.5752 18.4088 75.7937 18.4951 76.022 18.4951H85.3881L59.9601 41.8252C59.8153 41.9611 59.9118 42.1979 60.1116 42.1979H79.444C79.6819 42.1979 79.906 42.1044 80.0755 41.9345L89.2878 32.6396L106.575 49.7453C106.736 49.9079 106.968 50 107.199 50H128.844C129.047 50 129.138 49.7519 128.989 49.6232Z" fill="#383838"/>
<path fill-rule="evenodd" clip-rule="evenodd" d="M22.7651 19.4978C22.6577 19.4978 22.5522 19.5314 22.4621 19.5924L9.84535 28.4842C9.64705 28.6077 9.56698 28.8467 9.63807 29.0722C9.70916 29.2925 9.9097 29.4409 10.1507 29.4409H23.3039V20.0247C23.3039 19.7349 23.0622 19.4978 22.7651 19.4978ZM23.2065 41.225L23.1796 35.1625H1.29781C1.09801 35.1625 0.9375 35.0039 0.9375 34.8106V28.7937C0.9375 28.247 1.20577 27.746 1.65736 27.4273L26.7408 9.51876C28.0088 8.61357 29.7927 9.49866 29.7927 11.0328V41.225H23.2065Z" fill="#383838"/>
<path fill-rule="evenodd" clip-rule="evenodd" d="M56.3662 27.6269C55.5745 28.5482 53.6644 30.1956 50.434 30.1956H42.4553C42.0942 30.1956 41.8013 29.9073 41.8013 29.5572V16.4815C41.8013 16.1278 42.0942 15.8413 42.4553 15.8413H50.434C53.7483 15.8413 55.6661 17.4814 56.444 18.4088C57.5309 19.7036 58.1572 21.2622 58.1572 22.9804C58.1572 24.6991 57.4493 26.3742 56.3662 27.6269ZM61.2838 14.6862C58.7736 11.7879 55.2992 9.96255 50.0735 9.96255H37.1346C36.0743 9.96255 35.2148 10.8023 35.2148 11.8376V34.044C35.2148 35.083 36.0743 35.9231 37.1346 35.9231H50.0735C54.0731 35.9231 57.6511 34.8783 60.6933 31.8485C62.2513 30.3224 64.2945 27.2122 64.3091 22.9805C64.2945 18.7502 62.3677 15.9374 61.2838 14.6862Z" fill="#383838"/>
</svg>
