<svg width="21" height="21" viewBox="0 0 21 21" fill="none" xmlns="http://www.w3.org/2000/svg">
<path fill-rule="evenodd" clip-rule="evenodd" d="M6.73958 1.41675C7.1538 1.41675 7.48958 1.75253 7.48958 2.16675V3.08469C7.71327 3.08341 7.95097 3.08341 8.20359 3.08341H11.9422C12.1949 3.08341 12.4326 3.08341 12.6562 3.08469V2.16675C12.6562 1.75253 12.992 1.41675 13.4062 1.41675C13.8205 1.41675 14.1562 1.75253 14.1562 2.16675V3.14545C14.6376 3.1975 15.0678 3.29762 15.4682 3.50561C16.1531 3.8614 16.7116 4.41985 17.0674 5.10476C17.3011 5.55476 17.3986 6.04242 17.4448 6.59804C17.4896 7.13758 17.4896 7.80423 17.4896 8.63076V12.3694C17.4896 13.1959 17.4896 13.8626 17.4448 14.4021C17.3986 14.9577 17.3011 15.4454 17.0674 15.8954C16.7116 16.5803 16.1531 17.1388 15.4682 17.4945C15.0182 17.7283 14.5306 17.8258 13.975 17.872C13.4354 17.9168 12.7688 17.9168 11.9422 17.9167H8.20359C7.37706 17.9168 6.71042 17.9168 6.17087 17.872C5.61526 17.8258 5.1276 17.7283 4.6776 17.4945C3.99268 17.1388 3.43423 16.5803 3.07845 15.8954C2.84469 15.4454 2.74718 14.9577 2.70104 14.4021C2.65624 13.8626 2.65624 13.1959 2.65625 12.3694V8.63076C2.65624 7.80423 2.65624 7.13758 2.70104 6.59804C2.74718 6.04242 2.84469 5.55476 3.07845 5.10476C3.43423 4.41985 3.99268 3.8614 4.6776 3.50561C5.078 3.29762 5.50821 3.1975 5.98958 3.14545V2.16675C5.98958 1.75253 6.32537 1.41675 6.73958 1.41675ZM5.98958 4.65715C5.70809 4.69828 5.52023 4.75821 5.36906 4.83673C4.95811 5.0502 4.62304 5.38528 4.40957 5.79622C4.30557 5.99643 4.2342 6.261 4.1959 6.72218C4.16621 7.0796 4.15875 7.51453 4.15688 8.08341H15.989C15.9871 7.51453 15.9796 7.0796 15.9499 6.72218C15.9116 6.261 15.8403 5.99643 15.7363 5.79622C15.5228 5.38527 15.1877 5.0502 14.7768 4.83673C14.6256 4.75821 14.4377 4.69828 14.1562 4.65715V5.50008C14.1562 5.91429 13.8205 6.25008 13.4062 6.25008C12.992 6.25008 12.6562 5.91429 12.6562 5.50008V4.58479C12.4308 4.58347 12.1833 4.58341 11.9096 4.58341H8.23625C7.96253 4.58341 7.71499 4.58347 7.48958 4.58479V5.50008C7.48958 5.91429 7.1538 6.25008 6.73958 6.25008C6.32537 6.25008 5.98958 5.91429 5.98958 5.50008V4.65715ZM15.9896 9.58341H4.15625V12.3367C4.15625 13.2036 4.15685 13.8078 4.1959 14.278C4.2342 14.7392 4.30557 15.0037 4.40957 15.2039C4.62304 15.6149 4.95811 15.95 5.36906 16.1634C5.56927 16.2674 5.83384 16.3388 6.29501 16.3771C6.76517 16.4161 7.36942 16.4167 8.23625 16.4167H11.9096C12.7764 16.4167 13.3807 16.4161 13.8508 16.3771C14.312 16.3388 14.5766 16.2674 14.7768 16.1634C15.1877 15.95 15.5228 15.6149 15.7363 15.2039C15.8403 15.0037 15.9116 14.7392 15.9499 14.278C15.989 13.8078 15.9896 13.2036 15.9896 12.3367V9.58341ZM10.9896 13.8334C10.9896 13.4192 11.3254 13.0834 11.7396 13.0834H13.4062C13.8205 13.0834 14.1562 13.4192 14.1562 13.8334C14.1562 14.2476 13.8205 14.5834 13.4062 14.5834H11.7396C11.3254 14.5834 10.9896 14.2476 10.9896 13.8334Z" fill="white"/>
</svg>
