<svg width="16" height="19" viewBox="0 0 16 19" fill="none" xmlns="http://www.w3.org/2000/svg">
<path d="M11.9583 2.81367V1.51367C11.9583 1.17201 11.675 0.888672 11.3333 0.888672C10.9917 0.888672 10.7083 1.17201 10.7083 1.51367V2.76367H5.29167V1.51367C5.29167 1.17201 5.00833 0.888672 4.66667 0.888672C4.325 0.888672 4.04167 1.17201 4.04167 1.51367V2.81367C1.79167 3.02201 0.7 4.36367 0.533333 6.35534C0.516667 6.597 0.716667 6.79701 0.95 6.79701H15.05C15.2917 6.79701 15.4917 6.58867 15.4667 6.35534C15.3 4.36367 14.2083 3.02201 11.9583 2.81367Z" fill="#1E1E1E"/>
<path d="M14.6667 8.04701H1.33333C0.875 8.04701 0.5 8.42201 0.5 8.88034V14.0137C0.5 16.5137 1.75 18.1803 4.66667 18.1803H11.3333C14.25 18.1803 15.5 16.5137 15.5 14.0137V8.88034C15.5 8.42201 15.125 8.04701 14.6667 8.04701ZM5.675 15.022C5.63333 15.0553 5.59167 15.097 5.55 15.122C5.5 15.1553 5.45 15.1803 5.4 15.197C5.35 15.222 5.3 15.2387 5.25 15.247C5.19167 15.2553 5.14167 15.2637 5.08333 15.2637C4.975 15.2637 4.86667 15.2387 4.76667 15.197C4.65833 15.1553 4.575 15.097 4.49167 15.022C4.34167 14.8637 4.25 14.647 4.25 14.4303C4.25 14.2137 4.34167 13.997 4.49167 13.8387C4.575 13.7637 4.65833 13.7053 4.76667 13.6637C4.91667 13.597 5.08333 13.5803 5.25 13.6137C5.3 13.622 5.35 13.6387 5.4 13.6637C5.45 13.6803 5.5 13.7053 5.55 13.7387C5.59167 13.772 5.63333 13.8053 5.675 13.8387C5.825 13.997 5.91667 14.2137 5.91667 14.4303C5.91667 14.647 5.825 14.8637 5.675 15.022ZM5.675 12.1053C5.51667 12.2553 5.3 12.347 5.08333 12.347C4.86667 12.347 4.65 12.2553 4.49167 12.1053C4.34167 11.947 4.25 11.7303 4.25 11.5137C4.25 11.297 4.34167 11.0803 4.49167 10.922C4.725 10.6887 5.09167 10.6137 5.4 10.747C5.50833 10.7887 5.6 10.847 5.675 10.922C5.825 11.0803 5.91667 11.297 5.91667 11.5137C5.91667 11.7303 5.825 11.947 5.675 12.1053ZM8.59167 15.022C8.43333 15.172 8.21667 15.2637 8 15.2637C7.78333 15.2637 7.56667 15.172 7.40833 15.022C7.25833 14.8637 7.16667 14.647 7.16667 14.4303C7.16667 14.2137 7.25833 13.997 7.40833 13.8387C7.71667 13.5303 8.28333 13.5303 8.59167 13.8387C8.74167 13.997 8.83333 14.2137 8.83333 14.4303C8.83333 14.647 8.74167 14.8637 8.59167 15.022ZM8.59167 12.1053C8.55 12.1387 8.50833 12.172 8.46667 12.2053C8.41667 12.2387 8.36667 12.2637 8.31667 12.2803C8.26667 12.3053 8.21667 12.322 8.16667 12.3303C8.10833 12.3387 8.05833 12.347 8 12.347C7.78333 12.347 7.56667 12.2553 7.40833 12.1053C7.25833 11.947 7.16667 11.7303 7.16667 11.5137C7.16667 11.297 7.25833 11.0803 7.40833 10.922C7.48333 10.847 7.575 10.7887 7.68333 10.747C7.99167 10.6137 8.35833 10.6887 8.59167 10.922C8.74167 11.0803 8.83333 11.297 8.83333 11.5137C8.83333 11.7303 8.74167 11.947 8.59167 12.1053ZM11.5083 15.022C11.35 15.172 11.1333 15.2637 10.9167 15.2637C10.7 15.2637 10.4833 15.172 10.325 15.022C10.175 14.8637 10.0833 14.647 10.0833 14.4303C10.0833 14.2137 10.175 13.997 10.325 13.8387C10.6333 13.5303 11.2 13.5303 11.5083 13.8387C11.6583 13.997 11.75 14.2137 11.75 14.4303C11.75 14.647 11.6583 14.8637 11.5083 15.022ZM11.5083 12.1053C11.4667 12.1387 11.425 12.172 11.3833 12.2053C11.3333 12.2387 11.2833 12.2637 11.2333 12.2803C11.1833 12.3053 11.1333 12.322 11.0833 12.3303C11.025 12.3387 10.9667 12.347 10.9167 12.347C10.7 12.347 10.4833 12.2553 10.325 12.1053C10.175 11.947 10.0833 11.7303 10.0833 11.5137C10.0833 11.297 10.175 11.0803 10.325 10.922C10.4083 10.847 10.4917 10.7887 10.6 10.747C10.75 10.6803 10.9167 10.6637 11.0833 10.697C11.1333 10.7053 11.1833 10.722 11.2333 10.747C11.2833 10.7637 11.3333 10.7887 11.3833 10.822C11.425 10.8553 11.4667 10.8887 11.5083 10.922C11.6583 11.0803 11.75 11.297 11.75 11.5137C11.75 11.7303 11.6583 11.947 11.5083 12.1053Z" fill="#1E1E1E"/>
</svg>
