<svg width="16" height="22" viewBox="0 0 16 22" fill="none" xmlns="http://www.w3.org/2000/svg">
<path fill-rule="evenodd" clip-rule="evenodd" d="M0.699219 16.098C0.699219 15.5217 1.1664 15.0546 1.7427 15.0546L11.7453 15.0546L9.35267 12.662C8.94517 12.2545 8.94517 11.5938 9.35267 11.1863C9.76018 10.7788 10.4209 10.7788 10.8284 11.1863L15.0023 15.3602C15.4098 15.7677 15.4098 16.4284 15.0023 16.8359L10.8284 21.0098C10.4209 21.4173 9.76018 21.4173 9.35267 21.0098C8.94517 20.6023 8.94517 19.9416 9.35267 19.5341L11.7453 17.1415L1.7427 17.1415C1.1664 17.1415 0.699219 16.6743 0.699219 16.098ZM1.00485 6.40111C0.597342 5.9936 0.597342 5.33291 1.00485 4.92541L5.17876 0.751493C5.58626 0.34399 6.24696 0.34399 6.65446 0.751493C7.06196 1.159 7.06196 1.81969 6.65446 2.2272L4.26188 4.61978L14.2644 4.61978C14.8407 4.61978 15.3079 5.08696 15.3079 5.66326C15.3079 6.23955 14.8407 6.70673 14.2644 6.70674L4.26188 6.70674L6.65446 9.09932C7.06196 9.50682 7.06196 10.1675 6.65446 10.575C6.24696 10.9825 5.58626 10.9825 5.17876 10.575L1.00485 6.40111Z" fill="white"/>
</svg>
