<svg width="56" height="56" viewBox="0 0 56 56" fill="none" xmlns="http://www.w3.org/2000/svg">
<rect width="56" height="56" rx="28" fill="#FF9300" fill-opacity="0.1"/>
<path d="M41.0133 33.227L32.48 17.867C31.3333 15.8003 29.7466 14.667 28 14.667C26.2533 14.667 24.6666 15.8003 23.52 17.867L14.9866 33.227C13.9066 35.187 13.7866 37.067 14.6533 38.547C15.52 40.027 17.2266 40.8403 19.4666 40.8403H36.5333C38.7733 40.8403 40.48 40.027 41.3466 38.547C42.2133 37.067 42.0933 35.1737 41.0133 33.227ZM27 24.0003C27 23.4537 27.4533 23.0003 28 23.0003C28.5466 23.0003 29 23.4537 29 24.0003V30.667C29 31.2137 28.5466 31.667 28 31.667C27.4533 31.667 27 31.2137 27 30.667V24.0003ZM28.9466 35.6137C28.88 35.667 28.8133 35.7203 28.7466 35.7737C28.6666 35.827 28.5866 35.867 28.5066 35.8937C28.4266 35.9337 28.3466 35.9603 28.2533 35.9737C28.1733 35.987 28.08 36.0003 28 36.0003C27.92 36.0003 27.8266 35.987 27.7333 35.9737C27.6533 35.9603 27.5733 35.9337 27.4933 35.8937C27.4133 35.867 27.3333 35.827 27.2533 35.7737C27.1866 35.7203 27.12 35.667 27.0533 35.6137C26.8133 35.3603 26.6666 35.0137 26.6666 34.667C26.6666 34.3203 26.8133 33.9737 27.0533 33.7203C27.12 33.667 27.1866 33.6137 27.2533 33.5603C27.3333 33.507 27.4133 33.467 27.4933 33.4403C27.5733 33.4003 27.6533 33.3737 27.7333 33.3603C27.9066 33.3203 28.0933 33.3203 28.2533 33.3603C28.3466 33.3737 28.4266 33.4003 28.5066 33.4403C28.5866 33.467 28.6666 33.507 28.7466 33.5603C28.8133 33.6137 28.88 33.667 28.9466 33.7203C29.1866 33.9737 29.3333 34.3203 29.3333 34.667C29.3333 35.0137 29.1866 35.3603 28.9466 35.6137Z" fill="#FF9300"/>
</svg>
