<svg width="78" height="83" viewBox="0 0 78 83" fill="none" xmlns="http://www.w3.org/2000/svg">
<g clip-path="url(#clip0_1897_70859)">
<path d="M3.02539 24.5923L60.4851 15.3701V56.8701L3.02539 66.8609V24.5923Z" fill="white"/>
<path d="M42.926 82.9998V67.5135L0 70.4962L42.926 82.9998Z" fill="#CE241B"/>
<path d="M36.083 1.86807L35.5998 0.552307C35.5766 0.495485 35.5415 0.444457 35.497 0.402767C35.4525 0.361076 35.3996 0.329716 35.342 0.31084C35.2843 0.291964 35.2234 0.286026 35.1633 0.293442C35.1032 0.300859 35.0454 0.321448 34.9939 0.35379C34.8767 0.411633 34.7834 0.509861 34.7307 0.631015C34.678 0.752168 34.6692 0.888407 34.706 1.0155L35.2067 2.40253L35.8176 2.65702L36.083 1.86807Z" fill="#CE241B"/>
<path d="M36.9491 2.12493L37.4498 0.577569C37.4728 0.521075 37.4834 0.460157 37.4809 0.399074C37.4783 0.337992 37.4626 0.278226 37.435 0.223935C37.4073 0.169644 37.3683 0.122139 37.3207 0.0847555C37.2731 0.0473716 37.2181 0.0210043 37.1594 0.00749224C37.0292 -0.010065 36.8971 0.0196109 36.7863 0.0912951C36.6754 0.162979 36.593 0.272076 36.5535 0.399416L36.0703 1.86788L36.3207 2.5754L36.9491 2.12493Z" fill="#EC6F29"/>
<path d="M38.5859 1.47577C38.5498 1.42528 38.5039 1.38294 38.4509 1.35144C38.3979 1.31994 38.3391 1.29996 38.2781 1.29279C38.2172 1.28561 38.1554 1.29138 38.0968 1.30973C38.0381 1.32809 37.9838 1.35864 37.9374 1.39942L36.9509 2.12474L36.6855 2.9366L37.2013 3.05367L38.4081 2.16292C38.5163 2.09119 38.5944 1.98115 38.6272 1.85417C38.6601 1.72718 38.6453 1.59232 38.5859 1.47577Z" fill="#CE241B"/>
<path d="M36.5625 3.93946L37.5965 4.16851C37.651 4.17997 37.7073 4.17997 37.7618 4.16851C37.8629 4.15045 37.9575 4.10532 38.0359 4.03778C38.1142 3.97024 38.1734 3.88273 38.2074 3.78421C38.2319 3.72819 38.2439 3.66741 38.2428 3.60614C38.2417 3.54487 38.2274 3.48458 38.2009 3.42952C38.1744 3.37447 38.1364 3.32599 38.0895 3.28745C38.0426 3.24892 37.988 3.22129 37.9295 3.20649L37.2059 3.04871L36.5625 3.51952V3.93946Z" fill="#EC6F29"/>
<path d="M35.6173 4.0975V4.861C35.6157 4.92163 35.6276 4.98184 35.6521 5.03713C35.6766 5.09243 35.7131 5.14137 35.7589 5.18029C35.8047 5.21921 35.8585 5.2471 35.9163 5.26189C35.9742 5.27667 36.0346 5.27797 36.093 5.26566C36.2234 5.24282 36.342 5.17483 36.4287 5.07325C36.5154 4.97167 36.5649 4.84273 36.5687 4.70831V3.94481L36.093 3.84045L35.6173 4.0975Z" fill="#CE241B"/>
<path d="M34.9611 3.4101L34.2376 3.79949C34.1204 3.85837 34.0278 3.95807 33.9768 4.08044C33.9258 4.20281 33.9197 4.33972 33.9597 4.46628C33.9953 4.55246 34.0591 4.62353 34.1403 4.66756C34.2214 4.71159 34.315 4.72589 34.4053 4.70805C34.4628 4.69751 34.5184 4.67865 34.5706 4.65206L35.6146 4.09725V3.68241L34.9611 3.4101Z" fill="#CE241B"/>
<path d="M35.2166 2.40272L34.2302 1.99041C34.1064 1.95045 33.9726 1.95729 33.8535 2.00967C33.7343 2.06205 33.6378 2.15645 33.5817 2.27547C33.5493 2.32785 33.5282 2.38661 33.5198 2.44789C33.5113 2.50916 33.5158 2.57155 33.5328 2.63095C33.5499 2.69035 33.5791 2.7454 33.6186 2.79248C33.6581 2.83956 33.7069 2.87759 33.762 2.90407L34.9662 3.41307L35.482 3.13313L35.2166 2.40272Z" fill="#EC6F29"/>
<path d="M18.1296 18.9655C19.8091 18.6638 21.3269 17.761 22.4084 16.4205C23.1361 15.5479 23.6608 14.5197 23.9432 13.4123L25.8134 16.6826C25.9622 16.9344 26.1834 17.1336 26.4471 17.2533C26.7109 17.373 27.0045 17.4074 27.2881 17.352C27.6042 17.2934 27.9023 17.1599 28.1581 16.9622C28.4139 16.7645 28.6202 16.5083 28.7603 16.2144L33.327 6.76478C33.7627 5.8664 33.4522 4.88658 32.636 4.57609C31.8198 4.2656 30.8033 4.74152 30.3702 5.6399L27.4258 11.9413L27.2881 12.4503L27.1504 11.9948L24.2036 6.64263C23.7704 5.87913 22.7564 5.72897 21.9502 6.30159C21.144 6.87422 20.8236 7.95076 21.2567 8.71171L22.3583 10.6383L18.9608 11.1804C18.5742 11.2561 18.225 11.4646 17.9716 11.7708C17.7182 12.0771 17.576 12.4625 17.5687 12.8626C17.5601 13.0432 17.5918 13.2233 17.6614 13.3897C17.7309 13.5561 17.8366 13.7043 17.9705 13.8232C18.1044 13.9422 18.263 14.0288 18.4345 14.0767C18.606 14.1245 18.7859 14.1323 18.9608 14.0995L20.6408 13.845C20.3839 14.3156 20.0249 14.7207 19.5911 15.0293C19.1573 15.338 18.6601 15.5422 18.1371 15.6265C17.7988 15.6879 17.4513 15.6723 17.1197 15.5807C16.788 15.4892 16.4805 15.324 16.2192 15.0971C15.9534 14.8508 15.7429 14.5492 15.6021 14.2128C15.4612 13.8764 15.3933 13.5131 15.403 13.1476C15.4142 12.4569 15.6257 11.785 16.0109 11.2159C16.3962 10.6468 16.9381 10.206 17.5687 9.94858C18.4576 9.60755 19.0184 8.62263 18.8206 7.7497C18.7718 7.51085 18.66 7.28999 18.4973 7.11068C18.3346 6.93138 18.127 6.80038 17.8967 6.7317C17.2408 6.54337 16.4321 6.9633 16.4321 6.9633C13.9008 8.14164 12.1057 10.8444 12.1032 13.6668C12.1035 14.0208 12.1336 14.3742 12.1933 14.723C11.665 15.6926 10.671 16.9601 9.00858 17.2247C8.64555 17.2969 8.27113 17.2846 7.91346 17.1886C7.55579 17.0927 7.22415 16.9156 6.94346 16.6707C6.66277 16.4258 6.44031 16.1194 6.2928 15.7746C6.14529 15.4298 6.07655 15.0554 6.09176 14.6797C6.11206 13.9432 6.35138 13.2301 6.7782 12.6345C7.20502 12.0389 7.79931 11.5887 8.4828 11.3432C8.4828 11.3432 8.82331 11.2211 9.36911 11.0887C9.73857 10.9534 10.0592 10.7077 10.2888 10.3839C10.5185 10.06 10.6465 9.67324 10.656 9.27416C10.6624 9.06355 10.6219 8.85418 10.5374 8.66174C10.453 8.4693 10.3268 8.29878 10.1684 8.16292C10.0099 8.02706 9.82327 7.92939 9.62243 7.87723C9.42158 7.82506 9.21173 7.81974 9.00858 7.86168C5.56599 8.41394 2.8044 11.7072 2.79689 15.2066C2.78938 18.7059 5.56599 21.116 9.00858 20.5688C10.8788 20.2363 12.553 19.1891 13.688 17.6421C13.688 17.6421 15.2703 19.4211 18.1296 18.9655Z" fill="#CE241B"/>
<path d="M24.6315 28.0356C22.3231 28.4275 20.7207 30.5551 20.7207 32.8278V32.8558C20.7207 35.1259 22.3606 36.7395 24.669 36.345C26.9775 35.9505 28.5773 33.8229 28.5773 31.5527V31.5146C28.5773 29.2546 26.9399 27.6411 24.6315 28.0356Z" fill="#CE241B"/>
<path d="M10.3312 47.4108L7.42188 47.9071V53.216L10.4038 52.707C12.2841 52.3863 13.3832 51.0553 13.3832 49.5639V49.5155C13.3832 47.8078 12.2115 47.0901 10.3312 47.4108Z" fill="#CE241B"/>
<path d="M21.6895 52.1289L26.429 51.3221L24.0605 45.9878L21.6895 52.1289Z" fill="#CE241B"/>
<path d="M77.5272 18.9882H77.6299V10.3224L64.3026 12.5977C64.2466 12.8464 64.1191 13.0725 63.9363 13.2475C63.7536 13.4224 63.5239 13.5382 63.2763 13.5802C63.0287 13.6222 62.7744 13.5884 62.5457 13.4833C62.317 13.3782 62.1242 13.2063 61.9917 12.9896L0 23.5717V70.4964L61.8265 59.9448C61.879 59.6916 62.0053 59.4603 62.189 59.2812C62.3727 59.102 62.6053 58.9832 62.8563 58.9404C63.1074 58.8975 63.3653 58.9326 63.5965 59.0409C63.8277 59.1493 64.0214 59.3259 64.1524 59.5478L77.6299 57.2573V47.9553H77.5272C76.1593 47.9553 74.8475 47.403 73.8802 46.4198C72.913 45.4366 72.3696 44.1031 72.3696 42.7126C72.3696 41.3222 72.913 39.9887 73.8802 39.0055C74.8475 38.0223 76.1593 37.4699 77.5272 37.4699H77.6299V29.4736H77.5272C76.1787 29.4434 74.8954 28.8776 73.9521 27.8975C73.0089 26.9173 72.4807 25.6007 72.4807 24.2296C72.4807 22.8585 73.0089 21.5419 73.9521 20.5617C74.8954 19.5816 76.1787 19.0158 77.5272 18.9856V18.9882ZM48.9624 22.882C48.9735 22.4745 49.1217 22.0831 49.3823 21.7733C49.6429 21.4634 50.0002 21.2538 50.3946 21.1794L57.6203 19.9476C57.7777 19.9127 57.9409 19.9147 58.0975 19.9536C58.254 19.9925 58.3998 20.0672 58.5237 20.172C58.6475 20.2768 58.7462 20.4089 58.8123 20.5584C58.8783 20.7078 58.9099 20.8706 58.9047 21.0343C58.8911 21.3965 58.7565 21.7432 58.5229 22.0171C58.2894 22.291 57.971 22.4758 57.6203 22.541L51.8092 23.531V26.2185L56.7815 25.371C56.939 25.3361 57.1022 25.3381 57.2587 25.377C57.4153 25.4159 57.5611 25.4906 57.6849 25.5954C57.8088 25.7002 57.9075 25.8323 57.9735 25.9818C58.0395 26.1312 58.0711 26.294 58.0659 26.4577C58.0528 26.82 57.9183 27.167 57.6847 27.441C57.4511 27.715 57.1325 27.8996 56.7815 27.9644L51.8092 28.8118V31.5834L57.7129 30.5781C57.8703 30.5431 58.0336 30.5452 58.1901 30.5841C58.3467 30.6229 58.4924 30.6976 58.6163 30.8024C58.7402 30.9072 58.8389 31.0394 58.9049 31.1888C58.9709 31.3383 59.0025 31.5011 58.9973 31.6648C58.9837 32.027 58.8491 32.3736 58.6156 32.6476C58.3821 32.9215 58.0636 33.1063 57.7129 33.1714L50.3896 34.4287C50.2136 34.4696 50.0307 34.4687 49.8552 34.426C49.6797 34.3832 49.5162 34.2999 49.3776 34.1824C49.2389 34.0649 49.1289 33.9164 49.056 33.7485C48.9832 33.5807 48.9494 33.398 48.9574 33.2147L48.9624 22.882ZM44.3256 23.559C44.3367 23.1511 44.4853 22.7595 44.7464 22.4496C45.0075 22.1396 45.3654 21.9303 45.7602 21.8564C45.9361 21.8154 46.119 21.8163 46.2946 21.859C46.4701 21.9018 46.6336 21.9851 46.7722 22.1026C46.9108 22.2202 47.0209 22.3686 47.0937 22.5365C47.1666 22.7043 47.2003 22.887 47.1923 23.0703V33.6193C47.1813 34.0269 47.0331 34.4182 46.7725 34.7281C46.5118 35.0379 46.1545 35.2476 45.7602 35.322C45.5844 35.3628 45.4016 35.3618 45.2262 35.3193C45.0507 35.2767 44.8873 35.1936 44.7485 35.0764C44.6098 34.9593 44.4995 34.8112 44.4261 34.6437C44.3528 34.4762 44.3184 34.2937 44.3256 34.1105V23.559ZM32.6884 24.0858C32.9807 24.0104 33.2901 24.0465 33.5581 24.1871C33.8261 24.3278 34.0342 24.5633 34.143 24.8493L37.3978 32.8686L40.6927 23.6379C40.8071 23.3412 40.9936 23.0789 41.2349 22.8755C41.4762 22.6721 41.7643 22.5342 42.0722 22.4748C42.8534 22.3425 43.4868 22.8387 43.4868 23.6353C43.4775 23.8651 43.4266 24.0911 43.3366 24.3021L39.0803 35.4034C38.9624 35.7682 38.7496 36.0938 38.4644 36.3456C38.1792 36.5974 37.8323 36.7661 37.4604 36.8337L37.2751 36.8642C36.9463 36.9437 36.6001 36.8983 36.3019 36.7366C36.0036 36.5749 35.7736 36.3081 35.6553 35.9862L31.429 26.4297C31.326 26.2207 31.2688 25.9915 31.2613 25.7578C31.2747 25.3551 31.4237 24.9693 31.6835 24.6649C31.9433 24.3606 32.298 24.1561 32.6884 24.0858ZM17.7212 33.3776C17.7212 29.611 20.643 26.0251 24.6665 25.3405C28.69 24.6559 31.5742 27.2085 31.5742 30.9751V31.0133C31.5742 34.7799 28.6499 38.3632 24.6289 39.0504C20.608 39.7375 17.7212 37.1798 17.7212 33.4132V33.3776ZM3.62787 30.5374C3.63948 30.128 3.78945 29.7352 4.05257 29.4251C4.31569 29.115 4.67588 28.9065 5.07251 28.8348L5.39047 28.7813C5.63521 28.725 5.89102 28.746 6.12368 28.8415C6.35635 28.937 6.55477 29.1025 6.6924 29.3158L10.155 34.4617L13.6377 28.112C13.7611 27.8598 13.942 27.6414 14.1655 27.4749C14.389 27.3084 14.6484 27.1987 14.9221 27.155L15.24 27.1016C15.416 27.0607 15.5989 27.0616 15.7744 27.1043C15.9499 27.147 16.1134 27.2304 16.252 27.3479C16.3906 27.4654 16.5007 27.6139 16.5736 27.7817C16.6464 27.9496 16.6802 28.1323 16.6722 28.3156V38.8391C16.6606 39.2462 16.5121 39.637 16.2515 39.9463C15.991 40.2557 15.634 40.4649 15.24 40.5392C15.0652 40.5765 14.8842 40.5728 14.711 40.5283C14.5377 40.4838 14.3767 40.3996 14.2403 40.2823C14.1039 40.165 13.9956 40.0176 13.9237 39.8513C13.8518 39.685 13.8182 39.5042 13.8255 39.3227V32.7184L11.3218 37.0831C11.2059 37.3213 11.0384 37.5297 10.8321 37.6928C10.6257 37.8558 10.3857 37.9693 10.13 38.0247C9.90152 38.0676 9.66563 38.0396 9.45306 37.9442C9.2405 37.8489 9.06109 37.6907 8.93823 37.4903L6.46206 34.0316V40.6181C6.44598 41.0201 6.294 41.4042 6.03174 41.7055C5.76949 42.0069 5.413 42.2071 5.02243 42.2723C4.85117 42.3126 4.67307 42.312 4.50207 42.2706C4.33107 42.2292 4.1718 42.1482 4.03674 42.0338C3.90168 41.9195 3.7945 41.7749 3.72356 41.6114C3.65263 41.4479 3.61988 41.27 3.62787 41.0915V30.5374ZM10.2802 56.1375L7.42098 56.6236V60.0873C7.40679 60.6224 7.2123 61.1362 6.87003 61.543C6.52777 61.9497 6.0585 62.2247 5.5407 62.3218C5.30966 62.3752 5.06963 62.3738 4.83923 62.3176C4.60883 62.2614 4.39427 62.1521 4.21217 61.998C4.03008 61.8439 3.88535 61.6492 3.78923 61.4291C3.69311 61.209 3.64818 60.9693 3.65792 60.7287V47.0086C3.67222 46.4732 3.86707 45.959 4.20983 45.5522C4.55258 45.1455 5.02244 44.8707 5.5407 44.7741L10.6458 43.9037C14.7268 43.2089 17.1954 45.2474 17.1954 48.7977V48.8486C17.1954 52.8723 14.1159 55.4834 10.2802 56.1375ZM30.7805 58.0055C29.9017 58.1557 29.3159 57.7332 28.9729 56.9875L27.8237 54.4425L20.2975 55.7277L19.0933 58.8148C18.9561 59.1947 18.7239 59.5318 18.4197 59.7928C18.1155 60.0539 17.7496 60.2299 17.3582 60.3036C17.1435 60.3517 16.9208 60.3487 16.7074 60.295C16.4941 60.2413 16.2957 60.1383 16.1279 59.9941C15.96 59.8498 15.8272 59.6681 15.7396 59.4631C15.6521 59.2582 15.6122 59.0354 15.6231 58.8123C15.6405 58.5145 15.7153 58.223 15.8434 57.9546L21.8073 43.2522C22.2204 42.2342 22.979 41.5368 24.0055 41.3612L24.2258 41.3231C24.6628 41.222 25.1209 41.2815 25.5187 41.4912C25.9166 41.7009 26.2285 42.0471 26.3991 42.4683L32.3629 55.1271C32.4837 55.3534 32.5506 55.6053 32.5582 55.8626C32.5473 56.3725 32.365 56.8632 32.0416 57.2531C31.7181 57.643 31.2731 57.9085 30.7805 58.0055ZM45.8028 50.1517C45.8028 53.6052 43.2114 55.9848 39.521 56.6134C37.3365 57.0236 35.0798 56.6749 33.114 55.6234C32.8904 55.4878 32.7067 55.2938 32.5821 55.0614C32.4575 54.8291 32.3965 54.567 32.4054 54.3025C32.4212 53.8066 32.6037 53.3311 32.9227 52.9555C33.2416 52.5799 33.6777 52.3268 34.158 52.2385C34.525 52.1668 34.905 52.2252 35.2346 52.404C36.5487 53.1967 38.0986 53.4847 39.6036 53.2158C41.1409 52.9613 42.0697 52.1724 42.0697 51.1544V51.106C42.0697 50.1364 41.4839 49.7394 38.6246 49.4823C35.1796 49.1744 32.9563 48.5865 32.9563 45.1329V45.0846C32.9563 41.9288 35.4474 39.4169 38.9426 38.8213C41.0207 38.4676 42.8284 38.7068 44.3681 39.4372C44.6269 39.5544 44.8447 39.7483 44.993 39.9936C45.1414 40.2388 45.2133 40.524 45.1994 40.8115C45.1836 41.3071 45.0009 41.7823 44.6819 42.1575C44.3629 42.5327 43.9269 42.7852 43.4468 42.873C43.1252 42.9346 42.7928 42.8965 42.4929 42.7635C41.241 42.2316 40.0743 42 38.9026 42.2087C37.4604 42.4632 36.7018 43.2547 36.7018 44.0996V44.148C36.7018 45.2907 37.4354 45.5376 40.3923 45.8048C43.8624 46.1306 45.8178 47.0773 45.8178 50.0957L45.8028 50.1517ZM59.2401 47.8612C59.2401 51.3122 56.6513 53.6917 52.9609 54.3204C50.77 54.7345 48.5057 54.3857 46.5338 53.3304C46.3101 53.1956 46.1262 53.0021 46.0015 52.7701C45.8769 52.5381 45.816 52.2762 45.8253 52.0121C45.8405 51.516 46.0229 51.0403 46.342 50.6645C46.661 50.2888 47.0973 50.0359 47.5779 49.948C47.9437 49.874 48.3234 49.9316 48.652 50.1109C49.9714 50.909 51.5292 51.1981 53.041 50.9253C54.5808 50.6708 55.5096 49.8844 55.5096 48.8664V48.8155C55.5096 47.8459 54.9238 47.4489 52.0645 47.1918C48.6194 46.8864 46.3961 46.296 46.3961 42.845V42.7941C46.3961 39.6408 48.8873 37.1289 52.3825 36.5334C54.4581 36.1771 56.2682 36.4163 57.8055 37.1467C58.0642 37.2639 58.2821 37.4578 58.4304 37.7031C58.5787 37.9483 58.6507 38.2335 58.6368 38.521C58.621 39.017 58.4385 39.4924 58.1195 39.868C57.8006 40.2437 57.3645 40.4967 56.8842 40.585C56.5623 40.6446 56.2303 40.6057 55.9303 40.473C54.6784 39.9411 53.5117 39.7095 52.3374 39.9182C50.8978 40.1727 50.1392 40.9642 50.1392 41.8091V41.8575C50.1392 43.0002 50.8728 43.2496 53.8296 43.5143C57.2998 43.8426 59.2527 44.7868 59.2527 47.8052L59.2401 47.8612ZM64.3352 55.939C64.3352 56.2812 64.2014 56.6094 63.9634 56.8514C63.7253 57.0933 63.4025 57.2293 63.0658 57.2293C62.7291 57.2293 62.4063 57.0933 62.1682 56.8514C61.9302 56.6094 61.7964 56.2812 61.7964 55.939V55.8524C61.7964 55.5102 61.9302 55.182 62.1682 54.9401C62.4063 54.6981 62.7291 54.5621 63.0658 54.5621C63.4025 54.5621 63.7253 54.6981 63.9634 54.9401C64.2014 55.182 64.3352 55.5102 64.3352 55.8524V55.939ZM64.3352 51.5743C64.3352 51.9165 64.2014 52.2447 63.9634 52.4867C63.7253 52.7287 63.4025 52.8646 63.0658 52.8646C62.7291 52.8646 62.4063 52.7287 62.1682 52.4867C61.9302 52.2447 61.7964 51.9165 61.7964 51.5743V51.4903C61.7964 51.1481 61.9302 50.8199 62.1682 50.5779C62.4063 50.3359 62.7291 50.2 63.0658 50.2C63.4025 50.2 63.7253 50.3359 63.9634 50.5779C64.2014 50.8199 64.3352 51.1481 64.3352 51.4903V51.5743ZM64.3352 47.2122C64.3352 47.5544 64.2014 47.8826 63.9634 48.1246C63.7253 48.3666 63.4025 48.5025 63.0658 48.5025C62.7291 48.5025 62.4063 48.3666 62.1682 48.1246C61.9302 47.8826 61.7964 47.5544 61.7964 47.2122V47.1257C61.7964 46.7834 61.9302 46.4552 62.1682 46.2133C62.4063 45.9713 62.7291 45.8353 63.0658 45.8353C63.4025 45.8353 63.7253 45.9713 63.9634 46.2133C64.2014 46.4552 64.3352 46.7834 64.3352 47.1257V47.2122ZM64.3352 42.8475C64.3352 43.1897 64.2014 43.5179 63.9634 43.7599C63.7253 44.0019 63.4025 44.1378 63.0658 44.1378C62.7291 44.1378 62.4063 44.0019 62.1682 43.7599C61.9302 43.5179 61.7964 43.1897 61.7964 42.8475V42.7635C61.7964 42.4213 61.9302 42.0931 62.1682 41.8511C62.4063 41.6092 62.7291 41.4732 63.0658 41.4732C63.4025 41.4732 63.7253 41.6092 63.9634 41.8511C64.2014 42.0931 64.3352 42.4213 64.3352 42.7635V42.8475ZM64.3352 38.4854C64.3352 38.8276 64.2014 39.1558 63.9634 39.3978C63.7253 39.6397 63.4025 39.7757 63.0658 39.7757C62.7291 39.7757 62.4063 39.6397 62.1682 39.3978C61.9302 39.1558 61.7964 38.8276 61.7964 38.4854V38.3989C61.7964 38.0566 61.9302 37.7284 62.1682 37.4865C62.4063 37.2445 62.7291 37.1085 63.0658 37.1085C63.4025 37.1085 63.7253 37.2445 63.9634 37.4865C64.2014 37.7284 64.3352 38.0566 64.3352 38.3989V38.4854ZM64.3352 34.1233C64.3352 34.4655 64.2014 34.7937 63.9634 35.0356C63.7253 35.2776 63.4025 35.4136 63.0658 35.4136C62.7291 35.4136 62.4063 35.2776 62.1682 35.0356C61.9302 34.7937 61.7964 34.4655 61.7964 34.1233V34.0367C61.7964 33.6945 61.9302 33.3663 62.1682 33.1243C62.4063 32.8824 62.7291 32.7464 63.0658 32.7464C63.4025 32.7464 63.7253 32.8824 63.9634 33.1243C64.2014 33.3663 64.3352 33.6945 64.3352 34.0367V34.1233ZM64.3352 29.7586C64.3352 30.1008 64.2014 30.429 63.9634 30.671C63.7253 30.913 63.4025 31.0489 63.0658 31.0489C62.7291 31.0489 62.4063 30.913 62.1682 30.671C61.9302 30.429 61.7964 30.1008 61.7964 29.7586V29.6746C61.7964 29.3324 61.9302 29.0042 62.1682 28.7622C62.4063 28.5202 62.7291 28.3843 63.0658 28.3843C63.4025 28.3843 63.7253 28.5202 63.9634 28.7622C64.2014 29.0042 64.3352 29.3324 64.3352 29.6746V29.7586ZM64.3352 25.3965C64.3352 25.7387 64.2014 26.0669 63.9634 26.3089C63.7253 26.5508 63.4025 26.6868 63.0658 26.6868C62.7291 26.6868 62.4063 26.5508 62.1682 26.3089C61.9302 26.0669 61.7964 25.7387 61.7964 25.3965V25.3099C61.7964 24.9677 61.9302 24.6395 62.1682 24.3975C62.4063 24.1556 62.7291 24.0196 63.0658 24.0196C63.4025 24.0196 63.7253 24.1556 63.9634 24.3975C64.2014 24.6395 64.3352 24.9677 64.3352 25.3099V25.3965ZM64.3352 21.0318C64.3352 21.374 64.2014 21.7022 63.9634 21.9442C63.7253 22.1862 63.4025 22.3221 63.0658 22.3221C62.7291 22.3221 62.4063 22.1862 62.1682 21.9442C61.9302 21.7022 61.7964 21.374 61.7964 21.0318V20.9478C61.7964 20.6056 61.9302 20.2774 62.1682 20.0354C62.4063 19.7934 62.7291 19.6575 63.0658 19.6575C63.4025 19.6575 63.7253 19.7934 63.9634 20.0354C64.2014 20.2774 64.3352 20.6056 64.3352 20.9478V21.0318ZM64.3352 16.6697C64.3352 17.0119 64.2014 17.3401 63.9634 17.5821C63.7253 17.824 63.4025 17.96 63.0658 17.96C62.7291 17.96 62.4063 17.824 62.1682 17.5821C61.9302 17.3401 61.7964 17.0119 61.7964 16.6697V16.5831C61.7964 16.2409 61.9302 15.9127 62.1682 15.6707C62.4063 15.4288 62.7291 15.2928 63.0658 15.2928C63.4025 15.2928 63.7253 15.4288 63.9634 15.6707C64.2014 15.9127 64.3352 16.2409 64.3352 16.5831V16.6697Z" fill="#CE241B"/>
</g>
<defs>
<clipPath id="clip0_1897_70859">
<rect width="77.6324" height="83" fill="white"/>
</clipPath>
</defs>
</svg>
