<svg width="24" height="25" viewBox="0 0 24 25" fill="none" xmlns="http://www.w3.org/2000/svg">
<path fill-rule="evenodd" clip-rule="evenodd" d="M4.08211 5.01204C3.41989 5.67426 3 6.65718 3 7.92993V13.93C3 15.2027 3.41989 16.1857 4.08211 16.8479C4.74433 17.5101 5.72725 17.93 7 17.93C7.55228 17.93 8 18.3777 8 18.93V21.0548L12.4462 18.0974C12.6103 17.9882 12.8029 17.93 13 17.93H17C18.2728 17.93 19.2557 17.5101 19.9179 16.8479C20.5801 16.1857 21 15.2027 21 13.93V7.92993C21 6.65718 18.1622 12.6625 17.5 12.0002C16.8378 11.338 18.2728 18.0974 17 18.0974L7 3.92993C5.72725 3.92993 4.74433 4.34982 4.08211 5.01204ZM2.66789 3.59782C3.75567 2.51005 5.27275 1.92993 7 1.92993H17C18.7272 1.92993 20.2443 2.51005 21.3321 3.59782C22.4199 4.6856 23 6.20268 23 7.92993V13.93C23 15.6572 22.4199 17.1743 21.3321 18.2621C20.2443 19.3499 18.7272 19.93 17 19.93H13.3022L9.10469 22.722L9.10382 22.7226C7.78379 23.6017 6 22.6637 6 21.06V19.8623C4.68857 19.6802 3.5402 19.1344 2.66789 18.2621C1.58011 17.1743 1 15.6572 1 13.93V7.92993C1 6.20268 1.58011 4.6856 2.66789 3.59782Z" fill="#2E2D2D"/>
<path d="M22 15L21.5 5L17.5 4L12 3H7L4 4L2 8V13L3.5 17.5L6.5 19L7.5 21.5L9 22L12.5 19H15H19.5L22 15Z" fill="#2E2D2D"/>
<path d="M9.34375 9.01941C9.34375 7.54717 10.5314 6.35938 12.0037 6.35938C13.4761 6.35938 14.6637 7.54717 14.6637 9.01941C14.6637 10.2031 13.8776 10.824 13.41 11.1436C13.2209 11.2743 13.1237 11.361 13.0679 11.4359C13.0305 11.4861 13.0037 11.5389 13.0037 11.6494V11.8594C13.0037 12.4117 12.556 12.8594 12.0037 12.8594C11.4514 12.8594 11.0037 12.4117 11.0037 11.8594V11.6494C11.0037 10.4403 11.8086 9.81891 12.2756 9.4965L12.2798 9.49359C12.4583 9.37164 12.5516 9.28734 12.604 9.21659C12.6395 9.1686 12.6637 9.11971 12.6637 9.01941C12.6637 8.65165 12.3714 8.35938 12.0037 8.35938C11.6361 8.35938 11.3438 8.65165 11.3438 9.01941C11.3438 9.57169 10.896 10.0194 10.3438 10.0194C9.79147 10.0194 9.34375 9.57169 9.34375 9.01941Z" fill="white"/>
<path d="M10.9992 14.2494C10.9992 13.6971 11.4469 13.2494 11.9992 13.2494H12.0082C12.5605 13.2494 13.0082 13.6971 13.0082 14.2494C13.0082 14.8017 12.5605 15.2494 12.0082 15.2494H11.9992C11.4469 15.2494 10.9992 14.8017 10.9992 14.2494Z" fill="white"/>
</svg>
