<svg width="32" height="32" viewBox="0 0 32 32" fill="none" xmlns="http://www.w3.org/2000/svg">
<path d="M12.9441 11.0572C12.4234 10.5365 11.5792 10.5365 11.0585 11.0572C10.5378 11.5778 10.5378 12.4221 11.0585 12.9428L14.1157 16L11.0585 19.0572C10.5378 19.5779 10.5378 20.4221 11.0585 20.9428C11.5792 21.4635 12.4234 21.4635 12.9441 20.9428L16.0013 17.8856L19.0585 20.9428C19.5792 21.4635 20.4234 21.4635 20.9441 20.9428C21.4648 20.4221 21.4648 19.5779 20.9441 19.0572L17.8869 16L20.9441 12.9428C21.4648 12.4221 21.4648 11.5778 20.9441 11.0572C20.4234 10.5365 19.5792 10.5365 19.0585 11.0572L16.0013 14.1143L12.9441 11.0572Z" fill="white"/>
<path fill-rule="evenodd" clip-rule="evenodd" d="M16.0013 2.66663C8.63751 2.66663 2.66797 8.63616 2.66797 16C2.66797 23.3638 8.63751 29.3333 16.0013 29.3333C23.3651 29.3333 29.3346 23.3638 29.3346 16C29.3346 8.63616 23.3651 2.66663 16.0013 2.66663ZM5.33464 16C5.33464 10.1089 10.1103 5.33329 16.0013 5.33329C21.8923 5.33329 26.668 10.1089 26.668 16C26.668 21.891 21.8923 26.6666 16.0013 26.6666C10.1103 26.6666 5.33464 21.891 5.33464 16Z" fill="white"/>
</svg>
