<svg width="48" height="48" viewBox="0 0 48 48" fill="none" xmlns="http://www.w3.org/2000/svg">
<rect width="48" height="48" rx="24" fill="#F5F6F8"/>
<path d="M31.5459 29.954C31.7572 30.1653 31.876 30.452 31.876 30.7509C31.876 31.0497 31.7572 31.3364 31.5459 31.5477C31.3346 31.7591 31.0479 31.8778 30.749 31.8778C30.4501 31.8778 30.1635 31.7591 29.9521 31.5477L24 25.5937L18.0459 31.5459C17.8346 31.7572 17.5479 31.8759 17.249 31.8759C16.9501 31.8759 16.6635 31.7572 16.4521 31.5459C16.2408 31.3345 16.1221 31.0479 16.1221 30.749C16.1221 30.4501 16.2408 30.1635 16.4521 29.9521L22.4062 23.9999L16.454 18.0459C16.2427 17.8345 16.1239 17.5479 16.1239 17.249C16.1239 16.9501 16.2427 16.6635 16.454 16.4521C16.6654 16.2408 16.952 16.122 17.2509 16.122C17.5498 16.122 17.8364 16.2408 18.0478 16.4521L24 22.4062L29.954 16.4512C30.1654 16.2398 30.452 16.1211 30.7509 16.1211C31.0498 16.1211 31.3364 16.2398 31.5478 16.4512C31.7591 16.6625 31.8778 16.9492 31.8778 17.248C31.8778 17.5469 31.7591 17.8336 31.5478 18.0449L25.5937 23.9999L31.5459 29.954Z" fill="#3D4245"/>
</svg>
