<svg width="173" height="29" viewBox="0 0 173 29" fill="none" xmlns="http://www.w3.org/2000/svg">
<path fill-rule="evenodd" clip-rule="evenodd" d="M37.5651 3.54887C35.1573 1.90215 31.0308 1.09942 24.7503 1.09942H2.89072L0 28.0287H22.2386C29.2739 28.0287 33.8196 27.0296 36.1827 25.0654C38.4692 23.1644 39.6017 21.332 40.7057 12.4388C41.2327 8.18951 40.058 5.2535 37.5651 3.54887ZM28.3926 20.9419C27.6371 21.5869 25.7563 22.3597 21.1074 22.3597H10.3019C10.553 20.8148 11.9348 7.92856 12.0588 6.76973H23.4938C28.1414 6.76973 29.6497 7.54317 30.0268 7.92856C32.1757 10.1337 30.1313 19.4583 28.3926 20.9419ZM129.027 3.29124C126.745 1.64785 121.866 0.841797 113.826 0.841797C104.779 0.841797 99.1438 1.64585 96.6133 3.29124C93.9952 4.99454 92.3194 7.5405 91.5886 15.2749C91.0655 20.8114 91.9553 24.1801 94.3528 25.8388C96.6029 27.3997 101.639 28.1578 109.678 28.1578C118.473 28.1578 124.139 27.4043 126.641 25.8388C129.289 24.1828 130.944 20.4307 131.667 14.2432C132.327 8.57752 131.393 4.99587 129.027 3.29124ZM121.74 14.3723C121.198 19.5208 120.271 20.8114 119.731 21.3286C119.209 21.8258 117.342 22.4888 110.936 22.4888C104.278 22.4888 102.562 21.9702 102.017 21.4577C101.683 21.1449 100.917 20.1718 101.387 15.6596C102.047 9.35093 102.939 8.10358 103.398 7.67226C103.86 7.23629 105.785 6.5121 112.695 6.5121C119.606 6.5121 121.107 7.29153 121.488 7.54313C121.888 7.80738 122.325 8.82643 121.74 14.3723ZM173 0.970888H161.19L151.893 9.47539L144.48 1.09935H132.671L144.857 14.2432L128.65 27.9015H140.712L150.889 19.0103L159.055 27.9015H171.115L157.925 14.114L173 0.970888ZM87.6938 7.41474C87.6938 5.09442 86.8137 3.54887 85.1802 2.51784C83.2961 1.48814 79.9037 1.09942 74.7518 1.09942H53.0181L51.761 11.5382H46.7363L41.8375 16.8185H51.258L50.0041 28.0287H73.1195C78.0189 28.0287 81.4256 27.4137 83.5479 26.3547C86.1764 25.0421 87.4427 22.2925 87.4427 19.3977C87.4427 16.688 85.6514 14.8636 83.2961 13.9856C86.2452 12.8335 87.6938 10.5438 87.6938 7.41474ZM76.6378 11.1514C76.0303 11.455 74.4993 11.6666 70.6071 11.6666H66.8363L62.3146 16.8185H70.7311C75.2547 16.8185 76.6631 17.1313 77.1401 17.3343C77.3855 17.4401 77.917 17.7257 77.7671 19.3977C77.6658 20.5585 77.1525 21.3499 76.5119 21.7153C76.0206 21.9949 74.8205 22.3876 71.556 22.3783C67.8047 22.3676 64.0546 22.3597 60.3053 22.3597C60.866 17.1865 61.3463 11.9169 62.0635 6.76973H72.8683C76.2198 6.76973 77.8391 7.11851 77.7891 8.37984C77.7463 9.41886 77.6704 10.6309 76.6378 11.1514Z" fill="#fff"/>
</svg>
