<svg width="190" height="22" viewBox="0 0 190 22" fill="none" xmlns="http://www.w3.org/2000/svg">
<path d="M59.3838 10.6356C59.1676 9.06603 57.7014 7.87422 56.0191 7.87422C52.975 7.87422 51.8294 10.5256 51.8294 13.2869C51.8294 15.9162 52.975 18.5676 56.0191 18.5676C58.0905 18.5676 59.2613 17.1007 59.5135 15.0325H62.7953C62.4351 18.9673 59.7944 21.4866 56.0191 21.4866C51.2458 21.4866 48.4539 17.8415 48.4539 13.2869C48.4539 8.60398 51.2602 4.95885 56.0191 4.95885C59.4054 4.95885 62.2549 6.99044 62.6656 10.6356H59.3838Z" fill="#ED3425"/>
<path d="M65.1045 5.3329H68.4944V21.1089H65.1045V5.3329Z" fill="#ED3425"/>
<path d="M71.4737 5.3329H74.8384L81.2724 15.9162H81.3156V5.3329H84.4894V21.1089H81.0995L74.6871 10.5476H74.6438V21.1089H71.4737V5.3329Z" fill="#ED3425"/>
<path d="M87.465 5.3329H98.993V8.25193H90.855V11.6294H98.3229V14.3247H90.855V18.1935H99.1659V21.1089H87.465V5.3329Z" fill="#ED3425"/>
<path d="M101.453 5.3329H106.223L109.829 16.1839H109.872L113.284 5.3329H118.054V21.1089H114.88V9.92781H114.837L111.058 21.1089H108.446L104.67 10.0415H104.627V21.1089H101.453V5.3329Z" fill="#ED3425"/>
<path fill-rule="evenodd" clip-rule="evenodd" d="M128.717 5.3329H125.241L119.39 21.1016H122.823L124.03 17.5884H129.794L130.961 21.1016H134.481L128.717 5.3329ZM128.912 15.0105H124.916L126.923 9.20905H126.966L128.912 15.0105Z" fill="#ED3425"/>
<path d="M147.151 10.1075C147.034 9.52969 146.818 8.97732 146.513 8.47563C146.229 8.00908 145.863 7.60004 145.432 7.26914C145.009 6.94698 144.535 6.69909 144.031 6.53572C143.511 6.36266 142.968 6.27598 142.421 6.27902C141.506 6.25394 140.6 6.4606 139.784 6.88042C139.071 7.26359 138.454 7.80956 137.983 8.47563C137.51 9.13941 137.16 9.88489 136.949 10.6759C136.507 12.3365 136.507 14.0869 136.949 15.7475C137.157 16.5511 137.507 17.3092 137.983 17.9845C138.457 18.6443 139.073 19.185 139.784 19.565C140.6 19.98 141.505 20.184 142.417 20.1591C143.086 20.17 143.749 20.035 144.363 19.7631C144.926 19.5011 145.431 19.127 145.85 18.6629C146.276 18.1915 146.62 17.6495 146.866 17.0604C147.13 16.4299 147.298 15.7621 147.363 15.0801H148.83C148.746 15.9886 148.52 16.8775 148.16 17.7131C147.84 18.4546 147.386 19.1288 146.823 19.7007C146.27 20.2503 145.611 20.6785 144.888 20.9585C144.1 21.2641 143.261 21.4146 142.417 21.4023C141.32 21.4268 140.232 21.1961 139.236 20.7275C138.355 20.3061 137.576 19.6912 136.956 18.9269C136.343 18.1547 135.882 17.2694 135.598 16.3196C134.992 14.2873 134.992 12.1178 135.598 10.0855C135.882 9.13263 136.343 8.24392 136.956 7.46717C137.573 6.69749 138.353 6.07848 139.236 5.6556C140.916 4.89526 142.807 4.77296 144.568 5.31089C145.251 5.52564 145.893 5.85806 146.466 6.29368C147.037 6.73009 147.52 7.27414 147.889 7.89622C148.283 8.56809 148.529 9.31872 148.61 10.0965L147.151 10.1075Z" fill="#ED3425"/>
<path d="M151.078 5.3329H152.544V19.8291H161.179V21.1089H151.078V5.3329Z" fill="#ED3425"/>
<path d="M162.515 5.3329H163.985V15.1021C163.968 15.8895 164.071 16.6749 164.288 17.4308C164.458 18.0176 164.761 18.5553 165.174 19.0003C165.568 19.4117 166.057 19.7156 166.597 19.8841C167.212 20.0752 167.852 20.168 168.495 20.1591C169.147 20.1693 169.796 20.0765 170.419 19.8841C170.959 19.7145 171.45 19.4108 171.846 19.0003C172.258 18.5553 172.562 18.0176 172.732 17.4308C172.949 16.6749 173.051 15.8895 173.035 15.1021V5.3329H174.501V15.4432C174.505 16.2261 174.392 17.0051 174.166 17.7535C173.735 19.2216 172.656 20.4013 171.248 20.9439C169.473 21.5796 167.539 21.5796 165.765 20.9439C164.354 20.398 163.272 19.2147 162.84 17.7425C162.614 16.9941 162.501 16.2151 162.505 15.4322L162.515 5.3329Z" fill="#ED3425"/>
<path fill-rule="evenodd" clip-rule="evenodd" d="M177.455 5.33285H183.972C184.6 5.33077 185.226 5.39343 185.841 5.51987C186.401 5.6313 186.935 5.84901 187.416 6.16162C187.865 6.46431 188.236 6.87322 188.496 7.35344C188.785 7.91882 188.926 8.55012 188.907 9.187C188.908 9.59609 188.842 10.0025 188.713 10.3898C188.587 10.7715 188.401 11.1295 188.161 11.4496C187.927 11.7649 187.642 12.0376 187.318 12.2564C186.99 12.4799 186.624 12.638 186.238 12.7221V12.7661C187.156 12.8588 188.005 13.3048 188.612 14.0129C189.213 14.7423 189.529 15.6721 189.498 16.6239C189.496 16.9087 189.474 17.193 189.433 17.4747C189.386 17.8082 189.299 18.1345 189.174 18.4465C189.035 18.8008 188.847 19.1329 188.615 19.433C188.345 19.7778 188.011 20.0656 187.632 20.2801C187.159 20.55 186.65 20.7512 186.122 20.8778C185.414 21.0447 184.688 21.1223 183.961 21.1088H177.455V5.33285ZM178.921 12.2491H183.965C184.484 12.2592 185.001 12.1887 185.499 12.04C185.893 11.9233 186.261 11.7275 186.58 11.4643C186.858 11.236 187.08 10.9446 187.228 10.6135C187.373 10.2874 187.447 9.93345 187.445 9.57572C187.445 7.6028 186.286 6.61634 183.968 6.61634H178.925L178.921 12.2491ZM183.965 19.829H178.921V13.5325H183.965C185.278 13.5301 186.282 13.7844 186.976 14.2953C187.685 14.825 188.079 15.6867 188.021 16.5799C188.04 17.1257 187.929 17.6681 187.697 18.1605C187.493 18.5678 187.189 18.9141 186.814 19.1653C186.421 19.4239 185.981 19.6009 185.521 19.686C185.008 19.7835 184.487 19.8314 183.965 19.829Z" fill="#ED3425"/>
<path d="M45.7592 2.38086L45.082 0.481284C45.0165 0.244676 44.8274 0.0646637 44.5911 0.0141236C44.3548 -0.0364165 44.1105 0.0508874 43.957 0.240691C43.8036 0.430496 43.7665 0.691358 43.8607 0.917673L44.556 2.91993L45.399 3.40032" fill="#ED3425"/>
<path d="M46.9264 2.91993L47.6181 0.917673C47.7123 0.691358 47.6752 0.430496 47.5218 0.240691C47.3683 0.0508874 47.124 -0.0364165 46.8877 0.0141236C46.6514 0.0646637 46.4623 0.244676 46.3969 0.481284L45.7592 2.38086L46.1195 3.40032" fill="#F26F24"/>
<path d="M49.1491 2.39186C48.9746 2.08188 48.5876 1.97238 48.2809 2.14616L46.9336 2.91993L46.5734 3.97239L47.2939 4.24009L48.9366 3.29031C49.0861 3.20417 49.1956 3.06088 49.2409 2.89221C49.2863 2.72354 49.2636 2.54345 49.178 2.39186" fill="#ED3425"/>
<path d="M46.386 5.31089L47.7982 5.84996C47.8695 5.87753 47.9453 5.89122 48.0216 5.8903C48.3356 5.89433 48.6069 5.66743 48.6638 5.353C48.7208 5.03857 48.5469 4.72809 48.2521 4.61781L47.265 4.25109L46.386 4.75716" fill="#F26F24"/>
<path d="M45.0928 5.31089V6.35236C45.0746 6.59926 45.1938 6.83571 45.4013 6.9648C45.6089 7.09388 45.8699 7.09388 46.0775 6.9648C46.285 6.83571 46.4042 6.59926 46.386 6.35236L46.386 5.31089L45.7592 5.0652" fill="#ED3425"/>
<path d="M44.2174 4.24009L43.2303 4.6068C42.9396 4.72057 42.7695 5.02858 42.8249 5.3405C42.8804 5.65241 43.1459 5.88014 43.4572 5.88297C43.5335 5.88388 43.6093 5.8702 43.6806 5.84263L45.0928 5.30356V4.74616" fill="#ED3425"/>
<path d="M44.556 2.91993L43.2123 2.14616C43.0105 2.01016 42.7512 1.99981 42.5396 2.11932C42.328 2.23883 42.1994 2.46831 42.206 2.71452C42.2126 2.96074 42.3534 3.18273 42.571 3.29031L44.2174 4.24009L44.9162 3.97239" fill="#F26F24"/>
<path d="M21.2624 21.8093C23.4627 21.805 25.5667 20.8903 27.0912 19.2753C28.0966 18.2215 28.8187 16.922 29.1878 15.5018L31.7456 20.3755C32.1398 21.1323 32.9124 21.6056 33.754 21.6056C34.5955 21.6056 35.3682 21.1323 35.7624 20.3755L41.9874 8.47563C42.5783 7.34247 42.155 5.93624 41.0418 5.33473C39.9286 4.73322 38.5472 5.1642 37.9563 6.29735L33.9431 14.255L33.7558 14.9114L33.5684 14.255L29.5481 6.29735C28.9323 5.21782 27.5881 4.82733 26.5054 5.41344C25.4226 5.99955 24.9891 7.35236 25.5241 8.47563L27.0264 11.3433H22.3972C21.3485 11.3891 20.5214 12.2679 20.5214 13.3364C20.5214 14.4049 21.3485 15.2837 22.3972 15.3295H24.6847C23.9607 16.5415 22.6555 17.2673 21.2624 17.2327C20.275 17.233 19.3309 16.8207 18.6506 16.0923C17.9282 15.3275 17.5308 14.3038 17.5446 13.2429C17.5149 11.4037 18.7397 9.78855 20.4951 9.35207C21.436 9.13632 22.1374 8.33449 22.2393 7.35818C22.3411 6.38188 21.8208 5.44796 20.9454 5.03586C20.2969 4.81312 19.5945 4.81312 18.946 5.03586C15.4196 6.15155 13.0251 9.48392 13.0488 13.2429C13.049 13.7345 13.09 14.2252 13.1712 14.7097C12.4507 15.9162 11.0962 17.4308 8.84827 17.4308C6.78827 17.3933 5.08691 15.7819 4.90188 13.6931C4.71685 11.6042 6.10759 9.70905 8.12777 9.29706C8.12777 9.29706 8.59249 9.20538 9.33821 9.14304C10.3639 8.93069 11.0979 8.00821 11.089 6.94277C11.089 5.681 10.0842 4.65814 8.84467 4.65814C4.20854 4.7552 0.5 8.60874 0.5 13.3291C0.5 18.0494 4.20854 21.9029 8.84467 22C11.2949 22.001 13.6236 20.9136 15.221 19.0223C16.7572 20.779 18.9521 21.7916 21.2624 21.8093Z" fill="#ED3425"/>
</svg>
