<svg width="49" height="64" viewBox="0 0 49 64" fill="none" xmlns="http://www.w3.org/2000/svg">
<mask id="mask0_7101_92768" style="mask-type:luminance" maskUnits="userSpaceOnUse" x="5" y="17" width="39" height="46">
<path fill-rule="evenodd" clip-rule="evenodd" d="M5.07141 17.1431H43.2793V62.8574H5.07141V17.1431Z" fill="white"/>
</mask>
<g mask="url(#mask0_7101_92768)">
<path fill-rule="evenodd" clip-rule="evenodd" d="M43.2256 44.2359C43.2016 43.7478 43.1252 43.0863 42.9947 42.2906C42.8961 41.6668 42.7717 41.0206 42.6221 40.3538C40.8512 32.2157 35.128 16.6796 24.025 17.1537C11.3215 17.6959 6.49308 37.2422 5.99608 39.4117C5.93987 39.5293 5.8916 39.6509 5.86055 39.7796C5.33703 41.9443 5.07141 43.9035 5.07141 45.6027C5.07141 55.1171 13.6416 62.8574 24.1755 62.8574C34.7094 62.8574 43.2793 55.1171 43.2793 45.6027C43.2793 45.1644 43.2608 44.708 43.2256 44.2359Z" fill="black"/>
</g>
<path fill-rule="evenodd" clip-rule="evenodd" d="M41.7269 44.5965C41.7047 44.1471 41.6344 43.5376 41.5143 42.8045C41.4234 42.2301 41.3087 41.6349 41.1709 41.0206C39.5398 33.5245 34.2679 19.2138 24.0408 19.6504C12.3395 20.15 7.89183 38.1544 7.43403 40.1527C7.38235 40.2612 7.33793 40.373 7.30915 40.4916C6.82687 42.4858 6.58234 44.2903 6.58234 45.8556C6.58234 54.6193 14.4764 61.7492 24.1793 61.7492C33.8824 61.7492 41.7763 54.6193 41.7763 45.8556C41.7763 45.4518 41.7593 45.0315 41.7269 44.5965Z" fill="white"/>
<path fill-rule="evenodd" clip-rule="evenodd" d="M21.4136 26.1574C19.3045 27.3022 15.2081 30.4223 11.6677 38.4208C11.4059 39.0118 11.0886 38.5894 11.2921 37.918C12.9989 32.2889 16.5269 23.4784 21.5797 24.9752C21.846 25.0542 21.7139 25.9943 21.4136 26.1574Z" fill="black"/>
<path fill-rule="evenodd" clip-rule="evenodd" d="M41.7905 44.5927C41.7683 44.1432 41.698 43.5337 41.5779 42.8007C41.487 42.2263 41.3723 41.631 41.2345 41.0168C40.474 37.521 38.9211 32.5439 36.4437 28.271C38.1115 33.8253 36.3939 40.0634 31.3191 44.5046C24.5142 50.46 14.0159 51.1405 6.66318 46.4648C7.02171 54.9453 14.7678 61.7454 24.2431 61.7454C33.946 61.7454 41.8399 54.6154 41.8399 45.8517C41.8399 45.4479 41.8229 45.0276 41.7905 44.5927Z" fill="#F1F1F1"/>
<path fill-rule="evenodd" clip-rule="evenodd" d="M41.3464 37.9498C41.0065 37.853 40.6665 37.7568 40.3263 37.6598L40.2946 37.6509L40.2679 37.6642L38.9031 38.3889L37.5306 39.1013C37.071 39.3352 36.6089 39.5678 36.1454 39.7961L34.7704 40.4711C34.0574 40.5131 33.3447 40.5552 32.633 40.6107L32.5977 40.6139L32.5698 40.6339C32.2836 40.8456 32 41.0584 31.7163 41.2722L30.9011 41.8894L29.8842 41.794L28.822 41.6998C28.5763 41.6778 28.3306 41.6566 28.0852 41.6367C28.0698 41.6677 28.0548 41.6988 28.0396 41.7298C28.2939 41.7631 28.5498 41.794 28.8043 41.824L29.8629 41.9513L30.9213 42.0733L30.9655 42.0788L31.001 42.0523L31.8609 41.4205C32.1381 41.2157 32.4141 41.0118 32.6888 40.8045C33.3954 40.7504 34.098 40.6837 34.8033 40.6161L34.8234 40.6151L34.8386 40.6062L36.1998 39.8771C36.6544 39.6345 37.1102 39.3961 37.5687 39.1591L38.9498 38.4587L40.3109 37.785C40.6697 37.8994 41.0287 38.0144 41.3879 38.1289C41.3725 38.07 41.3586 38.0103 41.3464 37.9498Z" fill="black"/>
<path fill-rule="evenodd" clip-rule="evenodd" d="M27.7452 38.8216C27.703 38.8528 27.6598 38.8841 27.6176 38.9152C27.3572 39.1064 27.0966 39.2965 26.833 39.4847C26.3065 39.8603 25.7855 40.2425 25.2547 40.6142L25.2352 40.6275L25.2094 40.6295L23.1101 40.7789L22.5578 42.074L21.9665 43.4144L21.9579 43.4325L21.9407 43.4418C21.3947 43.7351 20.8467 44.0237 20.3051 44.3226L19.4912 44.7673C19.2208 44.9157 18.953 45.068 18.6826 45.2185L18.6708 45.2261L18.6556 45.2231C18.2048 45.1465 17.7541 45.068 17.3024 44.9962L15.9609 44.7776C15.3653 44.9063 14.7718 45.0321 14.1762 45.156C14.147 45.1616 14.1189 45.1683 14.0899 45.1739L14.0325 45.1862L13.9967 45.1437L13.9611 45.1021L12.9796 43.9452L11.7669 43.6282L11.7118 43.6139L11.6932 43.5648C11.5366 43.124 11.382 42.6831 11.2318 42.2404L10.7907 40.9586C10.4383 40.83 10.0839 40.7023 9.73259 40.5698L8.62889 40.1583L8.57586 40.1384L8.57268 40.0892L8.50243 39.1187L8.44078 38.1709C8.138 37.9428 7.83227 37.7157 7.53062 37.485L7.22897 37.2551C7.23441 37.2371 7.24098 37.219 7.24733 37.2002L7.58252 37.4321C7.90457 37.6524 8.22231 37.8785 8.54231 38.1017L8.56294 38.1159L8.56498 38.1405L8.66447 39.1092L8.75218 40.0268L9.81237 40.4014C10.1831 40.5311 10.553 40.6664 10.9226 40.7987L10.9702 40.8158L10.9852 40.8594L11.448 42.1837C11.5982 42.6084 11.7442 43.0342 11.889 43.4598L13.0725 43.7815L13.106 43.7909L13.1255 43.8147L14.1071 45.0095C14.7199 44.8911 15.3327 44.7756 15.9458 44.6632L15.9609 44.6604L15.9739 44.6622L17.3216 44.9149C17.7661 44.999 18.2103 45.0785 18.6567 45.1578C18.9226 45.0113 19.1907 44.8657 19.4565 44.7179L20.264 44.2639C20.7968 43.9678 21.3233 43.6604 21.8521 43.3587L22.3892 42.0191L22.934 40.7088V40.7079L22.9501 40.6692L22.9707 40.6172L23.0335 40.6132L23.1382 40.6067L25.1704 40.4857C25.6958 40.1206 26.2308 39.7657 26.7616 39.4053C27.0297 39.2227 27.2999 39.043 27.5711 38.8633C27.6242 38.8282 27.6772 38.7933 27.73 38.7574C27.7355 38.779 27.7409 38.7998 27.7452 38.8216Z" fill="black"/>
<path fill-rule="evenodd" clip-rule="evenodd" d="M14.1701 45.0977L14.1457 46.0673L14.1101 46.0074L15.5467 46.9345L15.5564 46.941L15.5608 46.9492L16.3862 48.527L15.4817 46.9827L15.4959 46.9974L14.014 46.127L13.9795 46.1068L13.9784 46.0673L13.9539 45.0977H14.1701Z" fill="black"/>
<path fill-rule="evenodd" clip-rule="evenodd" d="M25.857 9.27315C25.857 11.9802 25.4038 14.1747 24.8449 14.1747C24.286 14.1747 23.8327 11.9802 23.8327 9.27315C23.8327 6.5661 24.286 4.37158 24.8449 4.37158C25.4038 4.37158 25.857 6.5661 25.857 9.27315Z" fill="black"/>
<path fill-rule="evenodd" clip-rule="evenodd" d="M30.9165 7.64077C30.0602 11.2728 28.9654 14.1449 28.4717 14.0557C27.9778 13.9665 28.2717 10.9498 29.128 7.3178C29.9843 3.68578 31.0789 0.813616 31.5728 0.902906C32.0667 0.992019 31.7728 4.00875 30.9165 7.64077Z" fill="black"/>
<path fill-rule="evenodd" clip-rule="evenodd" d="M20.5254 8.59255C21.5114 12.1994 21.9131 15.2064 21.4228 15.3092C20.9323 15.4119 19.7353 12.5713 18.7492 8.96442C17.7631 5.35756 17.3615 2.35057 17.852 2.24782C18.3423 2.14506 19.5393 4.98569 20.5254 8.59255Z" fill="black"/>
</svg>
