<svg width="24" height="24" viewBox="0 0 24 24" fill="none" xmlns="http://www.w3.org/2000/svg">
<g clip-path="url(#clip0_1015_113978)">
<path fill-rule="evenodd" clip-rule="evenodd" d="M6 12.0302C6 15.0151 8.16 17.4874 11.01 18L11.0454 17.9709C11.0436 17.9705 11.0418 17.9702 11.04 17.9699V13.7186H9.54001V12.0302H11.04V10.7035C11.04 9.19599 12 8.35177 13.38 8.35177C13.8 8.35177 14.28 8.41208 14.7 8.47238V10.0101H13.92C13.2 10.0101 13.02 10.3719 13.02 10.8543V12.0302H14.61L14.34 13.7186H13.02V17.9699C13.0017 17.9732 12.9835 17.9764 12.9652 17.9796L12.99 18C15.84 17.4874 18 15.0151 18 12.0302C18 8.71357 15.3 6 12 6C8.7 6 6 8.71357 6 12.0302Z" fill="white"/>
<rect x="0.5" y="0.5" width="23" height="23" rx="3.5" stroke="white"/>
</g>
<defs>
<clipPath id="clip0_1015_113978">
<rect width="24" height="24" fill="white"/>
</clipPath>
</defs>
</svg>
