<svg width="25" height="24" viewBox="0 0 25 24" fill="none" xmlns="http://www.w3.org/2000/svg">
<path fill-rule="evenodd" clip-rule="evenodd" d="M22.5941 0H3.39414C2.06866 0 0.994141 1.07452 0.994141 2.4V21.6C0.994141 22.9255 2.06866 24 3.39414 24L12.9941 24V14.9647H9.39414V11.5765H12.9941V9.75699C12.9941 6.31228 14.7817 4.8 17.7041 4.8C19.0762 4.8 19.8145 4.89771 20.1731 4.94517L20.1941 4.94795V8.18824H18.201C16.9605 8.18824 16.5941 8.82974 16.5941 10.1286V11.5765H20.163L19.6696 14.9647H16.5941V24L22.5941 24C23.9196 24 24.9941 22.9255 24.9941 21.6V2.4C24.9941 1.07452 23.9196 0 22.5941 0Z" fill="white"/>
</svg>
