<svg width="33" height="32" viewBox="0 0 33 32" fill="none" xmlns="http://www.w3.org/2000/svg">
<rect x="0.335938" width="32" height="32" rx="16" fill="white"/>
<path fill-rule="evenodd" clip-rule="evenodd" d="M12.6346 9.41667C10.5404 9.41667 8.83464 11.123 8.83464 13.2417C8.83464 15.8811 10.0521 18.002 11.5998 19.5877C13.1575 21.1838 14.9985 22.1813 16.0872 22.553L16.0953 22.5558L16.0953 22.5558C16.1201 22.5646 16.2067 22.5833 16.3346 22.5833C16.4626 22.5833 16.5492 22.5646 16.574 22.5558L16.5821 22.553L16.5821 22.553C17.6708 22.1813 19.5118 21.1838 21.0695 19.5877C22.6172 18.002 23.8346 15.8811 23.8346 13.2417C23.8346 11.123 22.1288 9.41667 20.0346 9.41667C18.8016 9.41667 17.6952 10.0157 17.0037 10.9468C16.8464 11.1585 16.5983 11.2833 16.3346 11.2833C16.071 11.2833 15.8228 11.1585 15.6656 10.9468C14.9736 10.015 13.8752 9.41667 12.6346 9.41667ZM7.16797 13.2417C7.16797 10.2103 9.61218 7.75 12.6346 7.75C14.0661 7.75 15.365 8.30357 16.335 9.20615C17.3073 8.30324 18.6104 7.75 20.0346 7.75C23.0571 7.75 25.5013 10.2103 25.5013 13.2417C25.5013 16.4355 24.0187 18.9522 22.2623 20.7518C20.5174 22.5396 18.4521 23.675 17.1241 24.1291C16.8666 24.2191 16.5802 24.25 16.3346 24.25C16.089 24.25 15.8026 24.2191 15.5452 24.1291C14.2171 23.675 12.1519 22.5396 10.407 20.7518C8.65055 18.9522 7.16797 16.4355 7.16797 13.2417Z" fill="#3D4245"/>
</svg>
