<svg width="128" height="128" viewBox="0 0 128 128" fill="none" xmlns="http://www.w3.org/2000/svg">
<rect x="2" y="2" width="124" height="124" rx="62" fill="white"/>
<rect x="2" y="2" width="124" height="124" rx="62" stroke="#FF442A" stroke-width="4"/>
<path d="M39.0775 73.2679V67.5144H89.8288V73.2679H39.0775ZM78.8159 60.7939C80.2089 60.7939 81.5188 61.3362 82.5043 62.3212C83.4292 63.2461 83.9638 64.458 84.0256 65.7566H73.6073C73.7398 62.9978 76.0251 60.7939 78.8165 60.7939H78.8159ZM42.5366 92.2428V75.0251H86.3703V92.2428H42.5366ZM51.8969 61.4527V65.6247H50.2942V61.4527H51.8969ZM45.6167 53.876H56.575V59.6954H45.6167V53.876ZM41.658 94H87.2495C87.7348 94 88.1281 93.6067 88.1281 93.1214V75.0251H90.708C91.1933 75.0251 91.5866 74.6319 91.5866 74.1465V66.6358C91.5866 66.1505 91.1933 65.7572 90.708 65.7572H85.784C85.7216 63.9893 85.004 62.3366 83.747 61.079C82.43 59.762 80.6788 59.0366 78.8165 59.0366C75.0562 59.0366 71.982 62.0289 71.849 65.7566H53.6553V61.4527H57.4542C57.9395 61.4527 58.3327 61.0594 58.3327 60.5741V52.9974C58.3327 52.5121 57.9395 52.1188 57.4542 52.1188H44.7387C44.2534 52.1188 43.8601 52.5121 43.8601 52.9974V60.5741C43.8601 61.0594 44.2534 61.4527 44.7387 61.4527H48.5376V65.7566H38.1989C37.7136 65.7566 37.3203 66.1499 37.3203 66.6352V74.1459C37.3203 74.6313 37.7136 75.0245 38.1989 75.0245H40.7788V93.1208C40.7788 93.6061 41.1721 93.9994 41.6574 93.9994L41.658 94Z" fill="#FF5348"/>
<path d="M50.0951 83.5362C49.8878 83.7382 49.7933 84.0293 49.8426 84.3139L50.0089 85.284L49.1375 84.8259C48.8814 84.6911 48.5755 84.6911 48.3195 84.8259L47.448 85.284L47.6144 84.3139C47.6631 84.0287 47.5686 83.7376 47.3619 83.5362L46.6568 82.8489L47.631 82.7075C47.9173 82.6659 48.1644 82.4859 48.2928 82.2269L48.7282 81.3442L49.1636 82.2269C49.2913 82.4865 49.539 82.6659 49.8254 82.7075L50.7996 82.8489L50.0945 83.5362H50.0951ZM52.8146 81.3661L50.5359 81.0352L49.5165 78.9703C49.3686 78.6703 49.0632 78.4802 48.7288 78.4802C48.3943 78.4802 48.089 78.6703 47.9411 78.9703L46.9217 81.0352L44.643 81.3661C44.3121 81.4143 44.037 81.6459 43.9337 81.9644C43.8303 82.2828 43.9164 82.6315 44.1558 82.8649L45.8049 84.4725L45.4158 86.7424C45.3594 87.0721 45.4948 87.4053 45.7651 87.602C45.9184 87.7131 46.0996 87.7701 46.2819 87.7701C46.4215 87.7701 46.5623 87.7368 46.6906 87.6691L48.7288 86.5974L50.7669 87.6691C51.0628 87.8247 51.4216 87.7986 51.6924 87.602C51.9627 87.4053 52.0988 87.0721 52.0417 86.7424L51.6526 84.4725L53.3017 82.8649C53.5411 82.6315 53.6272 82.2822 53.5239 81.9644C53.4205 81.6465 53.1455 81.4143 52.8146 81.3661Z" fill="#FF5348"/>
<path d="M60.3216 83.5362C60.1149 83.7382 60.0199 84.0293 60.0692 84.3139L60.2355 85.284L59.364 84.8259C59.108 84.6911 58.8021 84.6911 58.546 84.8259L57.6746 85.284L57.8409 84.3139C57.8896 84.0287 57.7952 83.7376 57.5879 83.5362L56.8827 82.8489L57.857 82.7075C58.1433 82.6659 58.3904 82.4859 58.5187 82.2269L58.9542 81.3442L59.3896 82.2269C59.5173 82.4865 59.765 82.6659 60.0513 82.7075L61.0256 82.8489L60.3204 83.5362H60.3216ZM63.0412 81.3661L60.7624 81.0352L59.743 78.9703C59.5951 78.6703 59.2898 78.4802 58.9553 78.4802C58.6209 78.4802 58.3156 78.6703 58.1676 78.9703L57.1483 81.0352L54.8695 81.3661C54.5386 81.4143 54.2636 81.6459 54.1602 81.9644C54.0569 82.2828 54.143 82.6315 54.3824 82.8649L56.0315 84.4725L55.6424 86.7424C55.5859 87.0721 55.7214 87.4053 55.9917 87.602C56.1449 87.7131 56.3261 87.7701 56.5085 87.7701C56.6481 87.7701 56.7889 87.7368 56.9172 87.6691L58.9553 86.5974L60.9935 87.6691C61.2893 87.8247 61.6481 87.7986 61.919 87.602C62.1893 87.4053 62.3253 87.0721 62.2683 86.7424L61.8792 84.4725L63.5283 82.8649C63.7677 82.6315 63.8538 82.2822 63.7504 81.9644C63.6471 81.6465 63.372 81.4143 63.0412 81.3661Z" fill="#FF5348"/>
<path d="M70.556 83.5362C70.3487 83.7382 70.2542 84.0293 70.3035 84.3139L70.4699 85.284L69.5984 84.8259C69.3424 84.6911 69.0365 84.6911 68.7804 84.8259L67.909 85.284L68.0753 84.3139C68.124 84.0287 68.0295 83.7382 67.8228 83.5362L67.1177 82.8489L68.0919 82.7075C68.3783 82.6659 68.6254 82.4859 68.7537 82.2269L69.1891 81.3442L69.6246 82.2269C69.7523 82.4865 70 82.6659 70.2863 82.7075L71.2605 82.8489L70.5554 83.5362H70.556ZM73.2755 81.3661L70.9968 81.0352L69.9774 78.9703C69.8295 78.6703 69.5242 78.4802 69.1897 78.4802C68.8553 78.4802 68.5499 78.6703 68.402 78.9703L67.3826 81.0352L65.1039 81.3661C64.773 81.4143 64.498 81.6459 64.3946 81.9644C64.2912 82.2828 64.3774 82.6315 64.6168 82.8649L66.2658 84.4725L65.8767 86.7424C65.8203 87.0721 65.9558 87.4053 66.226 87.602C66.4969 87.7986 66.8551 87.8247 67.1516 87.6691L69.1897 86.5974L71.2279 87.6691C71.3562 87.7368 71.497 87.7701 71.6366 87.7701C71.8189 87.7701 72.0001 87.7137 72.1534 87.602C72.4237 87.4053 72.5597 87.0721 72.5027 86.7424L72.1136 84.4725L73.7626 82.8649C74.002 82.6315 74.0882 82.2822 73.9848 81.9644C73.8815 81.6465 73.6064 81.4143 73.2755 81.3661Z" fill="#FF5348"/>
<path d="M80.7904 83.5362C80.5831 83.7382 80.4886 84.0293 80.5379 84.3139L80.7042 85.284L79.8328 84.8259C79.5768 84.6911 79.2708 84.6911 79.0154 84.8259L78.1439 85.284L78.3103 84.3139C78.359 84.0287 78.2645 83.7382 78.0578 83.5362L77.3527 82.8489L78.3269 82.7075C78.6132 82.6659 78.8603 82.4859 78.9887 82.2269L79.4241 81.3442L79.8595 82.2269C79.9872 82.4865 80.235 82.6659 80.5213 82.7075L81.4955 82.8489L80.7904 83.5362ZM83.5099 81.3661L81.2312 81.0352L80.2118 78.9703C80.0639 78.6703 79.7585 78.4802 79.4241 78.4802C79.0896 78.4802 78.7843 78.6703 78.6364 78.9703L77.617 81.0352L75.3383 81.3661C75.0074 81.4143 74.7324 81.6459 74.629 81.9644C74.5256 82.2828 74.6118 82.6315 74.8512 82.8649L76.5002 84.4725L76.1111 86.7424C76.0547 87.0721 76.1901 87.4053 76.4604 87.602C76.7313 87.7986 77.0895 87.8247 77.3859 87.6691L79.4241 86.5974L81.4622 87.6691C81.5906 87.7368 81.7313 87.7701 81.8709 87.7701C82.0533 87.7701 82.2345 87.7137 82.3878 87.602C82.6581 87.4053 82.7941 87.0721 82.7371 86.7424L82.348 84.4725L83.997 82.8649C84.2364 82.6315 84.3226 82.2822 84.2192 81.9644C84.1158 81.6465 83.8408 81.4143 83.5099 81.3661Z" fill="#FF5348"/>
<path d="M78.8153 49.8073C80.7555 49.8073 82.3344 51.3858 82.3344 53.3265C82.3344 55.2673 80.7561 56.8458 78.8153 56.8458C76.8746 56.8458 75.2962 55.2673 75.2962 53.3265C75.2962 51.3858 76.8746 49.8073 78.8153 49.8073ZM78.8153 58.603C81.725 58.603 84.0916 56.2357 84.0916 53.3265C84.0916 50.4174 81.725 48.0501 78.8153 48.0501C75.9057 48.0501 73.5391 50.4174 73.5391 53.3265C73.5391 56.2357 75.9063 58.603 78.8153 58.603Z" fill="#FF5348"/>
<path d="M89.2523 43.224H38.1712V35.7572H89.2523V43.2234V43.224ZM90.1314 34H37.2926C36.8073 34 36.4141 34.3933 36.4141 34.8786V44.1026C36.4141 44.5879 36.8073 44.9812 37.2926 44.9812H90.1309C90.6162 44.9812 91.0094 44.5879 91.0094 44.1026V34.8786C91.0094 34.3933 90.6162 34 90.1309 34H90.1314Z" fill="#FF5348"/>
<path d="M41.9915 39.3941C41.9915 38.806 42.4703 38.3271 43.0584 38.3271H50.8291C51.4172 38.3271 51.896 38.806 51.896 39.3941V39.4559C51.896 40.044 51.4172 40.5228 50.8291 40.5228H43.0584C42.4703 40.5228 41.9915 40.044 41.9915 39.4559V39.3941ZM43.0584 42.28H50.8291C52.3861 42.28 53.6532 41.0129 53.6532 39.4559V39.3941C53.6532 37.8365 52.3861 36.5699 50.8291 36.5699H43.0584C41.5015 36.5699 40.2344 37.837 40.2344 39.3941V39.4559C40.2344 41.0129 41.5015 42.28 43.0584 42.28Z" fill="#FF5348"/>
<path d="M58.7181 39.4594C58.7181 38.8713 59.1969 38.3925 59.785 38.3925H67.5551C68.1432 38.3925 68.622 38.8713 68.622 39.4594V39.5212C68.622 40.1093 68.1432 40.5881 67.5551 40.5881H59.785C59.1969 40.5881 58.7181 40.1093 58.7181 39.5212V39.4594ZM59.785 42.346H67.5551C69.1126 42.346 70.3791 41.0788 70.3791 39.5218V39.46C70.3791 37.9024 69.1121 36.6359 67.5551 36.6359H59.785C58.228 36.6359 56.9609 37.903 56.9609 39.46V39.5218C56.9609 41.0788 58.228 42.346 59.785 42.346Z" fill="#FF5348"/>
<path d="M75.4603 39.5253C75.4603 38.9372 75.9391 38.4584 76.5272 38.4584H84.2979C84.886 38.4584 85.3648 38.9372 85.3648 39.5253V39.5871C85.3648 40.1752 84.886 40.6541 84.2979 40.6541H76.5272C75.9391 40.6541 75.4603 40.1752 75.4603 39.5871V39.5253ZM76.5272 42.4119H84.2979C85.8548 42.4119 87.1219 41.1448 87.1219 39.5877V39.5259C87.1219 37.9683 85.8548 36.7018 84.2979 36.7018H76.5272C74.9696 36.7018 73.7031 37.9689 73.7031 39.5259V39.5877C73.7031 41.1448 74.9702 42.4119 76.5272 42.4119Z" fill="#FF5348"/>
</svg>
