<svg width="128" height="128" viewBox="0 0 128 128" fill="none" xmlns="http://www.w3.org/2000/svg">
<rect x="2" y="2" width="124" height="124" rx="62" fill="white"/>
<rect x="2" y="2" width="124" height="124" rx="62" stroke="#FF442A" stroke-width="4"/>
<path fill-rule="evenodd" clip-rule="evenodd" d="M94.1153 86.3561H33.884C32.3198 86.3561 31.0473 85.0837 31.0473 83.5194V72.8733H96.9534V83.5194C96.9534 85.0837 95.6809 86.3561 94.1167 86.3561H94.1153ZM33.884 41.6432H94.116C95.6802 41.6432 96.9527 42.9157 96.9527 44.4799V62.9909C96.8979 62.9819 96.8418 62.9764 96.785 62.9764H31.0466V44.4799C31.0466 42.9157 32.3191 41.6432 33.8833 41.6432H33.884ZM31.0466 65.023H96.7843C96.8418 65.023 96.8973 65.0167 96.952 65.0077V70.826H31.0466V65.023ZM94.1153 39.5966H33.884C31.1908 39.5966 29 41.7874 29 44.4799V83.5194C29 86.212 31.1908 88.4034 33.884 88.4034H94.116C96.8085 88.4034 99 86.2127 99 83.5194V44.4799C99 41.7874 96.8092 39.5966 94.116 39.5966H94.1153ZM41.3342 76.7926H35.1174C34.5526 76.7926 34.0938 77.2507 34.0938 77.8163C34.0938 78.3818 34.5519 78.8399 35.1174 78.8399H41.3342C41.8997 78.8399 42.3578 78.3818 42.3578 77.8163C42.3578 77.2507 41.8997 76.7926 41.3342 76.7926ZM45.3205 76.7926H51.5373C52.1028 76.7926 52.561 77.2507 52.561 77.8163C52.561 78.3818 52.1021 78.8399 51.5373 78.8399H45.3205C44.755 78.8399 44.2969 78.3818 44.2969 77.8163C44.2969 77.2507 44.755 76.7926 45.3205 76.7926ZM61.7561 76.7926H55.5393C54.9744 76.7926 54.5156 77.2507 54.5156 77.8163C54.5156 78.3818 54.9737 78.8399 55.5393 78.8399H61.7561C62.3216 78.8399 62.7797 78.3818 62.7797 77.8163C62.7797 77.2507 62.3216 76.7926 61.7561 76.7926ZM65.7424 76.7926H71.9592C72.5247 76.7926 72.9828 77.2507 72.9828 77.8163C72.9828 78.3818 72.524 78.8399 71.9592 78.8399H65.7424C65.1769 78.8399 64.7188 78.3818 64.7188 77.8163C64.7188 77.2507 65.1769 76.7926 65.7424 76.7926ZM82.1467 76.7926H75.9299C75.3651 76.7926 74.9062 77.2507 74.9062 77.8163C74.9062 78.3818 75.3644 78.8399 75.9299 78.8399H82.1467C82.7115 78.8399 83.1703 78.3818 83.1703 77.8163C83.1703 77.2507 82.7122 76.7926 82.1467 76.7926ZM86.1643 76.7926H92.381C92.9466 76.7926 93.4047 77.2507 93.4047 77.8163C93.4047 78.3818 92.9459 78.8399 92.381 78.8399H86.1643C85.5987 78.8399 85.1406 78.3818 85.1406 77.8163C85.1406 77.2507 85.5994 76.7926 86.1643 76.7926ZM75.2756 46.4502C76.5647 46.4502 77.614 47.4988 77.614 48.7886C77.614 50.0784 76.5654 51.127 75.2756 51.127C73.9858 51.127 72.9372 50.0784 72.9372 48.7886C72.9372 47.4988 73.9858 46.4502 75.2756 46.4502ZM75.2756 53.1729C77.6937 53.1729 79.6606 51.206 79.6606 48.7879C79.6606 46.3698 77.6937 44.4029 75.2756 44.4029C72.8575 44.4029 70.8906 46.3698 70.8906 48.7879C70.8906 51.206 72.8575 53.1729 75.2756 53.1729ZM85.9319 58.906C87.2217 58.906 88.2703 57.8567 88.2703 56.5676C88.2703 55.2778 87.2217 54.2292 85.9319 54.2292C84.6421 54.2292 83.5935 55.2778 83.5935 56.5676C83.5935 57.8574 84.6421 58.906 85.9319 58.906ZM85.9319 60.9526C83.5138 60.9526 81.5469 58.9857 81.5469 56.5676C81.5469 54.1495 83.5138 52.1826 85.9319 52.1826C88.35 52.1826 90.3169 54.1495 90.3169 56.5676C90.3169 58.9857 88.35 60.9526 85.9319 60.9526ZM74.6796 60.773C74.8598 60.9012 75.0671 60.9629 75.2722 60.9629C75.5917 60.9629 75.9071 60.8132 76.1067 60.5332L86.9864 45.2526C87.3142 44.7924 87.2067 44.1534 86.7465 43.8256C86.2864 43.4977 85.6474 43.6052 85.3195 44.0654L74.4398 59.346C74.112 59.8062 74.2194 60.4452 74.6796 60.773ZM45.4267 49.4519C45.1869 49.9378 44.7239 50.2739 44.1875 50.3522L44.1882 50.3515L41.4541 50.7486L43.4321 52.6767C43.8202 53.0552 43.9969 53.5992 43.9054 54.1336L43.4383 56.8566L45.8834 55.571C46.1232 55.4448 46.3866 55.3818 46.6493 55.3818C46.9119 55.3818 47.1753 55.4448 47.4151 55.571L49.8602 56.8566L49.3931 54.1343C49.3016 53.6006 49.4783 53.0559 49.8665 52.6774L51.8445 50.7493L49.111 50.3522C48.5746 50.2746 48.1116 49.9378 47.8718 49.4519L46.6493 46.9749L45.4267 49.4519ZM41.2843 57.3113L41.8526 53.9963H41.8519L39.4435 51.6482C38.9916 51.2075 38.8322 50.5608 39.027 49.9606C39.2217 49.3604 39.7311 48.9314 40.3556 48.8406L43.6843 48.3569L45.173 45.3407C45.4523 44.7744 46.0179 44.4231 46.6493 44.4231C47.2806 44.4231 47.8462 44.7751 48.1255 45.3407L49.6142 48.3569L52.943 48.8406C53.5674 48.9314 54.0761 49.3604 54.2716 49.9606C54.4663 50.5608 54.3069 51.2075 53.855 51.6482L51.4466 53.9963L52.0156 57.3113C52.1224 57.9336 51.8715 58.5504 51.3607 58.9212C51.0724 59.1305 50.7342 59.2373 50.3946 59.2373C50.1333 59.2373 49.8706 59.1742 49.6274 59.0467L46.65 57.4817L43.6726 59.0467C43.114 59.3405 42.45 59.292 41.9392 58.9212C41.4284 58.5504 41.1775 57.9336 41.2843 57.3113Z" fill="#FF5348"/>
</svg>
