<svg width="174" height="44" viewBox="0 0 174 44" fill="none" xmlns="http://www.w3.org/2000/svg">
<path fill-rule="evenodd" clip-rule="evenodd" d="M0 44H174V43.2296H0V44Z" fill="#383838"/>
<path fill-rule="evenodd" clip-rule="evenodd" d="M0 16.644H174V16.3552H0V16.644Z" fill="#383838"/>
<path fill-rule="evenodd" clip-rule="evenodd" d="M0 0.770358H174V0H0V0.770358Z" fill="#383838"/>
<path fill-rule="evenodd" clip-rule="evenodd" d="M44.7788 33.6878C44.5155 34.4341 44.1427 35.0853 43.673 35.6299C43.1994 36.17 42.6262 36.595 41.9717 36.8993C41.3151 37.2022 40.5811 37.3558 39.7882 37.3558C38.8113 37.3558 37.9314 37.1351 37.174 36.6971C36.4175 36.2546 35.7699 35.6349 35.2543 34.846C34.7341 34.0532 34.3294 33.0991 34.0576 32.0114C33.7828 30.9182 33.6429 29.7143 33.6429 28.4389C33.6429 27.4843 33.7883 26.6309 34.0786 25.9026C34.3639 25.1728 34.7561 24.5511 35.2338 24.055C35.7125 23.5575 36.2751 23.173 36.9056 22.9133C37.5352 22.654 38.2088 22.5198 38.8978 22.5198C39.9441 22.5198 40.8749 22.7411 41.6579 23.1791C42.4429 23.6175 43.1014 24.2337 43.6171 25.0036C44.1342 25.7804 44.5294 26.7065 44.7863 27.7572C45.0446 28.8178 45.1745 29.9836 45.1745 31.2255C45.1745 32.113 45.0411 32.9434 44.7788 33.6878ZM45.913 23.6281C45.1585 22.7981 44.1877 22.1304 43.0335 21.6398C41.8802 21.1498 40.5147 20.9025 38.9757 20.9025C37.8535 20.9025 36.7677 21.1483 35.7524 21.6308C34.7396 22.1094 33.8407 22.7706 33.0752 23.588C32.3113 24.4059 31.6997 25.371 31.257 26.4537C30.8128 27.5384 30.5889 28.7102 30.5889 29.9371C30.5889 31.2846 30.7993 32.527 31.2155 33.6257C31.6317 34.7294 32.2283 35.6925 32.9848 36.4854C33.7428 37.2798 34.6587 37.8984 35.7075 38.3269C36.7572 38.7544 37.9259 38.9716 39.1876 38.9716C40.4237 38.9716 41.6049 38.7614 42.6972 38.355C43.7909 37.9465 44.7543 37.3448 45.5642 36.571C46.3737 35.7936 47.0197 34.837 47.4809 33.7243C47.9426 32.6126 48.177 31.3366 48.177 29.9371C48.177 28.7488 47.9891 27.596 47.6153 26.5178C47.2446 25.4296 46.672 24.458 45.913 23.6281Z" fill="#383838"/>
<path fill-rule="evenodd" clip-rule="evenodd" d="M61.1426 34.4522C60.9892 34.8942 60.8149 35.2951 60.617 35.648C60.4271 35.9859 60.2033 36.2757 59.9549 36.5115C59.7131 36.7377 59.4163 36.9124 59.073 37.0386C58.7258 37.1612 58.3041 37.2223 57.8194 37.2223H54.9598C54.5341 37.2223 54.1969 37.1687 53.9605 37.0556C53.7637 36.965 53.6687 36.8138 53.6687 36.5856V23.4459C53.6687 23.0755 53.8066 22.8373 54.1044 22.7006C54.4112 22.5554 54.9109 22.4438 55.7183 22.3322C55.8867 22.3102 55.9567 22.2971 55.9567 22.2971L56.1086 22.2771V21.0863H48.857V22.2581L49.0119 22.2771C49.0119 22.2771 49.0933 22.2876 49.2138 22.3067C49.8948 22.4123 50.3525 22.5329 50.5668 22.6631C50.7572 22.7802 50.8491 22.9769 50.8491 23.2612V36.6662C50.8491 36.9179 50.7517 37.0906 50.5438 37.2078C50.3085 37.3429 49.8323 37.4715 49.1313 37.5952C49.0619 37.6072 48.9339 37.6197 48.9339 37.6197L48.7776 37.6382V38.7855H61.6173L62.4133 34.3321H61.1856L61.1426 34.4522Z" fill="#383838"/>
<path fill-rule="evenodd" clip-rule="evenodd" d="M77.1856 33.2756C76.9323 34.1036 76.5226 34.8184 75.9654 35.3995C75.4108 35.9822 74.6773 36.4352 73.7799 36.749C72.8765 37.0649 71.7503 37.222 70.4262 37.222H68.9242V37.4012H68.8578L68.9142 37.2336C68.7079 37.163 68.6 37.0483 68.556 36.9828C68.4895 36.8922 68.458 36.7806 68.458 36.6414V22.6498H69.8786C72.3874 22.6498 74.3191 23.292 75.6172 24.5609C76.9133 25.8228 77.5693 27.8 77.5693 30.4385C77.5693 31.4837 77.4399 32.4382 77.1856 33.2756ZM78.4263 23.7956C77.6768 23.0117 76.7274 22.379 75.5952 21.9145C74.4719 21.4525 73.1454 21.2187 71.6604 21.2187H63.5419V22.2379L63.9731 22.3064C64.6342 22.4251 65.0943 22.5512 65.3387 22.6813C65.5435 22.791 65.6385 22.9772 65.6385 23.261V36.6394C65.6385 36.8867 65.535 37.0539 65.3167 37.163C65.0579 37.2926 64.6142 37.4378 63.9621 37.5955C63.8842 37.616 63.6923 37.644 63.6923 37.644L63.5419 37.666V38.6556H71.6873C73.1928 38.6556 74.5259 38.3999 75.6556 37.8908C76.7829 37.3837 77.7287 36.7065 78.4667 35.8765C79.2087 35.0486 79.7643 34.1036 80.1306 33.0739C80.4939 32.0383 80.6797 30.9861 80.6797 29.9374C80.6797 28.7471 80.4899 27.6143 80.1171 26.5657C79.7439 25.5145 79.1728 24.5825 78.4263 23.7956Z" fill="#383838"/>
<path fill-rule="evenodd" clip-rule="evenodd" d="M22.148 30.9637L22.2909 30.9937C22.2909 30.9937 22.3744 31.0122 22.6137 31.0457C23.2783 31.1444 23.7175 31.2695 23.9583 31.4257C24.1871 31.5783 24.2981 31.8511 24.2981 32.2636V37.1891C23.9793 37.2742 23.5961 37.3508 23.1529 37.4098C22.6487 37.4789 22.1405 37.5119 21.6419 37.5119C20.6765 37.5119 19.7707 37.3157 18.9492 36.9253C18.1308 36.5339 17.4058 35.9772 16.8082 35.2644C16.2036 34.5471 15.7184 33.6802 15.3687 32.6926C15.0179 31.6975 14.8395 30.5962 14.8395 29.4119C14.8395 28.3998 14.9794 27.4517 15.2527 26.5853C15.5226 25.7278 15.9318 24.9815 16.4639 24.3643C16.994 23.7451 17.6746 23.2551 18.486 22.8972C19.299 22.5408 20.2648 22.3601 21.3536 22.3601C22.7112 22.3601 23.7624 22.6093 24.4814 23.0944C25.1815 23.5649 25.6901 24.3643 25.9954 25.4625L26.0314 25.5907H27.3415L26.7569 21.7274L26.642 21.6973C26.0784 21.5542 25.5482 21.4375 25.075 21.3404C24.5879 21.2448 24.1067 21.1612 23.635 21.0897C23.1579 21.0191 22.6722 20.9695 22.1895 20.9435C21.7083 20.918 21.1977 20.9024 20.6705 20.9024C19.1846 20.9024 17.86 21.1793 16.7377 21.7234C15.6185 22.2655 14.6766 22.9728 13.9396 23.8292C13.2021 24.6847 12.6455 25.6572 12.2798 26.7254C11.916 27.7891 11.7341 28.8693 11.7341 29.937C11.7341 31.2129 11.916 32.4113 12.2798 33.504C12.6455 34.5992 13.2101 35.5613 13.9581 36.3647C14.7086 37.1706 15.658 37.8133 16.7877 38.2753C17.9164 38.7353 19.256 38.9716 20.778 38.9716C21.8797 38.9716 22.8566 38.9285 23.6795 38.8549C24.4545 38.7789 25.2494 38.6707 26.1073 38.5221C26.6135 38.433 26.9832 38.3068 26.9997 38.3013L27.1187 38.2588V31.9738C27.1187 31.6784 27.2016 31.4722 27.378 31.3406C27.5514 31.2074 27.8881 31.1083 28.4667 31.0192C28.6651 30.9882 28.7291 30.9772 28.7291 30.9772L28.878 30.9511V29.7758H22.148V30.9637Z" fill="#383838"/>
<path fill-rule="evenodd" clip-rule="evenodd" d="M101.929 34.3304C101.726 34.838 101.508 35.297 101.278 35.6964C101.055 36.0884 100.776 36.4222 100.454 36.6855C100.132 36.9498 99.7243 37.1556 99.2321 37.2967C98.7339 37.4399 98.1124 37.5119 97.3774 37.5119C96.463 37.5119 95.5936 37.3167 94.7911 36.9253C93.9857 36.5374 93.2736 35.9772 92.6751 35.2644C92.066 34.5471 91.5808 33.6802 91.2206 32.6886C90.8638 31.6975 90.6829 30.5947 90.6829 29.4119C90.6829 28.3502 90.8243 27.3732 91.1061 26.5077C91.3854 25.6517 91.8036 24.9099 92.3538 24.2987C92.9004 23.6921 93.5889 23.214 94.3894 22.8731C95.1958 22.5333 96.1402 22.3601 97.1935 22.3601C98.4451 22.3601 99.408 22.5983 100.057 23.0644C100.703 23.5264 101.182 24.3283 101.489 25.4575L101.523 25.5907H102.851L102.233 21.6733L102.118 21.6458C101.655 21.5211 101.213 21.4085 100.801 21.3154C100.38 21.2188 99.9416 21.1382 99.5024 21.0776C99.0597 21.0146 98.5915 20.9695 98.1084 20.9435C97.6272 20.918 97.0906 20.9024 96.5134 20.9024C95.0225 20.9024 93.6999 21.1793 92.5776 21.7234C91.4609 22.2655 90.5175 22.9783 89.7805 23.8417C89.0445 24.7047 88.4849 25.6838 88.1222 26.751C87.7574 27.8151 87.5735 28.8883 87.5735 29.937C87.5735 31.1939 87.7574 32.3857 88.1202 33.478C88.4849 34.5732 89.0445 35.5367 89.784 36.3517C90.5225 37.1631 91.4684 37.8093 92.5866 38.2753C93.7074 38.7353 95.029 38.9716 96.5134 38.9716C97.5812 38.9716 98.572 38.9285 99.4654 38.8549C100.356 38.7724 101.242 38.6637 102.101 38.5221L102.216 38.5035L103.383 34.2178H101.974L101.929 34.3304Z" fill="#383838"/>
<path fill-rule="evenodd" clip-rule="evenodd" d="M116.878 34.4522C116.727 34.8942 116.549 35.2951 116.354 35.648C116.163 35.9859 115.939 36.2757 115.692 36.5115C115.45 36.7377 115.149 36.9124 114.809 37.0386C114.46 37.1612 114.041 37.2223 113.557 37.2223H110.698C110.27 37.2223 109.931 37.1687 109.696 37.0556C109.498 36.965 109.404 36.8138 109.404 36.5856V23.4459C109.404 23.0755 109.542 22.8373 109.837 22.7006C110.147 22.5554 110.646 22.4438 111.456 22.3322C111.623 22.3102 111.695 22.2971 111.695 22.2971L111.843 22.2771V21.0863H104.592V22.2581L104.747 22.2771C104.747 22.2771 104.827 22.2876 104.95 22.3067C105.633 22.4123 106.085 22.5329 106.303 22.6631C106.491 22.7802 106.586 22.9769 106.586 23.2612V36.6662C106.586 36.9179 106.49 37.0906 106.281 37.2078C106.045 37.3429 105.57 37.4715 104.869 37.5952C104.796 37.6072 104.671 37.6197 104.671 37.6197L104.513 37.6382V38.7855H117.35L118.148 34.3321H116.919L116.878 34.4522Z" fill="#383838"/>
<path fill-rule="evenodd" clip-rule="evenodd" d="M125.055 30.9697L127.282 25.1957L129.419 30.9697H125.055ZM135.236 37.2637C134.927 37.139 134.726 36.9774 134.642 36.7827L128.496 21.2003L128.452 21.0862H127.484L121.158 36.6986C121.057 36.9418 120.895 37.1165 120.667 37.2276C120.453 37.3358 119.822 37.4379 119.364 37.512L119.185 37.541C119.139 37.5475 119.109 37.5605 119.073 37.5735L118.948 37.6126V38.7854H124.705V37.7793L124.724 37.6381L124.531 37.5936C123.088 37.3748 122.77 37.0775 122.77 36.9809C122.77 36.8637 122.809 36.7096 122.888 36.5204L124.485 32.3988H129.959L131.533 36.63C131.606 36.8007 131.621 36.8993 131.621 36.9548C131.621 37.052 131.59 37.1891 131.319 37.3037C131.138 37.3808 130.71 37.4544 130.335 37.5215C130.19 37.5475 130.051 37.5735 129.963 37.5896L129.759 37.6381V38.7854H136.73V37.5625L136.491 37.525C136.138 37.4724 135.546 37.3813 135.236 37.2637Z" fill="#383838"/>
<path fill-rule="evenodd" clip-rule="evenodd" d="M144.265 28.2754C142.986 27.7408 142.007 27.2097 141.354 26.6941C140.726 26.2016 140.421 25.5849 140.421 24.8126C140.421 24.4577 140.494 24.1313 140.639 23.842C140.789 23.5521 140.992 23.3019 141.241 23.0996C141.494 22.8954 141.794 22.7372 142.135 22.6291C142.481 22.5225 142.853 22.4639 143.239 22.4639C144.244 22.4639 145.047 22.6837 145.621 23.1142C146.184 23.5371 146.904 24.2204 147.322 25.1464L147.367 25.249H148.523L148.158 22.0054L148.064 21.9664C147.145 21.5955 146.309 21.3282 145.581 21.1705C144.847 21.0128 144.067 20.9307 143.265 20.9307C142.486 20.9307 141.776 21.0589 141.151 21.3092C140.523 21.5619 139.982 21.9113 139.539 22.3448C139.09 22.7798 138.747 23.2999 138.508 23.892C138.273 24.4787 138.153 25.1154 138.153 25.7856C138.153 26.5435 138.276 27.2082 138.51 27.7613C138.747 28.316 139.088 28.81 139.526 29.226C139.958 29.6404 140.483 30.0083 141.086 30.3197C141.681 30.6275 142.354 30.9289 143.08 31.2072C144.169 31.6196 145.017 32.0867 145.599 32.5952C146.164 33.0898 146.437 33.7505 146.437 34.614C146.437 34.9929 146.374 35.3533 146.247 35.6782C146.122 36.008 145.928 36.3048 145.677 36.5651C145.427 36.8274 145.104 37.0352 144.724 37.1838C144.341 37.3315 143.885 37.4081 143.366 37.4081C142.213 37.4081 141.31 37.1223 140.677 36.5576C140.036 35.986 139.281 35.074 138.871 33.8476L138.809 33.6984H137.614L138.165 37.6664L138.236 37.7104C138.84 38.0878 139.584 38.3937 140.446 38.6239C141.311 38.8547 142.284 38.9713 143.341 38.9713C144.351 38.9713 145.232 38.8357 145.956 38.5669C146.687 38.2951 147.291 37.9151 147.754 37.4341C148.219 36.9546 148.563 36.3834 148.783 35.7392C149 35.1025 149.109 34.4022 149.109 33.6689C149.109 32.4365 148.706 31.3819 147.909 30.5369C147.127 29.7065 145.901 28.9472 144.265 28.2754Z" fill="#383838"/>
<path fill-rule="evenodd" clip-rule="evenodd" d="M161.064 30.5368C160.283 29.7069 159.056 28.947 157.421 28.2753C156.143 27.7407 155.163 27.2096 154.51 26.694C153.881 26.2019 153.577 25.5853 153.577 24.8124C153.577 24.458 153.655 24.1316 153.797 23.8418C153.944 23.552 154.148 23.3017 154.398 23.0995C154.651 22.8953 154.95 22.7371 155.293 22.6295C155.639 22.5224 156.01 22.4638 156.395 22.4638C157.4 22.4638 158.202 22.6835 158.779 23.114C159.341 23.537 160.063 24.2207 160.48 25.1468L160.526 25.2489H161.68L161.316 22.0058L161.221 21.9662C160.304 21.5953 159.466 21.328 158.737 21.1703C158.002 21.0127 157.224 20.9306 156.421 20.9306C155.645 20.9306 154.932 21.0587 154.308 21.3095C153.68 21.5618 153.138 21.9112 152.695 22.3447C152.248 22.7801 151.903 23.3002 151.667 23.8919C151.43 24.479 151.313 25.1152 151.313 25.786C151.313 26.5433 151.433 27.2081 151.668 27.7612C151.903 28.3163 152.246 28.8104 152.683 29.2258C153.114 29.6403 153.641 30.0082 154.241 30.32C154.838 30.6274 155.51 30.9287 156.236 31.207C157.328 31.6195 158.174 32.0865 158.756 32.5956C159.321 33.0896 159.596 33.7504 159.596 34.6143C159.596 34.9927 159.531 35.3531 159.406 35.678C159.278 36.0079 159.088 36.3047 158.836 36.565C158.583 36.8273 158.261 37.035 157.882 37.1837C157.497 37.3313 157.04 37.4079 156.523 37.4079C155.373 37.4079 154.466 37.1221 153.835 36.5575C153.191 35.9858 152.437 35.0738 152.029 33.8475L151.966 33.6983H150.769L151.326 37.6662L151.396 37.7103C151.996 38.0877 152.741 38.394 153.603 38.6243C154.469 38.855 155.442 38.9717 156.498 38.9717C157.508 38.9717 158.388 38.836 159.114 38.5667C159.843 38.2954 160.447 37.915 160.911 37.434C161.374 36.9549 161.722 36.3833 161.939 35.7391C162.156 35.1024 162.266 34.4026 162.266 33.6688C162.266 32.4364 161.861 31.3817 161.064 30.5368Z" fill="#383838"/>
<path fill-rule="evenodd" clip-rule="evenodd" d="M21.7754 10.6053H22.391V6.8541H21.7754V6.02318H25.8067V7.5699H24.9203V6.84609H23.3189V8.29371H24.9528V9.08309H23.3189V10.6133H24.9288V9.88948H25.8152V11.4362H21.7754V10.6053Z" fill="#383838"/>
<path fill-rule="evenodd" clip-rule="evenodd" d="M26.7247 6.85405H26.2325V6.02313H28.3671V6.85405H27.8004L28.9666 9.82386L30.1324 6.85405H29.5333V6.02313H31.6683V6.85405H31.1751L29.2125 11.4937H28.6873L26.7247 6.85405Z" fill="#383838"/>
<path fill-rule="evenodd" clip-rule="evenodd" d="M37.1424 7.69311C37.1424 7.12547 36.6742 6.85417 35.9272 6.85417H35.426V8.59011C35.525 8.59811 35.6564 8.60612 35.9517 8.60612C36.6502 8.60612 37.1424 8.26074 37.1424 7.69311ZM33.8831 10.6053H34.4987V6.85417H33.8831V6.02325H35.9767C37.2163 6.02325 38.1032 6.55784 38.1032 7.66057C38.1032 8.35985 37.676 8.89394 37.0854 9.13271L37.9143 10.6053H38.5299V11.4363H37.2818L36.198 9.37948C36.0836 9.38799 35.9767 9.396 35.8697 9.396C35.6974 9.396 35.5415 9.396 35.426 9.38799V10.6053H36.0996V11.4363H33.8831V10.6053Z" fill="#383838"/>
<path fill-rule="evenodd" clip-rule="evenodd" d="M42.2649 8.95181L41.5094 6.82144L40.7539 8.95181H42.2649ZM38.7753 10.6051H39.2429L40.5895 6.84596H39.9984V6.02305H43.0529V6.84596H42.4623L43.8083 10.6051H44.2765V11.4361H42.1989V10.6132H42.823L42.5192 9.72467H40.4996L40.1953 10.6132H40.8523V11.4361H38.7753V10.6051Z" fill="#383838"/>
<path fill-rule="evenodd" clip-rule="evenodd" d="M44.6851 10.6053H45.3007V6.8541H44.6851V6.02318H46.9021V6.8541H46.2285V8.2857H48.7248V6.8541H48.0513V6.02318H50.2688V6.8541H49.6527V10.6053H50.2688V11.4362H48.0513V10.6053H48.7248V9.1001H46.2285V10.6053H46.9021V11.4362H44.6851V10.6053Z" fill="#383838"/>
<path fill-rule="evenodd" clip-rule="evenodd" d="M54.1674 8.95181L53.4119 6.82144L52.6565 8.95181H54.1674ZM50.6778 10.6051H51.1455L52.4921 6.84596H51.901V6.02305H54.9554V6.84596H54.3648L55.7109 10.6051H56.1791V11.4361H54.1015V10.6132H54.7256L54.4218 9.72467H52.4021L52.0978 10.6132H52.7549V11.4361H50.6778V10.6051Z" fill="#383838"/>
<path fill-rule="evenodd" clip-rule="evenodd" d="M57.2693 10.6053H57.9429V6.82958H56.941V7.68503H56.0621V6.02318H60.7509V7.68503H59.872V6.82958H58.8702V10.6053H59.5438V11.4362H57.2693V10.6053Z" fill="#383838"/>
<path fill-rule="evenodd" clip-rule="evenodd" d="M61.2422 10.6053H61.8578V6.8541H61.2422V6.02318H63.5002V6.8541H62.7857V10.6133H64.2717V9.84844H65.1665V11.4362H61.2422V10.6053Z" fill="#383838"/>
<path fill-rule="evenodd" clip-rule="evenodd" d="M65.7401 10.6053H66.3967V6.8541H65.7401V6.02318H67.9816V6.8541H67.3245V10.6053H67.9816V11.4362H65.7401V10.6053Z" fill="#383838"/>
<path fill-rule="evenodd" clip-rule="evenodd" d="M69.8935 3.99974L70.4601 3.7775C70.698 4.36165 71.0432 4.62494 71.4045 4.62494C71.7657 4.62494 72.1105 4.35364 72.3489 3.7775L72.9155 3.99974C72.6526 5.01137 72.0451 5.43084 71.4045 5.43084C70.7639 5.43084 70.1563 5.01137 69.8935 3.99974ZM68.6619 8.74603C68.6619 7.07617 69.9265 5.92439 71.5034 5.92439C72.7591 5.92439 73.597 6.58262 73.597 7.23234C73.597 7.62728 73.3422 7.89909 73.0059 7.89909C72.6362 7.89909 72.3813 7.66833 72.3813 7.31494C72.3813 7.20782 72.4063 7.1007 72.4393 7.03512C72.2829 6.91149 71.9711 6.78835 71.4784 6.78835C70.4272 6.78835 69.6227 7.56972 69.6227 8.73802C69.6227 9.93085 70.4851 10.6957 71.3965 10.6957C71.9631 10.6957 72.3573 10.5721 72.7021 10.3503V9.42078H71.3555V8.6309H73.613V11.436H72.7266V11.0331C72.3489 11.3289 71.8642 11.5346 71.2571 11.5346C69.9265 11.5346 68.6619 10.482 68.6619 8.74603Z" fill="#383838"/>
<path fill-rule="evenodd" clip-rule="evenodd" d="M74.5476 10.6053H75.2042V6.8541H74.5476V6.02318H76.7891V6.8541H76.132V10.6053H76.7891V11.4362H74.5476V10.6053Z" fill="#383838"/>
<path fill-rule="evenodd" clip-rule="evenodd" d="M78.9152 7.70145V10.6052H79.5888V11.4361H77.3963V10.6052H78.0118V6.854H77.3963V6.02308H78.8003L81.461 9.42086V6.854H80.7875V6.02308H82.955V6.854H82.3639V11.4446L81.8627 11.4606L78.9152 7.70145Z" fill="#383838"/>
<path fill-rule="evenodd" clip-rule="evenodd" d="M85.5723 10.6053C86.9683 10.6053 87.6908 9.84841 87.6908 8.68862C87.6908 7.5038 86.8529 6.85407 85.5068 6.85407H85.0387V10.6053H85.5723ZM83.4952 10.6053H84.1108V6.85407H83.4952V6.02315H85.5398C87.494 6.02315 88.6517 7.04328 88.6517 8.68011C88.6517 10.3339 87.5599 11.4362 85.4409 11.4362H83.4952V10.6053Z" fill="#383838"/>
<path fill-rule="evenodd" clip-rule="evenodd" d="M92.4597 8.95181L91.7042 6.82144L90.9487 8.95181H92.4597ZM88.9701 10.6051H89.4378L90.7843 6.84596H90.1932V6.02305H93.2477V6.84596H92.6571L94.0032 10.6051H94.4713V11.4361H92.3937V10.6132H93.0178L92.714 9.72467H90.6944L90.3901 10.6132H91.0472V11.4361H88.9701V10.6051Z" fill="#383838"/>
<path fill-rule="evenodd" clip-rule="evenodd" d="M96.7107 10.2761C96.7107 9.88963 96.9406 9.63435 97.2773 9.63435C97.6386 9.63435 97.8684 9.90615 97.8684 10.1694C97.8684 10.3006 97.8439 10.3997 97.7945 10.4983C97.9913 10.638 98.2956 10.7286 98.6489 10.7286C99.24 10.7286 99.6172 10.4653 99.6172 9.99625C99.6172 9.55226 99.166 9.33852 98.6239 9.14931C97.6221 8.78741 96.9161 8.46655 96.9161 7.46293C96.9161 6.59897 97.6141 5.92472 98.7058 5.92472C99.7162 5.92472 100.496 6.44279 100.496 7.09252C100.496 7.47945 100.258 7.7012 99.946 7.7012C99.5683 7.7012 99.3549 7.42189 99.3549 7.15008C99.3549 7.01894 99.3794 6.96087 99.4124 6.8953C99.2645 6.8047 99.0341 6.73062 98.6984 6.73062C98.1642 6.73062 97.8519 7.00192 97.8519 7.39736C97.8519 7.84135 98.3036 8.03857 98.8453 8.23629C99.8146 8.58168 100.546 8.91905 100.546 9.92217C100.546 10.9508 99.7491 11.535 98.6404 11.535C97.5731 11.535 96.7107 10.9343 96.7107 10.2761Z" fill="#383838"/>
<path fill-rule="evenodd" clip-rule="evenodd" d="M101.759 4.92097C101.759 4.5921 102.046 4.32881 102.367 4.32881C102.686 4.32881 102.958 4.5921 102.958 4.92097C102.958 5.25034 102.67 5.51313 102.35 5.51313C102.03 5.51313 101.759 5.25034 101.759 4.92097ZM101.242 10.6053H101.898V6.85412H101.242V6.0232H103.483V6.85412H102.826V10.6053H103.483V11.4362H101.242V10.6053Z" fill="#383838"/>
<path fill-rule="evenodd" clip-rule="evenodd" d="M105.609 7.70145V10.6052H106.282V11.4361H104.09V10.6052H104.706V6.854H104.09V6.02308H105.494L108.155 9.42086V6.854H107.481V6.02308H109.649V6.854H109.058V11.4446L108.556 11.4606L105.609 7.70145Z" fill="#383838"/>
<path fill-rule="evenodd" clip-rule="evenodd" d="M110.189 10.6053H110.804V6.8541H110.189V6.02318H114.22V7.5699H113.334V6.84609H111.732V8.29371H113.366V9.08309H111.732V10.6133H113.342V9.88948H114.229V11.4362H110.189V10.6053Z" fill="#383838"/>
<path fill-rule="evenodd" clip-rule="evenodd" d="M114.884 10.6053H115.524L115.697 6.8541H115.024V6.02318H116.502L118.161 9.03403L119.819 6.02318H121.289V6.8541H120.616L120.788 10.6053H121.429V11.4362H119.211V10.6053H119.86L119.754 7.81668L118.21 10.5312H118.086L116.543 7.81668L116.436 10.6053H117.084V11.4362H114.884V10.6053Z" fill="#383838"/>
<path fill-rule="evenodd" clip-rule="evenodd" d="M125.212 8.95181L124.456 6.82144L123.701 8.95181H125.212ZM121.722 10.6051H122.19L123.536 6.84596H122.945V6.02305H126V6.84596H125.409L126.755 10.6051H127.223V11.4361H125.146V10.6132H125.77L125.466 9.72467H123.447L123.142 10.6132H123.799V11.4361H121.722V10.6051Z" fill="#383838"/>
<path fill-rule="evenodd" clip-rule="evenodd" d="M129.438 10.6053H130.054V6.8541H129.438V6.02318H131.655V6.83758H130.981V8.67213L132.796 6.83758H132.18V6.02318H134.561V6.8541H133.979L132.467 8.34276L133.847 10.6053H134.561V11.4362H133.264L131.761 8.96796L130.981 9.73331V10.6053H131.655V11.4362H129.438V10.6053Z" fill="#383838"/>
<path fill-rule="evenodd" clip-rule="evenodd" d="M135.028 10.6053H135.643V6.8541H135.028V6.02318H139.059V7.5699H138.173V6.84609H136.571V8.29371H138.205V9.08309H136.571V10.6133H138.181V9.88948H139.068V11.4362H135.028V10.6053Z" fill="#383838"/>
<path fill-rule="evenodd" clip-rule="evenodd" d="M140.881 10.6053H141.562V9.37141L140.027 6.8541H139.485V6.02318H141.53V6.8541H141.054L142.047 8.59004L143.033 6.8541H142.523V6.02318H144.568V6.8541H144.026L142.491 9.37141V10.6053H143.172V11.4362H140.881V10.6053Z" fill="#383838"/>
<path fill-rule="evenodd" clip-rule="evenodd" d="M144.977 10.6053H145.592V6.8541H144.977V6.02318H148.959V7.5699H148.072V6.84609H146.52V8.39232H148.113V9.1902H146.52V10.6053H147.235V11.4362H144.977V10.6053Z" fill="#383838"/>
<path fill-rule="evenodd" clip-rule="evenodd" d="M150.083 4.92097C150.083 4.5921 150.37 4.32881 150.69 4.32881C151.01 4.32881 151.281 4.5921 151.281 4.92097C151.281 5.25034 150.994 5.51313 150.674 5.51313C150.353 5.51313 150.083 5.25034 150.083 4.92097ZM149.565 10.6053H150.222V6.85412H149.565V6.0232H151.807V6.85412H151.15V10.6053H151.807V11.4362H149.565V10.6053Z" fill="#383838"/>
</svg>
