<svg width="20" height="18" viewBox="0 0 20 18" fill="none" xmlns="http://www.w3.org/2000/svg">
<path fill-rule="evenodd" clip-rule="evenodd" d="M6.29967 2.41667C4.20547 2.41667 2.49967 4.123 2.49967 6.24167C2.49967 8.88113 3.7171 11.002 5.26479 12.5877C6.82254 14.1838 8.6635 15.1813 9.75223 15.553L9.76037 15.5558L9.76036 15.5558C9.78509 15.5646 9.87175 15.5833 9.99967 15.5833C10.1276 15.5833 10.2143 15.5646 10.239 15.5558L10.2471 15.553L10.2471 15.553C11.3358 15.1813 13.1768 14.1838 14.7346 12.5877C16.2823 11.002 17.4997 8.88113 17.4997 6.24167C17.4997 4.123 15.7939 2.41667 13.6997 2.41667C12.4667 2.41667 11.3602 3.01568 10.6687 3.94685C10.5115 4.15854 10.2634 4.28333 9.99967 4.28333C9.73599 4.28333 9.48787 4.15854 9.33065 3.94685C8.63862 3.015 7.5402 2.41667 6.29967 2.41667ZM0.833008 6.24167C0.833008 3.21033 3.27721 0.75 6.29967 0.75C7.73112 0.75 9.03003 1.30357 10.0001 2.20615C10.9723 1.30324 12.2754 0.75 13.6997 0.75C16.7221 0.75 19.1663 3.21033 19.1663 6.24167C19.1663 9.43554 17.6838 11.9522 15.9273 13.7518C14.1824 15.5396 12.1172 16.675 10.7891 17.1291C10.5317 17.2191 10.2453 17.25 9.99967 17.25C9.75406 17.25 9.46766 17.2191 9.21025 17.1291C7.88218 16.675 5.81693 15.5396 4.07206 13.7518C2.31558 11.9522 0.833008 9.43554 0.833008 6.24167Z" fill="#3D4245"/>
</svg>
