<svg width="128" height="128" viewBox="0 0 128 128" fill="none" xmlns="http://www.w3.org/2000/svg">
<rect x="2" y="2" width="124" height="124" rx="62" fill="white"/>
<rect x="2" y="2" width="124" height="124" rx="62" stroke="#FF442A" stroke-width="4"/>
<path d="M86.9155 62.6097C86.9155 62.2202 87.2376 61.9046 87.6352 61.9046C88.0327 61.9046 88.3548 62.2202 88.3548 62.6097V86.098C88.3548 87.5738 87.761 88.9214 86.8048 89.8993C85.8403 90.887 84.5118 91.5 83.049 91.5H67.2744C66.8768 91.5 66.5547 91.1845 66.5547 90.795V62.6097C66.5547 62.2202 66.8768 61.9046 67.2744 61.9046C67.6719 61.9046 67.994 62.2202 67.994 62.6097V90.0916H83.0507C84.1109 90.0916 85.0754 89.6478 85.7732 88.9313C86.4794 88.2082 86.9189 87.2057 86.9189 86.098V62.6097H86.9155Z" fill="#FF5348"/>
<path d="M60.0161 62.6097C60.0161 62.2202 60.3381 61.9046 60.7357 61.9046C61.1332 61.9046 61.4553 62.2202 61.4553 62.6097V90.795C61.4553 91.1845 61.1332 91.5 60.7357 91.5H44.961C43.4983 91.5 42.1681 90.887 41.2052 89.8993C40.2491 88.9198 39.6553 87.5738 39.6553 86.098V62.6097C39.6553 62.2202 39.9773 61.9046 40.3749 61.9046C40.7724 61.9046 41.0945 62.2202 41.0945 62.6097V86.098C41.0945 87.2057 41.5323 88.2082 42.2402 88.9313C42.9397 89.6462 43.9026 90.0916 44.9627 90.0916H60.0194V62.6097H60.0161Z" fill="#FF5348"/>
<path d="M39.7945 50.7374C39.2862 50.7374 38.8216 50.9412 38.4861 51.2715C38.1489 51.6018 37.9409 52.0554 37.9409 52.5534V61.8504H90.0641V52.5534C90.0641 52.0554 89.8561 51.6002 89.5189 51.2715C89.1818 50.9412 88.7188 50.7374 88.2105 50.7374H39.7945ZM64.78 49.3289H66.5698C70.5387 48.9082 73.0515 47.6641 74.4807 46.1423C75.0862 45.4964 75.4955 44.8045 75.7354 44.1093C75.9736 43.4174 76.0491 42.7206 75.9887 42.0632C75.8864 40.9473 75.3965 39.9481 74.6601 39.2841C73.9305 38.6251 73.0146 38.1731 72.04 37.9924C70.9983 37.8001 69.8878 37.9217 68.8629 38.4377C67.8179 38.9653 66.8517 39.9103 66.1203 41.3631C65.2027 43.1857 64.6592 45.784 64.7817 49.3289H64.78ZM61.4352 49.3289H63.225C63.3475 45.7856 62.804 43.1857 61.8864 41.3631C61.1551 39.9103 60.1888 38.9653 59.1438 38.4377C58.1189 37.9201 57.0084 37.8001 55.9667 37.9924C54.9921 38.1715 54.0762 38.6251 53.3466 39.2841C52.6102 39.9481 52.1203 40.9489 52.018 42.0632C51.9576 42.7206 52.0331 43.4174 52.2713 44.1093C52.5112 44.8045 52.9188 45.4964 53.526 46.1423C54.9552 47.6641 57.468 48.9098 61.4369 49.3289H61.4352ZM55.7151 49.3289C54.3295 48.7077 53.2627 47.9386 52.4693 47.0938C51.7211 46.2984 51.2145 45.4323 50.9109 44.5547C50.6073 43.6738 50.5117 42.7814 50.5905 41.9367C50.7264 40.4707 51.384 39.1428 52.3753 38.2487C53.3013 37.4139 54.4637 36.8403 55.7034 36.6102C57.0453 36.3637 58.4762 36.5198 59.8014 37.1887C61.1047 37.8461 62.2957 38.9965 63.173 40.7402C63.4934 41.3779 63.7735 42.0977 64.0017 42.903C64.2298 42.0977 64.5099 41.3779 64.8303 40.7402C65.7093 38.9965 66.8986 37.8461 68.202 37.1887C69.5272 36.5198 70.9597 36.3637 72.3 36.6102C73.5396 36.8387 74.7021 37.4139 75.628 38.2487C76.6194 39.1428 77.277 40.4691 77.4128 41.9367C77.49 42.7814 77.3961 43.6738 77.0924 44.5547C76.7888 45.4323 76.2822 46.2984 75.5341 47.0938C74.7407 47.9386 73.6721 48.7077 72.2882 49.3289H88.2089C89.1147 49.3289 89.9383 49.6921 90.5338 50.2756C91.1293 50.859 91.5 51.6659 91.5 52.5534V62.5538C91.5 62.9433 91.1779 63.2589 90.7804 63.2589H37.2196C36.8221 63.2589 36.5 62.9433 36.5 62.5538V52.5534C36.5 51.6659 36.8707 50.859 37.4662 50.2756C38.0617 49.6921 38.8853 49.3289 39.7911 49.3289H55.7151Z" fill="#FF5348"/>
</svg>
