<svg width="24" height="24" viewBox="0 0 24 24" fill="none" xmlns="http://www.w3.org/2000/svg">
<path fill-rule="evenodd" clip-rule="evenodd" d="M14.5935 1.9008C13.6881 1.26702 12.5563 0.993769 11.4778 1.01906C10.3993 1.04435 9.2807 1.3704 8.40606 2.05068L3.01606 6.25068C2.4145 6.71862 1.92127 7.40222 1.57974 8.0983C1.23837 8.79405 1 9.60107 1 10.36V17.77C1 20.6392 3.33463 22.99 6.21 22.99H17.79C20.6638 22.99 23 20.6408 23 17.78V10.5C23 9.69209 22.7365 8.8428 22.3577 8.11729C21.9793 7.39221 21.4339 6.6914 20.7728 6.23035L20.7718 6.22964L14.5935 1.9008ZM9.6343 3.62911C10.1096 3.25955 10.7909 3.03572 11.5247 3.01851C12.2585 3.0013 12.9516 3.19295 13.4462 3.53902L19.6262 7.86902L19.6282 7.87043C19.9567 8.09938 20.3109 8.51823 20.5848 9.04278C20.8585 9.56726 21 10.098 21 10.5V17.78C21 19.5393 19.5562 20.99 17.79 20.99H6.21C4.44537 20.99 3 19.5408 3 17.77V10.36C3 9.989 3.12663 9.48602 3.37526 8.97926C3.6237 8.47291 3.94557 8.06145 4.24394 7.82939L9.6343 3.62911Z" fill="white"/>
</svg>
