<svg width="38" height="38" viewBox="0 0 38 38" fill="none" xmlns="http://www.w3.org/2000/svg">
<path fill-rule="evenodd" clip-rule="evenodd" d="M35.646 10.8573L36.801 12.0099C37.1397 12.3507 37.3307 12.8107 37.3327 13.2906V15.4496C37.3307 15.9296 37.1397 16.3895 36.801 16.7303L16.7627 36.8011C16.4212 37.1391 15.9603 37.3297 15.4793 37.3317H13.316C12.8351 37.3297 12.3742 37.1391 12.0327 36.8011L10.8777 35.6485C10.3019 35.134 10.1112 34.3143 10.401 33.5993C10.6382 33.0187 10.7566 32.3966 10.7493 31.7697C10.7493 29.2435 8.69732 27.1957 6.16602 27.1957C5.53779 27.1884 4.91446 27.3066 4.33268 27.5433C3.63701 27.7988 2.85562 27.6111 2.35268 27.0676L1.19768 25.9149C0.858985 25.5742 0.668041 25.1142 0.666016 24.6342V22.4753C0.668041 21.9953 0.858985 21.5353 1.19768 21.1946L21.236 1.19693C21.5775 0.858922 22.0384 0.668366 22.5193 0.666345H24.6827C25.1535 0.648594 25.613 0.812388 25.966 1.12375L27.121 2.2764C27.6968 2.7909 27.8875 3.61052 27.5977 4.32556C27.3605 4.90616 27.2421 5.52822 27.2493 6.15517C27.2493 8.68133 29.3014 10.7292 31.8327 10.7292C32.4609 10.7365 33.0842 10.6183 33.666 10.3816C34.3617 10.1261 35.1431 10.3138 35.646 10.8573ZM15.3327 18.9624C15.3327 20.9834 16.9743 22.6217 18.9993 22.6217C21.0244 22.6217 22.666 20.9834 22.666 18.9624C22.666 16.9415 21.0244 15.3032 18.9993 15.3032C16.9743 15.3032 15.3327 16.9415 15.3327 18.9624Z" fill="#96A825"/>
</svg>
