<svg width="174" height="50" viewBox="0 0 174 50" fill="none" xmlns="http://www.w3.org/2000/svg">
<path fill-rule="evenodd" clip-rule="evenodd" d="M149.378 18.7607L158.549 8H171.478C171.478 8 159.175 22.3772 158.205 23.5087C159.213 24.6309 174 41.0727 174 41.0727H160.054C160.054 41.0727 150.712 30.4541 149.465 29.0367C148.205 30.4473 138.724 41.0727 138.724 41.0727H124.784C124.784 41.0727 139.568 24.6305 140.576 23.5087L127.304 8H140.377C140.377 8 148.139 17.2797 149.378 18.7607ZM99.9417 15.5219C100.385 16.382 105.3 25.9238 106.402 28.0656H92.3887C92.9542 26.9663 94.5247 23.9172 95.9793 21.0934L95.9915 21.0696L96.0168 21.0205L96.0194 21.0155C97.3831 18.3679 98.6355 15.9365 98.8485 15.5219H99.9417ZM74.5273 41.0746H85.8243C85.8243 41.0746 88.2953 36.31 88.7342 35.4665H110.059C110.495 36.31 112.965 41.0746 112.965 41.0746H124.247L107.205 8.04346L106.622 8.04388H91.5841L74.5273 41.0746ZM10.6905 41.0748H0V8.04407H10.6905V41.0748ZM45.4008 27.8275C46.8384 25.0359 55.5787 8.04407 55.5787 8.04407H72.6337V41.0748H63.1317V17.1579H61.191C60.6931 18.1622 49.3133 41.0748 49.3133 41.0748H41.452C41.452 41.0748 30.0744 18.1622 29.5761 17.1579H27.6353V41.0748H18.1338V8.04407H35.1866C35.1866 8.04407 43.9609 25.0368 45.4008 27.8275ZM172.711 8.38968C172.255 8.38968 171.883 8.75484 171.883 9.20356C171.883 9.6527 172.255 10.0179 172.711 10.0179C173.167 10.0179 173.538 9.6527 173.538 9.20356C173.538 8.75484 173.167 8.38968 172.711 8.38968ZM172.711 10.1748C172.167 10.1748 171.724 9.73925 171.724 9.20359C171.724 8.66836 172.167 8.23279 172.711 8.23279C173.255 8.23279 173.698 8.66836 173.698 9.20359C173.698 9.73925 173.255 10.1748 172.711 10.1748ZM172.964 9.02099C172.964 9.17889 172.926 9.20909 172.775 9.20909H172.503V8.84196H172.789C172.937 8.84196 172.964 8.86914 172.964 9.02099ZM172.503 9.74065V9.3856H172.819C172.918 9.38689 172.956 9.44988 172.956 9.54004V9.74065H173.162V9.54004C173.162 9.38819 173.126 9.30924 172.98 9.2963V9.29069C173.162 9.26351 173.17 9.14746 173.17 8.98828C173.17 8.74453 173.08 8.67162 172.845 8.66602H172.296V9.74065H172.503Z" fill="#383838"/>
</svg>
