<svg width="25" height="24" viewBox="0 0 25 24" fill="none" xmlns="http://www.w3.org/2000/svg">
<path fill-rule="evenodd" clip-rule="evenodd" d="M7.20586 0H16.8059C20.7823 0 24.0059 3.22355 24.0059 7.2V16.8C24.0059 20.7765 20.7823 24 16.8059 24H7.20586C3.22941 24 0.00585938 20.7765 0.00585938 16.8V7.2C0.00585938 3.22355 3.22941 0 7.20586 0ZM19.2059 3.6C19.8059 3.6 20.4059 4.2 20.4059 4.8C20.4059 5.4 19.8059 6 19.2059 6C18.6059 6 18.0059 5.4 18.0059 4.8C18.0059 4.2 18.6059 3.6 19.2059 3.6ZM18.0059 12C18.0059 8.691 15.3149 6 12.0059 6C8.69686 6 6.00586 8.691 6.00586 12C6.00586 15.309 8.69686 18 12.0059 18C15.3149 18 18.0059 15.309 18.0059 12ZM12.0059 8.4C10.0176 8.4 8.40586 10.0118 8.40586 12C8.40586 13.9882 10.0176 15.6 12.0059 15.6C13.9941 15.6 15.6059 13.9882 15.6059 12C15.6059 10.0118 13.9941 8.4 12.0059 8.4Z" fill="white"/>
</svg>
