<svg width="242" height="49" viewBox="0 0 242 49" fill="none" xmlns="http://www.w3.org/2000/svg">
<path fill-rule="evenodd" clip-rule="evenodd" d="M100.538 0H100.526C100.526 0 100.525 0.000327916 100.525 0.000732422V0.000732422C100.525 0.00113693 100.525 0.00146484 100.525 0.00146484H100.497H27.9566H26.7615H25.5664H24.3713H23.1762H23.1724H23.0645C22.2938 0.00146484 21.5268 0.0386953 20.7636 0.11688C19.9966 0.195064 19.2371 0.314203 18.4814 0.470572C16.9772 0.783311 15.5029 1.25242 14.0956 1.86673C11.2735 3.09162 8.71945 4.89731 6.60846 7.11626C4.49375 9.33522 2.81837 11.9637 1.694 14.8119C1.13182 16.2341 0.707385 17.7121 0.424431 19.2125C0.141477 20.7167 0 22.2431 0 23.7696C0 25.296 0.141477 26.8225 0.424431 28.3266C0.707385 29.827 1.13182 31.3051 1.694 32.7273C2.81837 35.5755 4.49375 38.204 6.60846 40.4229C8.71945 42.6419 11.2735 44.4476 14.0956 45.6725C15.5029 46.2868 16.9772 46.7559 18.4814 47.0686C19.2371 47.225 19.9966 47.3441 20.7636 47.4223C20.8563 47.4296 20.949 47.4386 21.0421 47.4477C21.1397 47.4572 21.2378 47.4668 21.337 47.4744C21.3988 47.4781 21.4611 47.4821 21.5235 47.4861C21.6526 47.4945 21.7823 47.5029 21.9103 47.5079L22.4874 47.5303L23.1054 47.5377C23.1426 47.5352 23.1799 47.534 23.2171 47.534H36.7579H50.295H77.3767H131.536H185.692H239.815V47.534C239.835 47.534 239.852 47.5173 239.852 47.4968V46.7447V45.9591V45.1698V44.4178C239.852 44.3972 239.835 44.3805 239.815 44.3805V44.3805H185.674H131.492H77.3134H50.2243H36.676H23.1315L23.0198 44.388L22.5656 44.3805C22.4018 44.3756 22.2367 44.3694 22.0704 44.3619C21.9066 44.352 21.7415 44.3408 21.5752 44.3284C21.4933 44.3228 21.4114 44.3154 21.3295 44.3079C21.2476 44.3005 21.1657 44.293 21.0838 44.2875C20.4248 44.2204 19.7695 44.1162 19.1254 43.9822C17.8298 43.7141 16.564 43.312 15.354 42.7833C12.9265 41.7297 10.7187 40.1697 8.88698 38.2486C7.05523 36.3275 5.60323 34.0416 4.62778 31.5694C4.13634 30.3334 3.76775 29.0489 3.52203 27.7421C3.27631 26.4353 3.15345 25.1024 3.14972 23.7696C3.15345 22.4367 3.27631 21.1039 3.52203 19.7971C3.76775 18.4903 4.13634 17.2058 4.62778 15.9697C5.60323 13.4976 7.05523 11.2116 8.88698 9.29054C10.7187 7.36943 12.9265 5.80946 15.354 4.75583C16.564 4.22716 17.8298 3.82506 19.1254 3.557C19.7695 3.42297 20.4248 3.31873 21.0838 3.25171C21.739 3.1847 22.4018 3.15119 23.0645 3.15119H23.1724H23.1762H24.3713H25.5664H26.7615H27.9566H100.497H100.525C100.525 3.15119 100.525 3.15136 100.525 3.15157V3.15157C100.525 3.15178 100.526 3.15196 100.526 3.15196H100.538C101.408 3.15196 102.114 2.44643 102.114 1.57598C102.114 0.705523 101.408 0 100.538 0Z" fill="url(#paint0_linear_6451_80483)"/>
<path fill-rule="evenodd" clip-rule="evenodd" d="M34.346 20.9215C34.346 23.725 32.5478 26.0482 29.0704 26.0482H24.9974V31.8376H21.4679V26.0519H19.3867V23.2634H21.4679V18.4494H19.3867V15.6943H29.0704C32.5701 15.6943 34.346 18.0957 34.346 20.9215ZM30.9431 20.888C30.9431 19.4435 29.897 18.4494 28.5455 18.4494H24.9974V23.2634H28.6088C29.964 23.2634 30.9431 22.2172 30.9431 20.888Z" fill="#96A825"/>
<path fill-rule="evenodd" clip-rule="evenodd" d="M42.9854 15.6608L48.9647 31.8375H45.3123L44.1135 28.2113H38.0412L36.7865 31.8375H33.2012L39.3033 15.6608H42.9854ZM43.1939 25.5902L41.0941 19.5588L38.9608 25.5902H43.1939Z" fill="#96A825"/>
<path fill-rule="evenodd" clip-rule="evenodd" d="M60.5568 25.4042L63.5129 31.8377H59.842L57.2768 26.0483H53.8665V31.8377H50.4375V15.7279H57.973C61.3312 15.7279 63.1853 17.9282 63.1853 20.9216C63.1853 23.7735 61.6291 24.8457 60.5568 25.4042ZM59.7824 20.9216C59.7824 19.559 59.049 18.4495 57.2321 18.4495H53.8665V23.2634H57.1688C58.9149 23.2634 59.7824 22.2731 59.7824 20.9216Z" fill="#96A825"/>
<path d="M65.9023 31.8375H69.4318V20.6199H65.9023V31.8375Z" fill="#96A825"/>
<path d="M65.9023 19.0637H69.4318V15.6943H65.9023V19.0637Z" fill="#96A825"/>
<path fill-rule="evenodd" clip-rule="evenodd" d="M86.1179 27.2581C86.1179 29.6744 84.1707 31.8375 80.5668 31.8375H72.5547V15.6608H80.4997C83.925 15.6608 85.3397 17.351 85.3397 19.503C85.3397 21.5321 84.5616 22.3511 83.091 23.066C85.0158 23.5649 86.1179 24.9238 86.1179 27.2581ZM76.1177 22.2097H79.9525C81.1103 22.2097 81.9033 21.4204 81.9033 20.404C81.9033 19.1567 81.2257 18.4084 79.6211 18.4084H76.1177V22.2097ZM82.5809 26.9082C82.5809 25.6572 81.8363 24.6259 80.1051 24.6259H76.1177V29.1011H80.0716C81.7805 29.1011 82.5809 28.1629 82.5809 26.9082Z" fill="#96A825"/>
<path d="M98.1891 15.6608V25.095C98.1891 27.3401 98.0625 29.25 94.8123 29.25C91.8785 29.25 91.5099 27.5411 91.5099 25.2924V15.6608H87.9395V25.7466C87.9395 30.3297 90.5568 32.195 94.8123 32.195C99.2055 32.195 101.748 30.0877 101.748 25.7242V15.6608H98.1891Z" fill="#96A825"/>
<path fill-rule="evenodd" clip-rule="evenodd" d="M218.838 31.8822V15.7613H229.4V17.5521H220.845V22.7458H229.229V24.5366H220.845V30.0951H229.4V31.8822H218.838ZM203.707 29.6111L204.917 28.0623C205.956 29.2723 207.695 30.3855 209.97 30.3855C212.844 30.3855 213.763 28.8367 213.763 27.5821C213.763 23.4234 204.217 25.7429 204.217 19.9907C204.217 17.3324 206.585 15.4969 209.776 15.4969C212.215 15.4969 214.125 16.3421 215.476 17.768L214.27 19.2424C213.06 17.8909 211.369 17.3101 209.605 17.3101C207.695 17.3101 206.295 18.3488 206.295 19.8716C206.295 23.4978 215.841 21.4166 215.841 27.4369C215.841 29.7563 214.247 32.1726 209.895 32.1726C207.118 32.1726 205.036 31.1078 203.707 29.6111ZM199.288 31.8822L195.204 25.4785H191.965V31.8822H189.958V15.7613H196.436C199.385 15.7613 201.511 17.6489 201.511 20.6199C201.511 23.5202 199.504 25.1137 197.304 25.3073L201.656 31.8822H199.288ZM199.433 20.6199C199.433 18.7844 198.104 17.5521 196.194 17.5521H191.965V23.7138H196.194C198.104 23.7138 199.433 22.433 199.433 20.6199ZM176.209 31.8822V15.7613H186.767V17.5521H178.215V22.7458H186.6V24.5366H178.215V30.0951H186.767V31.8822H176.209ZM165.144 31.8822L158.643 15.7613H160.937L166.376 29.6819L171.812 15.7613H174.109L167.631 31.8822H165.144ZM146.562 31.8822V15.7613H157.12V17.5521H148.565V22.7458H156.953V24.5366H148.565V30.0951H157.12V31.8822H146.562ZM140.862 31.8822L131.461 19.0264V31.8822H129.454V15.7613H131.509L140.787 28.3527V15.7613H142.794V31.8822H140.862ZM125.687 31.8822H123.68V15.7613H125.687V31.8822ZM106.691 23.8366C106.691 18.8812 110.34 15.4969 114.979 15.4969C117.831 15.4969 119.812 16.8521 121.092 18.6876L119.424 19.6296C118.508 18.252 116.814 17.2877 114.979 17.2877C111.45 17.2877 108.769 19.9684 108.769 23.8366C108.769 27.6528 111.45 30.3855 114.979 30.3855C116.814 30.3855 118.508 29.3952 119.424 28.04L121.118 28.9596C119.763 30.8211 117.831 32.1726 114.979 32.1726C110.34 32.1726 106.691 28.7921 106.691 23.8366Z" fill="#E6E6E6"/>
<defs>
<linearGradient id="paint0_linear_6451_80483" x1="239.852" y1="47.534" x2="24.3707" y2="0.788353" gradientUnits="userSpaceOnUse">
<stop stop-color="#1E1E1E" stop-opacity="0"/>
<stop offset="1" stop-color="#96A825"/>
</linearGradient>
</defs>
</svg>
