<svg width="21" height="20" viewBox="0 0 21 20" fill="none" xmlns="http://www.w3.org/2000/svg">
<path d="M11.7309 1.51001L13.4909 5.03001C13.7309 5.52001 14.3709 5.99001 14.9109 6.08001L18.1009 6.61001C20.1409 6.95001 20.6209 8.43001 19.1509 9.89001L16.6709 12.37C16.2509 12.79 16.0209 13.6 16.1509 14.18L16.8609 17.25C17.4209 19.68 16.1309 20.62 13.9809 19.35L10.9909 17.58C10.4509 17.26 9.56089 17.26 9.01089 17.58L6.02089 19.35C3.88089 20.62 2.58089 19.67 3.14089 17.25L3.85089 14.18C3.98089 13.6 3.75089 12.79 3.33089 12.37L0.850886 9.89001C-0.609114 8.43001 -0.139114 6.95001 1.90089 6.61001L5.09089 6.08001C5.62089 5.99001 6.26089 5.52001 6.50089 5.03001L8.26089 1.51001C9.22089 -0.399985 10.7809 -0.399985 11.7309 1.51001Z" fill="white"/>
</svg>
