<svg width="29" height="27" viewBox="0 0 29 27" fill="none" xmlns="http://www.w3.org/2000/svg">
<path fill-rule="evenodd" clip-rule="evenodd" d="M14.4647 0.404297C17.3128 0.404297 19.6308 2.72494 19.6308 5.57637C19.6308 8.4278 17.3128 10.7484 14.4647 10.7484C11.6165 10.7484 9.29853 8.4278 9.29853 5.57637C9.29853 2.72494 11.6165 0.404297 14.4647 0.404297ZM13.7554 4.86631H11.4556V6.28642H13.7554V8.58886H15.1739V6.28642H17.4737V4.86631H15.1739V2.56388H13.7554V4.86631ZM18.6118 15.8719C18.6118 13.6087 20.45 11.7684 22.7092 11.7684C24.9699 11.7684 26.808 13.6101 26.808 15.8719C26.808 18.1337 24.9685 19.974 22.7092 19.974C20.45 19.974 18.6118 18.1351 18.6118 15.8719ZM2.18855 15.872C2.18855 13.6088 4.02671 11.7685 6.28733 11.7685C8.50198 11.7685 10.312 13.5382 10.3826 15.7386C10.4533 13.537 12.2646 11.7688 14.4792 11.7688C16.7384 11.7688 18.578 13.6105 18.578 15.8723C18.578 18.1341 16.7384 19.9744 14.4792 19.9744C12.2646 19.9744 10.4532 18.2073 10.3826 16.0057C10.3119 18.2059 8.50325 19.9741 6.28733 19.9741C4.02671 19.9741 2.18855 18.1352 2.18855 15.872ZM18.3702 19.974C17.3364 20.9866 15.9249 21.6154 14.3679 21.6154C12.8109 21.6154 11.3994 20.9866 10.3656 19.974C9.29827 21.0188 8.62959 22.4697 8.62959 24.0775V25.7735C8.62959 26.2273 8.9975 26.5942 9.44935 26.5942H19.2864C19.7383 26.5942 20.1062 26.2273 20.1062 25.7735V24.0775C20.1062 22.4697 19.4375 21.0188 18.3702 19.974ZM7.18292 24.0788C7.18292 23.1489 7.36758 22.2652 7.68653 21.4473C7.25986 21.5495 6.82061 21.6168 6.36317 21.6168C4.80479 21.6168 3.34014 20.9879 2.30495 19.9754C1.23759 21.0201 0.570312 22.4711 0.570312 24.0788V25.7749C0.570312 26.2286 0.936825 26.5956 1.39007 26.5956H7.33261C7.24168 26.3379 7.18292 26.0634 7.18292 25.7749V24.0788ZM26.831 19.9735C25.7958 20.9861 24.3311 21.6149 22.7728 21.6149C22.3153 21.6149 21.8761 21.5477 21.4494 21.4455C21.7684 22.2634 21.953 23.1471 21.953 24.077V25.773C21.953 26.0615 21.8943 26.336 21.8019 26.5937H27.7459C28.1991 26.5937 28.5656 26.2268 28.5656 25.773V24.077C28.5656 22.4692 27.8983 21.0183 26.831 19.9735Z" fill="#2E2D2D"/>
</svg>
