<svg width="28" height="28" viewBox="0 0 28 28" fill="none" xmlns="http://www.w3.org/2000/svg">
    <path
        d="M8.66602 12.667C7.92964 12.667 7.33268 13.2639 7.33268 14.0003C7.33268 14.7367 7.92964 15.3337 8.66602 15.3337H19.3327C20.0691 15.3337 20.666 14.7367 20.666 14.0003C20.666 13.2639 20.0691 12.667 19.3327 12.667H8.66602Z"
        fill="#7A7A7A" />
    <path fill-rule="evenodd" clip-rule="evenodd"
        d="M13.9993 0.666992C6.63555 0.666992 0.666016 6.63653 0.666016 14.0003C0.666016 21.3641 6.63555 27.3337 13.9993 27.3337C21.3631 27.3337 27.3327 21.3641 27.3327 14.0003C27.3327 6.63653 21.3631 0.666992 13.9993 0.666992ZM3.33268 14.0003C3.33268 8.10929 8.10831 3.33366 13.9993 3.33366C19.8904 3.33366 24.666 8.10929 24.666 14.0003C24.666 19.8914 19.8904 24.667 13.9993 24.667C8.10831 24.667 3.33268 19.8914 3.33268 14.0003Z"
        fill="#7A7A7A" />
</svg>