<svg width="95" height="57" viewBox="0 0 95 57" fill="none" xmlns="http://www.w3.org/2000/svg">
<path fill-rule="evenodd" clip-rule="evenodd" d="M6.63836 51.0418C6.52404 50.2264 5.7453 49.6056 4.8513 49.6056C3.23759 49.6056 2.62941 50.9838 2.62941 52.421C2.62941 53.7871 3.23759 55.1662 4.8513 55.1662C5.95146 55.1662 6.56996 54.4088 6.70677 53.328H8.44792C8.26519 55.3729 6.85577 56.6828 4.8513 56.6828C2.32016 56.6828 0.832031 54.7866 0.832031 52.421C0.832031 49.9852 2.32016 48.088 4.8513 48.088C6.64961 48.088 8.16211 49.1455 8.37858 51.0418H6.63836Z" fill="#E6372A"/>
<mask id="mask0_1066_29157" style="mask-type:luminance" maskUnits="userSpaceOnUse" x="0" y="0" width="95" height="57">
<path fill-rule="evenodd" clip-rule="evenodd" d="M0.832031 56.6829H94.1654V0.682861H0.832031V56.6829Z" fill="white"/>
</mask>
<g mask="url(#mask0_1066_29157)">
<path fill-rule="evenodd" clip-rule="evenodd" d="M9.67188 56.4874H11.4702V48.2844H9.67188V56.4874Z" fill="#E6372A"/>
<path fill-rule="evenodd" clip-rule="evenodd" d="M13.0508 48.2844H14.8379L18.2499 53.788H18.2733V48.2844H19.9573V56.4874H18.159L14.7573 50.996H14.7348V56.4874H13.0508V48.2844Z" fill="#E6372A"/>
<path fill-rule="evenodd" clip-rule="evenodd" d="M21.5352 48.2844H27.6507V49.801H23.3335V51.5589H27.2956V52.9605H23.3335V54.9708H27.7426V56.4874H21.5352V48.2844Z" fill="#E6372A"/>
<path fill-rule="evenodd" clip-rule="evenodd" d="M28.957 48.2844H31.4882L33.4008 53.9254H33.4233L35.2329 48.2844H37.7649V56.4874H36.0809V50.6743H36.0575L34.053 56.4874H32.6671L30.6635 50.7323H30.641V56.4874H28.957V48.2844Z" fill="#E6372A"/>
<path fill-rule="evenodd" clip-rule="evenodd" d="M41.4046 53.3162H43.5234L42.4926 50.3054H42.4701L41.4046 53.3162ZM41.5764 48.2832H43.4206L46.4784 56.4862H44.6117L43.9932 54.6591H40.9354L40.2944 56.4862H38.4727L41.5764 48.2832Z" fill="#E6372A"/>
<path fill-rule="evenodd" clip-rule="evenodd" d="M56.3833 50.766C56.3149 50.4518 56.2015 50.1703 56.0459 49.9216C55.8885 49.6729 55.6983 49.4635 55.4724 49.2952C55.2475 49.1268 54.9992 48.9987 54.7274 48.9109C54.4566 48.822 54.1726 48.7781 53.8746 48.7781C53.333 48.7781 52.8673 48.8819 52.4784 49.0885C52.0876 49.2952 51.769 49.5691 51.5216 49.9104C51.2732 50.2508 51.0905 50.636 50.9715 51.0642C50.8534 51.4934 50.7944 51.9338 50.7944 52.3864C50.7944 52.8296 50.8534 53.269 50.9715 53.701C51.0905 54.1339 51.2732 54.521 51.5216 54.8623C51.769 55.2027 52.0876 55.4766 52.4784 55.6833C52.8673 55.8899 53.333 55.9928 53.8746 55.9928C54.257 55.9928 54.6009 55.9255 54.9055 55.7871C55.211 55.6496 55.4743 55.4608 55.6964 55.2242C55.9175 54.9858 56.0965 54.7081 56.2343 54.3911C56.372 54.0732 56.4592 53.73 56.4976 53.3625H57.2764C57.2239 53.8675 57.1049 54.3238 56.9212 54.7296C56.7385 55.1354 56.5014 55.4804 56.2118 55.7637C55.9213 56.047 55.5792 56.2658 55.1866 56.4182C54.793 56.5716 54.3563 56.6482 53.8746 56.6482C53.2337 56.6482 52.6705 56.5314 52.186 56.2985C51.7005 56.0638 51.2985 55.7525 50.978 55.3616C50.6566 54.9708 50.4167 54.5192 50.2565 54.0058C50.0953 53.4925 50.0156 52.953 50.0156 52.3864C50.0156 51.8188 50.0953 51.2793 50.2565 50.766C50.4167 50.2526 50.6566 49.7991 50.978 49.4045C51.2985 49.01 51.7005 48.6958 52.186 48.462C52.6705 48.2292 53.2337 48.1123 53.8746 48.1123C54.2645 48.1123 54.644 48.1694 55.0151 48.2844C55.3843 48.3985 55.7208 48.5696 56.0225 48.7958C56.3243 49.0212 56.5763 49.2989 56.7778 49.629C56.9812 49.9581 57.1086 50.3368 57.162 50.766H56.3833Z" fill="#E6372A"/>
<path fill-rule="evenodd" clip-rule="evenodd" d="M58.4688 48.2844H59.2475V55.8217H63.829V56.4874H58.4688V48.2844Z" fill="#E6372A"/>
<path fill-rule="evenodd" clip-rule="evenodd" d="M64.5391 48.2844H65.3178V53.3626C65.3178 53.8375 65.3712 54.2415 65.478 54.5744C65.5849 54.9082 65.7414 55.1803 65.9475 55.3906C66.1537 55.601 66.4058 55.7544 66.7028 55.8507C67.0018 55.946 67.3373 55.9937 67.7112 55.9937C68.0935 55.9937 68.4328 55.946 68.7308 55.8507C69.0288 55.7544 69.2808 55.601 69.487 55.3906C69.6932 55.1803 69.8487 54.9082 69.9565 54.5744C70.0633 54.2415 70.1167 53.8375 70.1167 53.3626V48.2844H70.8955V53.5355C70.8955 53.9563 70.8364 54.3565 70.7174 54.7352C70.5993 55.1148 70.4119 55.4458 70.1561 55.7291C69.9012 56.0124 69.5732 56.2368 69.1712 56.4014C68.771 56.566 68.2838 56.6483 67.7112 56.6483C67.1461 56.6483 66.6635 56.566 66.2624 56.4014C65.8613 56.2368 65.5333 56.0124 65.2775 55.7291C65.0226 55.4458 64.8352 55.1148 64.7162 54.7352C64.5981 54.3565 64.5391 53.9563 64.5391 53.5355V48.2844Z" fill="#E6372A"/>
<path fill-rule="evenodd" clip-rule="evenodd" d="M73.2261 55.7803H75.9062C76.1958 55.7803 76.4713 55.755 76.73 55.7055C76.9895 55.655 77.2191 55.5662 77.4178 55.4352C77.6165 55.3053 77.773 55.1304 77.8873 54.9135C78.0016 54.6947 78.0588 54.4207 78.0588 54.0916C78.0588 53.5624 77.8742 53.1669 77.504 52.9022C77.1329 52.6376 76.6006 52.5058 75.9062 52.5058H73.2261V55.7803ZM73.2395 51.8805H75.9197C76.2326 51.8805 76.5035 51.8431 76.7331 51.7711C76.9617 51.6972 77.1529 51.5991 77.3047 51.4719C77.4584 51.3457 77.5727 51.1979 77.6486 51.0296C77.7255 50.8613 77.7629 50.6809 77.7629 50.4892C77.7629 49.4634 77.1491 48.9501 75.9197 48.9501H73.2395V51.8805ZM72.4609 48.2839H75.9198C76.2628 48.2839 76.5936 48.3166 76.9103 48.3821C77.2271 48.4466 77.5063 48.5579 77.7462 48.715C77.9871 48.8721 78.1801 49.0787 78.3244 49.3358C78.4697 49.592 78.5419 49.9118 78.5419 50.2942C78.5419 50.5093 78.5081 50.7178 78.4388 50.9207C78.3704 51.1236 78.2738 51.3078 78.1473 51.4724C78.0218 51.6369 77.8718 51.7772 77.7003 51.8922C77.5288 52.0063 77.3358 52.0867 77.1221 52.1334V52.1568C77.6488 52.2241 78.0686 52.442 78.3816 52.8057C78.6955 53.1695 78.8511 53.6192 78.8511 54.155C78.8511 54.2859 78.8399 54.4327 78.8174 54.5973C78.7939 54.7628 78.748 54.9311 78.6796 55.1031C78.6112 55.2752 78.5119 55.4453 78.3816 55.6146C78.2523 55.7829 78.0789 55.9297 77.8615 56.0568C77.6432 56.1831 77.3761 56.2869 77.0593 56.3673C76.7426 56.4477 76.3631 56.4879 75.9198 56.4879H72.4609V48.2839Z" fill="#E6372A"/>
<path fill-rule="evenodd" clip-rule="evenodd" d="M87.5023 5.05318L86.2494 1.5038C86.0217 0.863303 85.3198 0.525756 84.6741 0.754839C84.0341 0.978312 83.6958 1.68239 83.9216 2.32195L85.243 6.06302L86.8295 6.95971" fill="#E6372A"/>
<path fill-rule="evenodd" clip-rule="evenodd" d="M89.7623 6.0633L91.0837 2.32317C91.3095 1.68267 90.9712 0.979528 90.3293 0.75512C89.6883 0.526037 88.9827 0.863584 88.7578 1.50502L87.5039 5.05346L88.1758 6.95999" fill="#EC6F29"/>
<path fill-rule="evenodd" clip-rule="evenodd" d="M94.0061 5.0745C93.6696 4.48449 92.9171 4.27785 92.3249 4.61259L89.7628 6.06283L89.0703 8.02827L90.4085 8.52944L93.5422 6.75288C94.1344 6.41908 94.3425 5.66637 94.0061 5.0745Z" fill="#E6372A"/>
<path fill-rule="evenodd" clip-rule="evenodd" d="M88.7344 10.5318L91.4211 11.5351C91.5644 11.5893 91.7106 11.6146 91.8531 11.6146C92.3544 11.6146 92.8221 11.3098 93.0095 10.8151C93.2484 10.1774 92.9242 9.46868 92.286 9.23025L90.4043 8.52898L88.7344 9.47336" fill="#EC6F29"/>
<path fill-rule="evenodd" clip-rule="evenodd" d="M86.2656 10.5323V12.4762C86.2656 13.1551 86.8195 13.7049 87.5007 13.7049C88.183 13.7049 88.734 13.1551 88.734 12.4762V10.5323L87.5007 10.0713" fill="#E6372A"/>
<path fill-rule="evenodd" clip-rule="evenodd" d="M84.5971 8.52927L82.7154 9.23148C82.0763 9.46897 81.7539 10.1787 81.9929 10.8154C82.1784 11.3101 82.6489 11.6139 83.1474 11.6139C83.2917 11.6139 83.4379 11.5896 83.5794 11.5354L86.2671 10.5321V9.47271" fill="#E6372A"/>
<path fill-rule="evenodd" clip-rule="evenodd" d="M85.2435 6.06283L82.6824 4.61353C82.0892 4.27785 81.3367 4.4845 80.9993 5.0745C80.6648 5.66731 80.8737 6.41908 81.466 6.75288L84.5978 8.52851L85.936 8.02733" fill="#EC6F29"/>
<path fill-rule="evenodd" clip-rule="evenodd" d="M40.8994 44.1625C45.2457 44.1625 49.2068 42.3289 52.0125 39.4341C53.8924 37.506 55.284 35.0796 56.0037 32.3839L60.8579 41.4865C61.6123 42.9012 63.0817 43.7885 64.686 43.7885C66.2922 43.7885 67.7616 42.9012 68.515 41.4865L80.3779 19.2523C81.5053 17.1354 80.7003 14.5127 78.5787 13.3878C76.458 12.263 73.8219 13.0652 72.6946 15.1812L65.044 30.0538L64.686 31.275L64.3308 30.0538L56.6775 15.1812C55.5529 13.0652 52.9168 12.263 50.7962 13.3878C48.6746 14.5127 47.8696 17.1354 48.9988 19.2523L51.856 24.6129H43.0369C41.039 24.6129 39.4168 26.2791 39.4168 28.3371C39.4168 30.3933 41.039 32.0595 43.0369 32.0595H47.3973C46.2231 33.8641 44.2261 35.6154 40.8862 35.6154C38.9483 35.6107 37.2221 34.8244 35.9083 33.4845C34.6057 32.138 33.7858 30.2839 33.7839 28.1819C33.7773 24.5362 36.285 21.5862 39.4093 20.9092C41.7184 20.3978 43.1756 18.1163 42.6667 15.8124C42.3631 14.4519 41.4438 13.3888 40.2668 12.8502C38.5603 12.1059 36.4584 12.8502 36.4584 12.8502C29.8855 14.824 25.2215 20.984 25.2178 28.1819C25.2178 29.1113 25.2993 30.022 25.4502 30.9122C24.0792 33.1666 21.4974 35.996 17.1764 35.996C13.0231 35.9894 9.60456 32.5943 9.60175 28.3371C9.60456 24.554 12.2997 21.4534 15.8101 20.8008C15.8101 20.8008 16.6957 20.6306 18.1173 20.5109C19.4845 20.3968 21.4553 18.8026 21.4553 16.4033C21.4553 14.0461 19.5398 12.1367 17.1764 12.1367C8.23732 12.1433 1.06281 19.415 1.04688 28.3371C1.06281 37.2555 8.23732 44.5291 17.1764 44.5347C22.0428 44.5319 26.3826 42.3748 29.3317 38.9703C29.3317 38.9703 33.4756 44.1625 40.8994 44.1625Z" fill="#E6372A"/>
</g>
</svg>
