<svg width="24" height="24" viewBox="0 0 24 24" fill="none" xmlns="http://www.w3.org/2000/svg">
<path fill-rule="evenodd" clip-rule="evenodd" d="M16.5735 17.3266L16.3135 15.2199C17.7402 14.2199 18.6668 12.6266 18.6668 10.8266C18.6668 7.79325 16.0335 5.33325 12.7802 5.33325C9.99351 5.33325 7.66017 7.13992 7.05351 9.56659C6.99351 9.81992 7.23351 10.0466 7.48017 9.96659C7.96017 9.80659 8.47351 9.72659 9.00017 9.72659C11.5735 9.72659 13.6668 11.7133 13.6668 14.1533C13.6668 14.8466 13.4868 15.5399 13.1535 16.1533C13.0668 16.3133 13.1068 16.5133 13.2668 16.6066L15.5735 17.9799C16.0468 18.2666 16.6402 17.8799 16.5735 17.3266ZM11.8802 16.2599C12.3735 15.6799 12.6668 14.9466 12.6668 14.1532C12.6668 12.2599 11.0268 10.7266 9.00016 10.7266C8.22683 10.7266 7.5135 10.9466 6.92016 11.3332C5.96016 11.9466 5.3335 12.9799 5.3335 14.1532C5.3335 15.2732 5.90683 16.2666 6.80016 16.8866L6.6335 18.1999C6.5935 18.5399 6.96683 18.7866 7.26016 18.6066L9.00016 17.5732C10.1735 17.5732 11.2202 17.0599 11.8802 16.2599Z" fill="white"/>
<rect x="0.5" y="0.5" width="23" height="23" rx="3.5" stroke="white"/>
</svg>
