<svg
    width="20"
    height="20"
    viewBox="0 0 20 20"
    fill="none"
    xmlns="http://www.w3.org/2000/svg"
>
    <path
    fill-rule="evenodd"
    clip-rule="evenodd"
    d="M0 10C0 4.47715 4.47715 0 10 0C12.6522 0 15.1957 1.05357 17.0711 2.92893C18.9464 4.8043 20 7.34784 20 10C20 15.5228 15.5228 20 10 20C4.47715 20 0 15.5228 0 10ZM13.98 14.53L14.51 14C14.6083 13.904 14.6638 13.7724 14.6638 13.635C14.6638 13.4976 14.6083 13.366 14.51 13.27L10.88 9.64V4.5C10.88 4.22386 10.6561 4 10.38 4H9.62C9.34386 4 9.12 4.22386 9.12 4.5V10.17C9.11803 10.3056 9.17234 10.4359 9.27 10.53L13.27 14.53C13.4678 14.7218 13.7822 14.7218 13.98 14.53Z"
    fill="white"
    />
</svg>