<svg width="24" height="24" viewBox="0 0 24 24" fill="none" xmlns="http://www.w3.org/2000/svg">
<path d="M14.9602 6.06665C13.7535 6.06665 12.6735 6.65332 12.0002 7.55332C11.3268 6.65332 10.2468 6.06665 9.04016 6.06665C6.9935 6.06665 5.3335 7.73332 5.3335 9.79332C5.3335 10.5866 5.46016 11.32 5.68016 12C6.7335 15.3333 9.98016 17.3266 11.5868 17.8733C11.8135 17.9533 12.1868 17.9533 12.4135 17.8733C14.0202 17.3266 17.2668 15.3333 18.3202 12C18.5402 11.32 18.6668 10.5866 18.6668 9.79332C18.6668 7.73332 17.0068 6.06665 14.9602 6.06665Z" fill="white"/>
<rect x="0.5" y="0.5" width="23" height="23" rx="3.5" stroke="white"/>
</svg>
