<svg width="1092" height="99" viewBox="0 0 1092 99" fill="none" xmlns="http://www.w3.org/2000/svg">
<path d="M1 88L92.1843 73.9471C409.994 24.9676 733.612 27.4024 1050.65 81.1582L1091 88" stroke="url(#paint0_radial_2158_81823)" stroke-width="4"/>
<path opacity="0.3" d="M508.203 99H506.331V88.328H511.019C513.259 88.328 514.507 89.864 514.507 91.672C514.507 93.48 513.243 95.016 511.019 95.016H508.203V99ZM510.763 93.368C511.819 93.368 512.587 92.696 512.587 91.672C512.587 90.648 511.819 89.976 510.763 89.976H508.203V93.368H510.763ZM531.378 99H524.066V88.328H531.378V89.976H525.938V92.744H531.266V94.392H525.938V97.352H531.378V99ZM549.556 99H547.396L545.028 95.016H543.172V99H541.3V88.328H545.988C548.1 88.328 549.476 89.704 549.476 91.672C549.476 93.576 548.228 94.6 546.948 94.808L549.556 99ZM545.732 93.368C546.788 93.368 547.556 92.696 547.556 91.672C547.556 90.648 546.788 89.976 545.732 89.976H543.172V93.368H545.732ZM563.315 99H559.347V88.328H563.315C566.643 88.328 568.899 90.536 568.899 93.672C568.899 96.808 566.643 99 563.315 99ZM563.315 97.352C565.635 97.352 566.979 95.688 566.979 93.672C566.979 91.608 565.699 89.976 563.315 89.976H561.219V97.352H563.315ZM586.018 99H578.706V88.328H586.018V89.976H580.578V92.744H585.906V94.392H580.578V97.352H586.018V99Z" fill="#1E1E1E"/>
<defs>
<radialGradient id="paint0_radial_2158_81823" cx="0" cy="0" r="1" gradientUnits="userSpaceOnUse" gradientTransform="translate(546 44) rotate(90) scale(44 545)">
<stop stop-color="#B3B3B3"/>
<stop offset="1" stop-color="#B3B3B3" stop-opacity="0"/>
</radialGradient>
</defs>
</svg>
