<svg width="20" height="16" viewBox="0 0 20 16" fill="none" xmlns="http://www.w3.org/2000/svg">
<path fill-rule="evenodd" clip-rule="evenodd" d="M11.7229 1.22258C12.1134 0.832056 12.7466 0.832056 13.1371 1.22258L19.2071 7.29258C19.3946 7.48012 19.5 7.73447 19.5 7.99969C19.5 8.2649 19.3946 8.51926 19.2071 8.70679L13.1371 14.7768C12.7466 15.1673 12.1134 15.1673 11.7229 14.7768C11.3324 14.3863 11.3324 13.7531 11.7229 13.3626L17.0858 7.99969L11.7229 2.63679C11.3324 2.24627 11.3324 1.6131 11.7229 1.22258Z" fill="white"/>
<path fill-rule="evenodd" clip-rule="evenodd" d="M0.5 7.99969C0.5 7.4474 0.947715 6.99969 1.5 6.99969H18.33C18.8823 6.99969 19.33 7.4474 19.33 7.99969C19.33 8.55197 18.8823 8.99969 18.33 8.99969H1.5C0.947715 8.99969 0.5 8.55197 0.5 7.99969Z" fill="white"/>
</svg>
