<svg width="118" height="51" viewBox="0 0 118 51" fill="none" xmlns="http://www.w3.org/2000/svg">
<path fill-rule="evenodd" clip-rule="evenodd" d="M5.52052 10.6164H7.53386C9.32316 10.6164 10.5469 9.56575 10.5469 7.31802C10.5469 5.15621 9.66936 3.92462 7.40662 3.92462H5.52052V10.6164ZM0.999214 0.65332H8.91561C13.4977 0.65332 15.0719 3.95456 15.0719 7.25498C15.0719 11.8181 12.2085 13.8849 7.94212 13.8849H5.52045V22.6741H0.999214V0.65332Z" fill="#fff"/>
<path fill-rule="evenodd" clip-rule="evenodd" d="M21.4719 10.6226H23.3487C25.5193 10.6226 26.743 9.69651 26.743 7.32383C26.743 5.28904 25.6423 4.27082 23.6032 4.27082H21.4719V10.6226ZM16.9462 0.999829H25.3001C29.0055 0.999829 31.2636 2.91424 31.2636 6.67541C31.2636 9.60639 30.0754 11.5785 27.5277 12.104V12.1642C30.6059 12.5648 31.0797 14.231 31.1414 18.8879C31.1719 21.2004 31.2987 22.4046 32.1454 22.835V23.0206H27.2475C26.8083 22.4046 26.7119 21.5706 26.6815 20.7077L26.5543 16.4833C26.4976 14.7569 25.708 13.7063 23.8836 13.7063H21.4717V23.0206H16.9462V0.999829Z" fill="#fff"/>
<path fill-rule="evenodd" clip-rule="evenodd" d="M46.9371 0.999728V4.64093H38.9299V9.82172H46.4684V13.4604H38.9299V19.3818H47.2529V23.0205H34.4078V0.999728H46.9371Z" fill="#fff"/>
<path fill-rule="evenodd" clip-rule="evenodd" d="M49.6086 0.999756H56.3308L59.5324 16.5438H59.5979L62.8299 0.999756H69.5175V23.0205H65.3733V5.44168H65.312L61.3255 23.0205H57.8044L53.8187 5.44168H53.7524V23.0205H49.6086V0.999756Z" fill="#fff"/>
<path fill-rule="evenodd" clip-rule="evenodd" d="M72.9771 23.0205H77.4979V0.999756H72.9771V23.0205Z" fill="#fff"/>
<path fill-rule="evenodd" clip-rule="evenodd" d="M85.0989 0.999756V16.3587C85.0989 18.5479 85.6294 20.1825 87.7387 20.1825C89.8391 20.1825 90.3743 18.5479 90.3743 16.3587V0.999756H94.8955V16.3587C94.8955 21.974 91.409 23.451 87.7387 23.451C84.0595 23.451 80.5777 22.2493 80.5777 16.3587V0.999756H85.0989Z" fill="#fff"/>
<path fill-rule="evenodd" clip-rule="evenodd" d="M97.8515 0.999756H104.57L107.77 16.5438H107.836L111.073 0.999756H117.761V23.0205H113.612V5.44168H113.552L109.564 23.0205H106.047L102.057 5.44168H101.995V23.0205H97.8515V0.999756Z" fill="#fff"/>
<path fill-rule="evenodd" clip-rule="evenodd" d="M10.2277 35.9829C10.2277 32.7738 9.5653 31.3832 7.52195 31.3832C5.23216 31.3832 4.69702 33.6351 4.69702 39.8678C4.69702 46.5296 5.635 47.7309 7.58789 47.7309C9.2191 47.7309 10.412 46.8999 10.412 42.1495H14.9374C14.9374 46.8999 13.7403 50.9998 7.80685 50.9998C1.02161 50.9998 0.175781 46.2494 0.175781 39.5573C0.175781 32.8643 1.02161 28.1152 7.80685 28.1152C14.2751 28.1152 14.7447 32.7738 14.7447 35.9829H10.2277Z" fill="#fff"/>
<path fill-rule="evenodd" clip-rule="evenodd" d="M21.7215 50.5687H26.2385V28.5496H21.7215V50.5687Z" fill="#fff"/>
<path fill-rule="evenodd" clip-rule="evenodd" d="M38.8028 28.5497L44.2666 43.6288H44.3326V28.5497H48.481V50.5688H43.3282L37.7984 35.1481H37.7376V50.5688H33.5925V28.5497H38.8028Z" fill="#fff"/>
<path fill-rule="evenodd" clip-rule="evenodd" d="M68.1357 28.5497V32.1859H60.1284V37.3696H67.6669V41.0063H60.1284V46.9297H68.451V50.5688H55.603V28.5497H68.1357Z" fill="#fff"/>
<path fill-rule="evenodd" clip-rule="evenodd" d="M74.7971 28.5497H81.5164L84.7217 44.0921H84.7834L88.0192 28.5497H94.7068V50.5688H90.5631V32.9891H90.4971L86.5106 50.5688H82.9895L79.003 32.9891H78.9417V50.5688H74.7971V28.5497Z" fill="#fff"/>
<path fill-rule="evenodd" clip-rule="evenodd" d="M106.893 42.2719H111.292L109.121 32.369H109.06L106.893 42.2719ZM106.296 28.5497H111.885L117.822 50.5688H113.108L112.078 45.9135H106.104L105.073 50.5688H100.359L106.296 28.5497Z" fill="#fff"/>
</svg>
    