<svg width="173" height="36" viewBox="0 0 173 38" fill="none" xmlns="http://www.w3.org/2000/svg">
<path fill-rule="evenodd" clip-rule="evenodd" d="M172.944 36.8771L155.034 21.6406C154.92 21.5393 154.777 21.4918 154.632 21.4918H147.551L167.445 1.11697C167.547 1.02076 167.478 0.853027 167.338 0.853027H156.869C156.703 0.853027 156.554 0.915057 156.438 1.02139L144.458 12.2836L137.089 5.73502C136.976 5.63374 136.824 5.57741 136.666 5.57741H126.37C126.224 5.57741 126.154 5.75274 126.255 5.85464L134.807 14.0995C134.918 14.2166 135.079 14.2774 135.238 14.2774H141.909L123.812 31.2147C123.708 31.3166 123.777 31.4887 123.919 31.4887H137.674C137.842 31.4887 138.008 31.4204 138.121 31.2963L144.685 24.5471L156.988 36.9619C157.109 37.0834 157.266 37.1467 157.436 37.1467H172.846C172.99 37.1467 173.056 36.9676 172.944 36.8771ZM115.956 9.35221V22.7592C115.956 23.1215 115.76 23.3768 115.419 23.3768C115.101 23.3821 114.921 23.1504 114.708 22.8261L107.442 11.0936C106.972 10.3401 106.068 8.91833 103.398 8.91833C101.271 8.91833 99.8079 10.0395 99.8079 12.711V27.3087H103.624V13.8951C103.624 13.5217 103.833 13.2854 104.163 13.2854C104.482 13.2854 104.658 13.5059 104.873 13.8367L112.192 25.751C112.687 26.5328 113.721 27.7373 116.182 27.7373C116.856 27.7373 117.461 27.6231 117.977 27.39C118.937 26.9857 119.769 26.074 119.769 24.0411V9.35221H115.956ZM21.9142 12.0964C21.05 13.1225 19.9619 15.0636 19.9619 17.6544C19.9619 20.6069 21.3479 22.67 22.2955 23.6572C24.1179 25.5433 26.321 26.3931 29.1475 26.3931H37.2619V22.6943H29.2441C27.0033 22.6943 25.8676 21.557 25.2856 20.9117C24.8962 20.4759 24.0916 19.2952 24.0916 17.6851C24.0916 16.0846 24.893 14.9179 25.2329 14.5026L25.2369 14.4977C25.5423 14.1272 26.701 12.7212 29.2441 12.7212H37.2619V8.91833H29.1475C24.9677 8.91833 22.9671 10.8543 21.9142 12.0964ZM17.8195 12.7217H5.79746C5.24577 12.7217 4.76642 12.801 4.39968 13.2092C4.08389 13.5619 3.94235 13.9408 3.94235 14.3727C3.94235 14.7873 4.04992 15.1036 4.34747 15.4588C4.66137 15.8345 5.17972 15.9508 5.77356 15.9508H12.9776C15.2146 15.9508 16.5702 16.7922 17.4339 17.8362C18.219 18.7869 18.631 19.9395 18.631 21.1706C18.631 22.5155 18.1202 23.6317 17.4861 24.4291C16.7551 25.3491 15.5171 26.3931 12.9109 26.3931H0.459217V22.6944H12.6599C13.5412 22.6944 13.9464 22.5117 14.2628 22.182C14.5427 21.8658 14.6924 21.485 14.6924 21.0448C14.6924 20.5643 14.5125 20.1976 14.2106 19.8769C13.9111 19.5664 13.5412 19.3894 12.6599 19.3894H5.67794C3.07927 19.3894 1.95702 18.5997 1.26505 17.8451C0.476202 16.9967 0 15.5872 0 14.1689C0 12.8042 0.438458 11.511 1.19648 10.6274C2.34012 9.28698 3.81842 8.91833 5.67794 8.91833H17.8195V12.7217ZM77.185 12.7219V8.91833H62.331C60.7016 8.91833 59.885 9.7023 59.885 11.2728V23.9639C59.885 25.588 60.6941 26.3931 62.3046 26.3931H77.185V22.6949H64.3338C63.9925 22.6949 63.8259 22.516 63.8259 22.1576V19.3335H77.1058V15.9772H63.8259V13.2375C63.8259 12.8918 63.9925 12.7219 64.3338 12.7219H77.185ZM97.1464 8.91833V12.7219H84.2897C83.9488 12.7219 83.7809 12.8918 83.7809 13.2375V15.9772H97.0722V19.3335H83.7809V22.1576C83.7809 22.516 83.9488 22.6949 84.2897 22.6949H97.1464V26.3931H82.2583C80.6496 26.3931 79.8464 25.588 79.8464 23.9639V11.2728C79.8464 9.7023 80.6571 8.91833 82.2872 8.91833H97.1464ZM52.1839 16.3644C52.7302 16.3644 53.1571 16.2922 53.4671 16.1561C54.2148 15.8334 54.5477 15.1312 54.5477 14.4744C54.5477 13.7429 54.1608 13.0381 53.3248 12.7333C53.0587 12.633 52.68 12.5902 52.1839 12.5902H44.3385C44.0939 12.5902 43.8983 12.7877 43.8983 13.0273V16.3644H52.1839ZM58.481 21.3302V24.737C58.481 25.1222 58.483 25.4276 58.4912 25.6679C58.5007 25.9145 58.5192 26.1554 58.5541 26.3931H54.6765C54.6231 25.9273 54.5977 25.5082 54.5977 25.1274V21.819C54.5977 21.1615 54.4396 20.667 54.1238 20.3335C53.8049 19.9967 53.2351 19.83 52.4144 19.83H43.7539V26.3931H39.9233V11.2722C39.9233 9.7023 40.7473 8.91833 42.3881 8.91833H53.1309C57.3071 8.91833 58.5541 11.9449 58.5541 13.8304C58.5541 14.6055 58.4124 15.3268 58.1291 15.99C57.849 16.6545 57.3624 17.211 56.6807 17.6557C57.3287 17.9477 57.6647 18.3739 57.9887 18.938C58.3165 19.4971 58.481 20.2977 58.481 21.3302Z" fill="#383838"/>
</svg>
