<svg width="18" height="17" viewBox="0 0 18 17" fill="none" xmlns="http://www.w3.org/2000/svg">
<path fill-rule="evenodd" clip-rule="evenodd" d="M12.5053 1.98749C13.9643 1.50116 14.7917 1.75293 15.1614 2.12324C15.5322 2.49455 15.783 3.32598 15.3005 4.78527L12.9427 11.8588C12.5647 12.9949 12.146 13.7816 11.7445 14.2679C11.3407 14.7569 11.0311 14.8573 10.8501 14.8573C10.6691 14.8573 10.3594 14.7569 9.95566 14.2679C9.55413 13.7816 9.13532 12.9944 8.7573 11.8584L8.17005 10.0967L7.74992 9.66654L7.33325 9.24988L6.89152 9.01844L5.42984 8.53121C4.29355 8.15311 3.50667 7.73486 3.02035 7.33382C2.53128 6.9305 2.43132 6.62173 2.43132 6.44171C2.43132 6.26144 2.53154 5.952 3.02102 5.54749C3.50754 5.14544 4.29503 4.72561 5.43108 4.34555L12.5053 1.98749ZM16.8829 5.30857C17.4502 3.59328 17.3637 1.97007 16.3408 0.945604C15.3168 -0.0799238 13.6942 -0.16565 11.9782 0.406351L4.90238 2.76496C3.65957 3.18068 2.66231 3.6818 1.95931 4.26275C1.25921 4.84132 0.764648 5.57719 0.764648 6.44171C0.764648 7.30649 1.25948 8.04199 1.95998 8.61966C2.66317 9.19954 3.66095 9.69909 4.90362 10.1126L6.60792 10.6807L7.17616 12.3854C7.58978 13.6284 8.08981 14.6258 8.67051 15.3291C9.24902 16.0297 9.98523 16.524 10.8501 16.524C11.7149 16.524 12.4511 16.0297 13.0296 15.3291C13.6103 14.6258 14.1105 13.628 14.5241 12.385L16.8829 5.30857Z" fill="#3D4245"/>
</svg>
