<svg width="76" height="50" viewBox="0 0 76 50" fill="none" xmlns="http://www.w3.org/2000/svg">
<path d="M7.01787 24.6962V25.7268C7.01787 29.0052 7.94513 31.1049 11.6456 31.1049C13.7943 31.1049 15.8427 29.7346 15.8427 26.802C15.8427 23.621 14.2328 22.4487 9.60226 20.8333C3.3644 18.6829 0.485831 16.09 0.485831 10.2719C0.485831 3.47034 4.63024 0 11.2568 0C17.4972 0 22.0336 2.68776 22.0336 9.38874V10.3665H15.3045C15.3045 7.09098 14.1827 5.18324 11.5037 5.18324C8.33642 5.18324 7.50626 7.19129 7.50626 9.24132C7.50626 11.3997 8.14221 12.7171 11.1125 13.9871L16.5259 16.3352C21.7892 18.6329 23.1522 21.3233 23.1522 25.582C23.1522 32.9655 18.6689 36.2885 11.0652 36.2885C3.12005 36.2885 0 32.5726 0 26.1197V24.6962H7.01787Z" fill="#fff"/>
<path d="M33.6836 0.684692V14.6693H33.7807L42.6528 0.684692H50.2622L40.8012 15.6524L51.331 35.6054H43.4357L36.268 21.2757L33.6836 25.236V35.6054H26.6658V0.684692H33.6836Z" fill="#fff"/>
<path d="M63.0316 14.1818L58.4486 0.684692H50.5479L59.5672 21.8605V35.6054H66.5934V21.8605L75.6098 0.684692H68.001L63.1261 14.1818H63.0316Z" fill="#fff"/>
<path fill-rule="evenodd" clip-rule="evenodd" d="M0.168945 49.7743L2.38505 40.3711H4.72476L6.82939 49.7743H4.97231L4.51427 47.3922H2.48407L2.02603 49.7743H0.168945ZM2.75667 46.013H4.24227L3.77177 43.3425C3.70176 42.9877 3.66414 42.641 3.62595 42.2892C3.61694 42.2062 3.60783 42.1222 3.59833 42.0385C3.58619 41.8254 3.56128 41.6123 3.53636 41.4117H3.51177C3.48717 41.6123 3.46226 41.8254 3.4498 42.0385C3.44054 42.1206 3.43173 42.2022 3.42294 42.2836C3.38471 42.6374 3.34706 42.9858 3.27668 43.3425L2.75667 46.013Z" fill="#fff"/>
<path d="M13.675 40.371H11.9419V46.7778C11.9419 47.6808 11.8802 48.5833 10.7534 48.5833C9.57758 48.5833 9.51562 47.6808 9.51562 46.7778V40.371H7.78247V46.9284C7.78247 49.0095 8.45101 50.0001 10.7412 50.0001C13.0065 50.0001 13.675 49.0095 13.675 46.9284V40.371Z" fill="#fff"/>
<path fill-rule="evenodd" clip-rule="evenodd" d="M15.3955 49.7745V40.371H19.0103C19.4313 40.371 20.273 40.5591 20.8054 41.4365C21.2015 42.0887 21.313 43.1292 21.313 44.6841C21.313 46.5396 21.313 48.6836 19.8894 49.5235C19.5054 49.7495 19.0349 49.7745 18.6018 49.7745H15.3955ZM17.8837 48.3951C19.4313 48.3951 19.5303 47.5677 19.5303 44.8469C19.5303 42.6277 19.3073 41.7502 18.2676 41.7502H17.1286V48.3951H17.8837Z" fill="#fff"/>
<path d="M24.655 49.7743H22.9219V40.3708H24.655V49.7743Z" fill="#fff"/>
<path d="M25.7197 40.371H31.5011V41.7503H29.4831V49.7745H27.7499V41.7503H25.7197V40.371Z" fill="#fff"/>
<path fill-rule="evenodd" clip-rule="evenodd" d="M35.4873 40.1453C32.7141 40.1453 32.5282 41.9258 32.4541 44.3204V45.6622C32.4541 48.1695 32.6397 50 35.4873 50C38.3345 50 38.5201 48.1695 38.5201 45.6622V44.3204C38.4457 41.9258 38.2601 40.1453 35.4873 40.1453ZM35.4874 48.5832C34.2988 48.5832 34.2368 47.317 34.2368 46.5396V43.9316C34.2368 43.8837 34.2364 43.8318 34.2358 43.7766C34.2286 42.995 34.2152 41.5621 35.4874 41.5621C36.7406 41.5621 36.7386 43.1425 36.7376 43.9204L36.7376 46.389C36.7376 47.292 36.7251 48.5832 35.4874 48.5832Z" fill="#fff"/>
<path fill-rule="evenodd" clip-rule="evenodd" d="M41.8125 45.7248V49.7742H40.0793V40.371H43.3601C44.8581 40.371 45.9968 40.8976 45.9968 42.6278C45.9968 43.6561 45.7368 44.7342 44.5732 44.8973V44.9223C45.6008 45.0598 45.9103 45.7248 45.9103 46.6272C45.9103 46.6558 45.91 46.6949 45.9097 46.7428C45.9055 47.3448 45.8918 49.3433 46.2817 49.5989V49.7742H44.3752C44.2011 49.2767 44.1963 48.4014 44.1928 47.7589C44.1921 47.6246 44.1914 47.5005 44.1893 47.3922L44.1878 47.3152C44.177 46.7473 44.1632 46.0177 43.5951 45.8497C43.1608 45.7228 42.6951 45.7237 42.2364 45.7246L42.122 45.7248H41.8125ZM41.8123 44.3454H43.174C43.7435 44.3079 44.1891 43.9317 44.1891 42.9911C44.1891 41.9381 43.7559 41.7625 43.0999 41.75H41.8123V44.3454Z" fill="#fff"/>
<path d="M49.4136 49.7743H47.6802V40.3708H49.4136V49.7743Z" fill="#fff"/>
<path d="M55.2693 40.371H57.0024V46.9284C57.0024 49.0095 56.3339 50.0001 54.0683 50.0001C51.7781 50.0001 51.1099 49.0095 51.1099 46.9284V40.371H52.8427V46.7778C52.8427 47.6808 52.9047 48.5833 54.0807 48.5833C55.2073 48.5833 55.2693 47.6808 55.2693 46.7778V40.371Z" fill="#fff"/>
<path d="M58.6602 49.7743H60.3933V46.8155C60.3933 44.9471 60.3563 43.0791 60.2448 41.2108H60.3067L62.1268 49.7743H63.1789L65.0357 41.2108H65.0603C64.9491 43.0791 64.9118 44.9471 64.9118 46.8155V49.7743H66.6449V40.3708H63.897L62.9684 44.734C62.8445 45.3484 62.7825 45.9755 62.696 46.9033H62.6714C62.5969 46.1758 62.4979 45.4487 62.3494 44.734L61.4209 40.3708H58.6602V49.7743Z" fill="#fff"/>
</svg>
