<svg width="168" height="50" viewBox="0 0 168 50" fill="none" xmlns="http://www.w3.org/2000/svg">
<path fill-rule="evenodd" clip-rule="evenodd" d="M17.5807 0L13.9986 3.59976H163.983V35.8989L167.568 32.2957V0H17.5807Z" fill="#fff"/>
<path fill-rule="evenodd" clip-rule="evenodd" d="M0 17.6804V50.0001H149.965L153.548 46.3944H3.58212V14.0748L0 17.6804Z" fill="#fff"/>
<path fill-rule="evenodd" clip-rule="evenodd" d="M91.4165 36.6002H93.9885C97.1573 36.6002 99.3214 35.4451 99.3214 31.6055C99.3214 27.7737 97.1573 26.663 94.2687 26.663H91.4165V36.6002ZM91.4165 22.0419H93.3003C96.9295 22.0419 98.5861 20.792 98.5861 17.6968C98.5861 14.5547 97.0684 13.3996 93.8078 13.3996H91.4165V22.0419ZM84.7991 8.5045H95.8723C101.294 8.5045 105.204 10.5359 105.204 16.8655C105.204 20.4233 103.5 23.1497 100.24 24.0763V24.1681C103.872 24.6736 106.211 27.4499 106.211 31.837C106.211 37.0134 103.688 41.4977 95.9666 41.4977H84.7991V8.5045Z" fill="#fff"/>
<path fill-rule="evenodd" clip-rule="evenodd" d="M120.828 37.2464C124.73 37.2464 125.373 33.8699 125.373 24.9985C125.373 16.1695 124.73 12.7534 120.828 12.7534C116.922 12.7534 116.278 16.1695 116.278 24.9985C116.278 33.8699 116.922 37.2464 120.828 37.2464ZM120.828 7.85591C130.753 7.85591 131.993 14.9695 131.993 24.9985C131.993 35.028 130.753 42.1415 120.828 42.1415C110.901 42.1415 109.657 35.028 109.657 24.9985C109.657 14.9695 110.901 7.85591 120.828 7.85591Z" fill="#fff"/>
<path fill-rule="evenodd" clip-rule="evenodd" d="M134.517 8.50354H141.825L146.051 19.1753L150.235 8.50354H157.447L149.821 24.8148L158.004 41.4968H150.557L145.823 30.315L141.134 41.4968H133.873L142.055 24.8148L134.517 8.50354Z" fill="#fff"/>
<path fill-rule="evenodd" clip-rule="evenodd" d="M16.1798 31.1888V32.1628C16.1798 35.2604 17.0535 37.2444 20.5419 37.2444C22.567 37.2444 24.4979 35.9496 24.4979 33.1787C24.4979 30.1729 22.9803 29.0651 18.6158 27.5388C12.7361 25.5069 10.0228 23.0569 10.0228 17.5596C10.0228 11.1328 13.9293 7.85391 20.1752 7.85391C26.0573 7.85391 30.3334 10.3933 30.3334 16.7253V17.649H23.9904C23.9904 14.5542 22.9332 12.7514 20.4083 12.7514C17.4226 12.7514 16.6402 14.649 16.6402 16.5856C16.6402 18.6253 17.2395 19.8699 20.0392 21.07L25.1419 23.2889C30.1028 25.46 31.3878 28.0018 31.3878 32.026C31.3878 39.0023 27.1617 42.142 19.9945 42.142C12.5059 42.142 9.56481 38.6311 9.56481 32.534V31.1888H16.1798Z" fill="#fff"/>
<path fill-rule="evenodd" clip-rule="evenodd" d="M41.3143 8.50103V21.7146H41.4056L49.7684 8.50103H56.9409L48.0235 22.6436L57.9482 41.4972H50.5066L43.7503 27.9568L41.3143 31.6992V41.4972H34.6993V8.50103H41.3143Z" fill="#fff"/>
<path fill-rule="evenodd" clip-rule="evenodd" d="M64.6572 8.50103L68.977 21.254H69.0664L73.6611 8.50103H80.8331L72.3343 28.5097V41.4972H65.7115V28.5097L57.2103 8.50103H64.6572Z" fill="#fff"/>
</svg>
