<svg width="174" height="46" viewBox="0 0 174 46" fill="none" xmlns="http://www.w3.org/2000/svg">
<path fill-rule="evenodd" clip-rule="evenodd" d="M20.1845 2.76082V8.9404C20.1845 8.9404 15.9545 5.72419 12.3872 5.72419C8.80952 5.72419 7.27912 7.82054 7.27912 10.1838C7.27912 17.831 23.7538 17.8833 23.7538 30.211C23.7538 30.211 22.7131 44.203 7.77377 44.203H0.80171V35.0576C0.80171 35.0576 5.46902 38.8778 10.249 38.8778C15.0206 38.8778 16.0652 34.6774 16.0652 32.7297C16.0652 25.4065 0.0298367 25.6323 0.0298367 13.4169C0.0298367 13.4169 -1.17492 1.46319 11.7265 1.46319C11.7265 1.46319 16.123 1.14351 20.1845 2.76082Z" fill="#fff"/>
<path fill-rule="evenodd" clip-rule="evenodd" d="M23.2036 2.97394L44.8931 5.13084V9.43785L37.6443 8.79218V40.4346L30.1776 41.2454V7.82054L23.2036 7.27514" fill="#fff"/>
<path fill-rule="evenodd" clip-rule="evenodd" d="M108.436 6.58728L101.347 7.00965V38.8192L108.436 39.0429" fill="#fff"/>
<path fill-rule="evenodd" clip-rule="evenodd" d="M113.651 6.58727L120.896 5.8893V30.5955C120.896 30.5955 121.007 36.1818 125.785 36.1818C130.559 36.1818 130.343 30.2109 130.343 30.2109V5.8893L137.755 4.85711V31.3439C137.755 34.8275 135.121 40.5474 126.005 40.5474C116.887 40.5474 113.651 34.4642 113.651 30.7442" fill="#fff"/>
<path fill-rule="evenodd" clip-rule="evenodd" d="M143.577 4.59149L150.225 3.56753L157.525 24.7732L166.423 1.46295L174 0.019043V45.9813L166.478 44.3093V17.3459L157.525 38.6586L149.5 18.6377V41.7867L143.526 40.863" fill="#fff"/>
<path fill-rule="evenodd" clip-rule="evenodd" d="M54.1211 5.98965L41.6016 40.1692L48.6226 39.6301L50.6669 33.0615L61.4855 32.5747L64.2251 38.5582L70.8152 38.2845L60.2145 6.20277L54.1211 5.98965ZM52.2558 28.5937L56.5392 16.9717L60.6051 28.2154L52.2558 28.5937Z" fill="#fff"/>
<path fill-rule="evenodd" clip-rule="evenodd" d="M95.1957 28.2696C93.2255 24.5017 89.5416 22.6771 89.5416 22.6771C89.5416 22.6771 97.0167 22.138 97.0167 14.2781C97.0167 6.41586 87.6248 6.68953 87.6248 6.68953H72.6296V38.4472L79.1623 38.067L79.3264 24.8757H83.3884C87.6717 24.8757 91.3581 38.5581 91.3581 38.5581H99.0996C97.8311 36.7272 97.1724 32.0375 95.1957 28.2696ZM83.5735 21.4148H79.3262V10.3073H82.2111C82.2111 10.3073 90.2876 10.067 90.2876 15.7535C90.2876 21.7766 83.5735 21.4148 83.5735 21.4148Z" fill="#fff"/>
</svg>
