<svg width="99" height="50" viewBox="0 0 99 50" fill="none" xmlns="http://www.w3.org/2000/svg">
<path fill-rule="evenodd" clip-rule="evenodd" d="M0 1.2483V4.57843H4.1184V18.0909H8.58543V4.57843H12.7139V1.2483H0Z" fill="#fff"/>
<path fill-rule="evenodd" clip-rule="evenodd" d="M13.9844 1.24823H25.7928V4.43384H18.4468V7.90903H25.3857V11.0915H18.4468V14.9047H26.0575V18.0908H13.9844V1.24823Z" fill="#fff"/>
<path fill-rule="evenodd" clip-rule="evenodd" d="M27.6901 1.24823H34.7191L38.2723 12.4446H38.3197L42.0387 1.24823H48.8103V18.0908H44.4403L44.5121 5.15779H44.4644L40.1906 18.0908H36.0896L32.0093 5.15779H31.9593L32.0585 18.0908H27.6901V1.24823Z" fill="#fff"/>
<path fill-rule="evenodd" clip-rule="evenodd" d="M55.7086 9.01733H56.8608C58.3952 9.01733 59.6198 8.46317 59.6198 6.70123C59.6198 4.98798 58.3952 4.43383 56.8608 4.43383H55.7086V9.01733ZM51.2466 1.24817H56.571C61.682 1.24817 64.0828 2.98511 64.0828 6.77227C64.0828 10.1764 61.6118 12.2029 57.4367 12.2029H55.7085V18.0908H51.2466V1.24817Z" fill="#fff"/>
<path fill-rule="evenodd" clip-rule="evenodd" d="M80.1143 11.6956C80.1143 16.3057 77.141 18.3796 72.7713 18.3796C68.4038 18.3796 65.4277 16.3057 65.4277 11.6956V1.24817H69.8924V10.9467C69.8924 13.1669 70.4909 15.0487 72.7713 15.0487C75.0525 15.0487 75.6501 13.1669 75.6501 10.9467V1.24817H80.1143V11.6956Z" fill="#fff"/>
<path fill-rule="evenodd" clip-rule="evenodd" d="M86.3774 8.24561H87.5544C88.9961 8.24561 90.8173 8.19717 90.8173 6.29044C90.8173 4.7225 89.2593 4.43371 87.5544 4.43371H86.3774V8.24561ZM81.9143 1.2483H89.8838C92.8583 1.2483 95.2804 2.59905 95.2804 5.49508C95.2804 7.73983 94.2254 9.23641 92.0652 9.74031V9.78874C93.5061 10.1762 93.6025 11.4543 94.4396 13.5061L96.0751 18.0909H91.419L90.4598 15.0488C89.545 12.1551 88.9715 11.4312 87.3148 11.4312H86.3774V18.0909H81.9143V1.2483Z" fill="#fff"/>
<path fill-rule="evenodd" clip-rule="evenodd" d="M97.3179 1.46112C97.5653 1.46112 97.9253 1.50252 97.9253 1.1481C97.9253 0.874409 97.7044 0.841337 97.4907 0.841337H96.9939V1.46112H97.3179ZM98.1358 2.43585H97.8806L97.3846 1.63092H96.9937V2.43585H96.7793V0.688749H97.54C97.9998 0.688749 98.1567 0.862182 98.1567 1.1515C98.1567 1.49342 97.9182 1.6231 97.6105 1.63092L98.1358 2.43585ZM98.6653 1.56014C98.6653 0.800257 98.1154 0.205999 97.3588 0.205999C96.6002 0.205999 96.0451 0.800257 96.0451 1.56014C96.0451 2.32913 96.6002 2.92209 97.3588 2.92209C98.1154 2.92209 98.6653 2.32913 98.6653 1.56014ZM95.798 1.56012C95.798 0.701287 96.4968 0 97.3591 0C98.218 0 98.9129 0.701287 98.9129 1.56012C98.9129 2.42677 98.218 3.12936 97.3591 3.12936C96.4968 3.12936 95.798 2.42677 95.798 1.56012Z" fill="#fff"/>
<path fill-rule="evenodd" clip-rule="evenodd" d="M8.78629 38.4452C7.59169 38.4452 6.49164 38.2204 5.48613 37.7715C4.4801 37.3225 3.60798 36.709 2.86952 35.9306C2.13054 35.1525 1.55293 34.234 1.13669 33.1752C0.720183 32.1164 0.511932 30.9854 0.511932 29.7823V29.7341C0.511932 28.5472 0.720183 27.424 1.13669 26.3652C1.55293 25.3064 2.13054 24.3798 2.86952 23.5858C3.60798 22.7916 4.48787 22.1661 5.5097 21.7088C6.53101 21.2515 7.6466 21.0229 8.857 21.0229C9.61126 21.0229 10.2909 21.0874 10.896 21.2156C11.5008 21.3442 12.0629 21.5247 12.5817 21.757C13.1002 21.9898 13.5794 22.2705 14.0195 22.5991C14.4593 22.9283 14.8836 23.2934 15.2923 23.6942L14.0195 25.0897C13.3124 24.416 12.554 23.8624 11.7448 23.4293C10.9351 22.9963 9.96482 22.7796 8.83343 22.7796C7.92194 22.7796 7.07728 22.9564 6.29919 23.309C5.52136 23.6621 4.84557 24.1514 4.27211 24.7769C3.69812 25.4027 3.25028 26.1366 2.92832 26.9787C2.6061 27.8209 2.44499 28.7235 2.44499 29.686V29.7341C2.44499 30.7128 2.6061 31.6232 2.92832 32.4653C3.25028 33.3075 3.69812 34.0416 4.27211 34.6671C4.84557 35.2929 5.52136 35.7861 6.29919 36.147C7.07728 36.5082 7.92194 36.6887 8.83343 36.6887C9.96482 36.6887 10.9392 36.4762 11.7565 36.0509C12.5734 35.6259 13.3751 35.0283 14.1609 34.258L15.3869 35.4853C14.9626 35.9345 14.5184 36.3397 14.055 36.7007C13.5911 37.0616 13.092 37.3707 12.5581 37.6272C12.0235 37.884 11.45 38.0842 10.8372 38.2288C10.2241 38.373 9.54055 38.4452 8.78629 38.4452Z" fill="#fff"/>
<path fill-rule="evenodd" clip-rule="evenodd" d="M18.8047 38.1564H20.667V21.3117H18.8047V38.1564Z" fill="#fff"/>
<path fill-rule="evenodd" clip-rule="evenodd" d="M25.4992 21.3117H27.2434L37.6394 34.8117V21.3117H39.4546V38.1564H37.9694L27.3142 24.3439V38.1564H25.4992V21.3117Z" fill="#fff"/>
<path fill-rule="evenodd" clip-rule="evenodd" d="M44.1218 21.3117H56.0499V23.0445H45.9841V28.7957H54.9892V30.5282H45.9841V36.4239H56.1677V38.1564H44.1218V21.3117Z" fill="#fff"/>
<path fill-rule="evenodd" clip-rule="evenodd" d="M59.9159 21.3117H61.8016L67.8129 30.5042L73.8242 21.3117H75.7101V38.1564H73.8478V24.5124L67.8365 33.5362H67.7422L61.7311 24.5364V38.1564H59.9159V21.3117Z" fill="#fff"/>
<path fill-rule="evenodd" clip-rule="evenodd" d="M91.0793 31.9721L87.3311 23.4053L83.5592 31.9721H91.0793ZM86.4825 21.1913H88.227L95.7469 38.1564H93.7431L91.81 33.7046H82.8286L80.8722 38.1564H78.9627L86.4825 21.1913Z" fill="#fff"/>
<path fill-rule="evenodd" clip-rule="evenodd" d="M2.58324 49.9999C0.245341 49.9668 0.120235 47.9888 0.120235 47.9888H2.41152C2.41152 47.9888 2.41152 48.5059 3.28985 48.5549C3.28985 48.5549 4.61628 48.5965 5.06257 48.5281C5.06257 48.5281 6.08026 48.6169 6.08829 47.6658V46.7049C5.82849 47.0354 5.28015 47.5505 4.51138 47.5752L2.5589 47.576C2.5589 47.576 -0.0131592 47.4502 5.07106e-05 45.2552V41.6988H2.22062V44.9964C2.22062 44.9964 2.15017 45.9281 3.1018 46.0143C3.1018 46.0143 4.63519 46.2015 5.46172 45.9463C5.46172 45.9463 5.93624 45.8104 6.08829 45.2167V41.6988H8.3117V47.5914C8.3117 49.8283 6.09139 49.9911 5.27549 49.9999H2.58324Z" fill="#fff"/>
<path fill-rule="evenodd" clip-rule="evenodd" d="M13.9842 46.163C13.0712 46.4356 11.6763 46.2828 11.6763 46.2828C11.0415 46.1953 11.0415 45.7661 11.0415 45.7661C11.0415 45.2651 11.5064 45.1797 11.5064 45.1797C11.8678 45.0919 12.7272 45.1039 12.7272 45.1039C13.0536 45.0854 13.762 45.1422 13.762 45.1422C14.2782 45.1599 14.329 45.589 14.329 45.589C14.3453 46.0382 13.9842 46.163 13.9842 46.163ZM14.4818 41.6981H11.3803C9.17942 41.6981 9.19807 43.5432 9.19807 43.5432H11.2878C11.2878 43.5432 11.263 42.9708 12.0214 42.9708H13.5379C13.5379 42.9708 14.3655 42.9044 14.3655 43.7304V44.3158H14.2782C14.2782 44.3158 14.0036 43.8859 13.0543 43.8859C13.0543 43.8859 11.4021 43.8098 10.23 43.9642C10.23 43.9642 9.02634 44.1783 9.02634 45.7316L9.04654 46.2827C9.04654 46.2827 9.15015 47.5764 10.6258 47.5756H13.2559C13.2559 47.5756 14.0044 47.5204 14.3487 46.7814L14.4313 46.7962V47.5756H16.3967V43.3182C16.3967 43.3182 16.4123 41.6981 14.4818 41.6981Z" fill="#fff"/>
<path fill-rule="evenodd" clip-rule="evenodd" d="M37.1194 46.163C36.2068 46.4356 34.8092 46.2828 34.8092 46.2828C34.1751 46.1953 34.1751 45.7661 34.1751 45.7661C34.1751 45.2651 34.6393 45.1797 34.6393 45.1797C35.0014 45.0919 35.8623 45.1039 35.8623 45.1039C36.1866 45.0854 36.8971 45.1422 36.8971 45.1422C37.411 45.1599 37.4618 45.589 37.4618 45.589C37.4776 46.0382 37.1194 46.163 37.1194 46.163ZM37.6164 41.6981H34.5144C32.3143 41.6981 32.3317 43.5432 32.3317 43.5432H34.4217C34.4217 43.5432 34.3966 42.9708 35.155 42.9708H36.6731C36.6731 42.9708 37.4983 42.9044 37.4983 43.7304V44.3158H37.411C37.411 44.3158 37.1365 43.8859 36.1887 43.8859C36.1887 43.8859 34.5362 43.8098 33.3634 43.9642C33.3634 43.9642 32.1587 44.1783 32.1587 45.7316L32.1809 46.2827C32.1809 46.2827 32.2832 47.5764 33.7581 47.5756H36.3908C36.3908 47.5756 37.1375 47.5204 37.4843 46.7814L37.5641 46.7962V47.5756H39.5311V43.3182C39.5311 43.3182 39.5474 41.6981 37.6164 41.6981Z" fill="#fff"/>
<path fill-rule="evenodd" clip-rule="evenodd" d="M19.4951 47.5752C17.791 47.4208 17.9125 45.9205 17.9125 45.9205V43.2828H16.8248V41.699H17.9125V40.3527H19.9779V41.699H23.2151V43.2828H19.9779V45.506C19.9779 45.506 19.895 46.1828 20.8047 46.1828C20.8047 46.1828 21.5828 46.2247 21.5828 45.5052L21.5874 45.0732H23.464C23.478 47.3809 21.8923 47.5752 21.8923 47.5752H19.4951Z" fill="#fff"/>
<path fill-rule="evenodd" clip-rule="evenodd" d="M45.8088 41.6976C45.8088 41.6976 47.7678 41.7885 47.7678 43.8955V47.5761H45.7205V44.322C45.7205 43.371 44.9499 43.2833 44.9499 43.2833C43.8496 43.1244 43.1852 43.3122 43.1852 43.3122C42.5768 43.4546 42.4103 44.0421 42.3717 44.4733V47.5761H40.3254V41.6953H42.2611V42.6093H42.353C42.467 42.35 43.0596 41.7166 43.8059 41.6976H45.8088Z" fill="#fff"/>
<path fill-rule="evenodd" clip-rule="evenodd" d="M28.8718 41.6977C31.4078 41.6977 31.326 43.3896 31.326 43.3896H29.2235C29.1901 42.9977 28.6394 42.974 28.6394 42.974C27.8331 42.8878 26.8224 42.974 26.8224 42.974C26.1086 43.0307 26.1171 43.3484 26.1171 43.3484C26.0542 43.8122 26.681 43.8013 26.681 43.8013L29.2139 43.843C30.3031 43.8354 30.8424 44.1101 30.8424 44.1101C31.6562 44.4846 31.5695 45.6177 31.5695 45.6177C31.5695 47.664 29.4302 47.5739 29.4302 47.5739L26.4821 47.5754C23.7432 47.6208 24.016 45.7122 24.016 45.7122H26.1008C26.0961 46.2437 26.7577 46.3005 26.7577 46.3005C27.946 46.4523 28.9347 46.3268 28.9347 46.3268C29.5771 46.2697 29.5533 45.8565 29.5533 45.8565C29.5533 45.3588 28.8749 45.4018 28.8749 45.4018C28.2711 45.4018 25.7913 45.3273 25.7913 45.3273C23.81 45.2416 24.046 43.4789 24.046 43.4789C24.046 41.6136 26.3533 41.6977 26.3533 41.6977H28.8718Z" fill="#fff"/>
</svg>
