<svg width="25" height="24" viewBox="0 0 25 24" fill="none" xmlns="http://www.w3.org/2000/svg">
<path d="M18.1394 3.76C17.228 2.7195 16.7257 1.38324 16.7261 0H12.6061V16.5333C12.5743 17.428 12.1966 18.2755 11.5524 18.8973C10.9083 19.519 10.048 19.8665 9.15273 19.8667C7.2594 19.8667 5.68607 18.32 5.68607 16.4C5.68607 14.1067 7.8994 12.3867 10.1794 13.0933V8.88C5.5794 8.26667 1.55273 11.84 1.55273 16.4C1.55273 20.84 5.23273 24 9.1394 24C13.3261 24 16.7261 20.6 16.7261 16.4V8.01333C18.3967 9.21313 20.4026 9.85686 22.4594 9.85333V5.73333C22.4594 5.73333 19.9527 5.85333 18.1394 3.76Z" fill="white"/>
</svg>
