<svg width="25" height="24" viewBox="0 0 25 24" fill="none" xmlns="http://www.w3.org/2000/svg">
<path fill-rule="evenodd" clip-rule="evenodd" d="M22.5941 0H3.39414C2.06866 0 0.994141 1.07452 0.994141 2.4V21.6C0.994141 22.9255 2.06866 24 3.39414 24H22.5941C23.9196 24 24.9941 22.9255 24.9941 21.6V2.4C24.9941 1.07452 23.9196 0 22.5941 0ZM19.4144 7.48724C20.1116 7.40665 20.7758 7.22797 21.3941 6.96246C20.9322 7.6303 20.3474 8.21692 19.6735 8.68735C19.68 8.83041 19.6832 8.9741 19.6832 9.11842C19.6832 13.5222 16.2174 18.6 9.87754 18.6C7.93075 18.6 6.11965 18.0484 4.59414 17.1031C4.86422 17.1344 5.13883 17.15 5.41666 17.15C7.03199 17.15 8.51808 16.6171 9.69727 15.7231C8.1892 15.6962 6.91633 14.7323 6.47761 13.4085C6.6876 13.4466 6.90405 13.4678 7.12567 13.4678C7.44034 13.4678 7.74531 13.4272 8.03413 13.351C6.45693 13.0455 5.26935 11.6986 5.26935 10.0836V10.0418C5.73391 10.291 6.26568 10.441 6.83039 10.4585C5.90578 9.86122 5.29778 8.84103 5.29778 7.68528C5.29778 7.07366 5.46771 6.50141 5.76363 6.00912C7.46425 8.02576 10.0035 9.35269 12.8678 9.49138C12.8097 9.24836 12.7787 8.99347 12.7787 8.73233C12.7787 6.89249 14.3216 5.4 16.2251 5.4C17.2163 5.4 18.1118 5.80483 18.7405 6.45268C19.5262 6.30274 20.2641 6.02536 20.9296 5.64365C20.6724 6.42206 20.1264 7.07491 19.4144 7.48724Z" fill="white"/>
</svg>
