<svg width="370" height="340" viewBox="0 0 370 340" fill="none" xmlns="http://www.w3.org/2000/svg">
<path fill-rule="evenodd" clip-rule="evenodd" d="M362.513 325.329C358.697 325.329 355.604 328.423 355.604 332.238C355.604 336.054 358.697 339.147 362.513 339.147C366.329 339.147 369.422 336.054 369.422 332.238C369.422 328.423 366.329 325.329 362.513 325.329ZM326.953 325.329C323.137 325.329 320.044 328.423 320.044 332.238C320.044 336.054 323.137 339.147 326.953 339.147C330.768 339.147 333.862 336.054 333.862 332.238C333.862 328.423 330.768 325.329 326.953 325.329ZM284.483 332.238C284.483 328.423 287.577 325.329 291.393 325.329C295.208 325.329 298.302 328.423 298.302 332.238C298.302 336.054 295.208 339.147 291.393 339.147C287.577 339.147 284.483 336.054 284.483 332.238ZM255.832 325.329C252.017 325.329 248.923 328.423 248.923 332.238C248.923 336.054 252.017 339.147 255.832 339.147C259.648 339.147 262.742 336.054 262.742 332.238C262.742 328.423 259.648 325.329 255.832 325.329ZM213.363 332.238C213.363 328.423 216.457 325.329 220.272 325.329C224.088 325.329 227.181 328.423 227.181 332.238C227.181 336.054 224.088 339.147 220.272 339.147C216.457 339.147 213.363 336.054 213.363 332.238ZM184.712 325.329C180.896 325.329 177.803 328.423 177.803 332.238C177.803 336.054 180.896 339.147 184.712 339.147C188.528 339.147 191.621 336.054 191.621 332.238C191.621 328.423 188.528 325.329 184.712 325.329ZM142.243 332.238C142.243 328.423 145.336 325.329 149.152 325.329C152.968 325.329 156.061 328.423 156.061 332.238C156.061 336.054 152.968 339.147 149.152 339.147C145.336 339.147 142.243 336.054 142.243 332.238ZM113.592 325.329C109.776 325.329 106.683 328.423 106.683 332.238C106.683 336.054 109.776 339.147 113.592 339.147C117.408 339.147 120.501 336.054 120.501 332.238C120.501 328.423 117.408 325.329 113.592 325.329ZM71.1228 332.238C71.1228 328.423 74.2161 325.329 78.0319 325.329C81.8477 325.329 84.941 328.423 84.941 332.238C84.941 336.054 81.8477 339.147 78.0319 339.147C74.2161 339.147 71.1228 336.054 71.1228 332.238ZM42.4718 325.329C38.656 325.329 35.5627 328.423 35.5627 332.238C35.5627 336.054 38.656 339.147 42.4718 339.147C46.2876 339.147 49.3809 336.054 49.3809 332.238C49.3809 328.423 46.2876 325.329 42.4718 325.329ZM0.00256287 332.238C0.00256254 328.423 3.09589 325.329 6.91168 325.329C10.7275 325.329 13.8208 328.423 13.8208 332.238C13.8208 336.054 10.7275 339.147 6.91168 339.147C3.09589 339.147 0.00256321 336.054 0.00256287 332.238ZM362.513 289.182C358.697 289.182 355.604 292.275 355.604 296.091C355.604 299.907 358.697 303 362.513 303C366.329 303 369.422 299.907 369.422 296.091C369.422 292.275 366.329 289.182 362.513 289.182ZM320.044 296.091C320.044 292.275 323.137 289.182 326.953 289.182C330.768 289.182 333.862 292.275 333.862 296.091C333.862 299.907 330.768 303 326.953 303C323.137 303 320.044 299.907 320.044 296.091ZM291.393 289.182C287.577 289.182 284.483 292.275 284.483 296.091C284.483 299.907 287.577 303 291.393 303C295.208 303 298.302 299.907 298.302 296.091C298.302 292.275 295.208 289.182 291.393 289.182ZM248.923 296.091C248.923 292.275 252.017 289.182 255.832 289.182C259.648 289.182 262.742 292.275 262.742 296.091C262.742 299.906 259.648 303 255.832 303C252.017 303 248.923 299.906 248.923 296.091ZM220.272 289.182C216.457 289.182 213.363 292.275 213.363 296.091C213.363 299.907 216.457 303 220.272 303C224.088 303 227.181 299.907 227.181 296.091C227.181 292.275 224.088 289.182 220.272 289.182ZM177.803 296.091C177.803 292.275 180.896 289.182 184.712 289.182C188.528 289.182 191.621 292.275 191.621 296.091C191.621 299.907 188.528 303 184.712 303C180.896 303 177.803 299.907 177.803 296.091ZM149.152 289.182C145.336 289.182 142.243 292.275 142.243 296.091C142.243 299.906 145.336 303 149.152 303C152.968 303 156.061 299.906 156.061 296.091C156.061 292.275 152.968 289.182 149.152 289.182ZM106.683 296.091C106.683 292.275 109.776 289.182 113.592 289.182C117.408 289.182 120.501 292.275 120.501 296.091C120.501 299.906 117.408 303 113.592 303C109.776 303 106.683 299.906 106.683 296.091ZM78.0319 289.182C74.2161 289.182 71.1228 292.275 71.1228 296.091C71.1228 299.907 74.2161 303 78.0319 303C81.8477 303 84.941 299.907 84.941 296.091C84.941 292.275 81.8477 289.182 78.0319 289.182ZM35.5627 296.091C35.5627 292.275 38.656 289.182 42.4718 289.182C46.2876 289.182 49.3809 292.275 49.3809 296.091C49.3809 299.907 46.2876 303 42.4718 303C38.656 303 35.5627 299.907 35.5627 296.091ZM6.91168 289.182C3.09588 289.182 0.00255938 292.275 0.00255971 296.091C0.00256005 299.907 3.09588 303 6.91168 303C10.7275 303 13.8208 299.907 13.8208 296.091C13.8208 292.275 10.7275 289.182 6.91168 289.182ZM355.604 259.943C355.604 256.127 358.697 253.034 362.513 253.034C366.329 253.034 369.422 256.127 369.422 259.943C369.422 263.759 366.329 266.852 362.513 266.852C358.697 266.852 355.604 263.759 355.604 259.943ZM326.953 253.034C323.137 253.034 320.044 256.127 320.044 259.943C320.044 263.759 323.137 266.852 326.953 266.852C330.768 266.852 333.862 263.759 333.862 259.943C333.862 256.127 330.768 253.034 326.953 253.034ZM284.483 259.943C284.483 256.127 287.577 253.034 291.393 253.034C295.208 253.034 298.302 256.127 298.302 259.943C298.302 263.759 295.208 266.852 291.393 266.852C287.577 266.852 284.483 263.759 284.483 259.943ZM255.832 253.034C252.017 253.034 248.923 256.127 248.923 259.943C248.923 263.758 252.017 266.852 255.832 266.852C259.648 266.852 262.742 263.758 262.742 259.943C262.742 256.127 259.648 253.034 255.832 253.034ZM213.363 259.943C213.363 256.127 216.457 253.034 220.272 253.034C224.088 253.034 227.181 256.127 227.181 259.943C227.181 263.759 224.088 266.852 220.272 266.852C216.457 266.852 213.363 263.759 213.363 259.943ZM184.712 253.034C180.896 253.034 177.803 256.127 177.803 259.943C177.803 263.759 180.896 266.852 184.712 266.852C188.528 266.852 191.621 263.759 191.621 259.943C191.621 256.127 188.528 253.034 184.712 253.034ZM142.243 259.943C142.243 256.127 145.336 253.034 149.152 253.034C152.968 253.034 156.061 256.127 156.061 259.943C156.061 263.758 152.968 266.852 149.152 266.852C145.336 266.852 142.243 263.758 142.243 259.943ZM113.592 253.034C109.776 253.034 106.683 256.127 106.683 259.943C106.683 263.758 109.776 266.852 113.592 266.852C117.408 266.852 120.501 263.758 120.501 259.943C120.501 256.127 117.408 253.034 113.592 253.034ZM71.1228 259.943C71.1228 256.127 74.2161 253.034 78.0319 253.034C81.8477 253.034 84.941 256.127 84.941 259.943C84.941 263.759 81.8477 266.852 78.0319 266.852C74.2161 266.852 71.1228 263.759 71.1228 259.943ZM42.4718 253.034C38.656 253.034 35.5627 256.127 35.5627 259.943C35.5627 263.759 38.656 266.852 42.4718 266.852C46.2876 266.852 49.3809 263.759 49.3809 259.943C49.3809 256.127 46.2876 253.034 42.4718 253.034ZM0.00255655 259.943C0.00255622 256.127 3.09588 253.034 6.91167 253.034C10.7275 253.034 13.8208 256.127 13.8208 259.943C13.8208 263.759 10.7275 266.852 6.91168 266.852C3.09588 266.852 0.00255689 263.759 0.00255655 259.943ZM362.513 216.886C358.697 216.886 355.604 219.979 355.604 223.795C355.604 227.611 358.697 230.704 362.513 230.704C366.329 230.704 369.422 227.611 369.422 223.795C369.422 219.979 366.329 216.886 362.513 216.886ZM320.044 223.795C320.044 219.979 323.137 216.886 326.953 216.886C330.768 216.886 333.862 219.979 333.862 223.795C333.862 227.611 330.768 230.704 326.953 230.704C323.137 230.704 320.044 227.611 320.044 223.795ZM291.393 216.886C287.577 216.886 284.483 219.979 284.483 223.795C284.483 227.611 287.577 230.704 291.393 230.704C295.208 230.704 298.302 227.611 298.302 223.795C298.302 219.979 295.208 216.886 291.393 216.886ZM248.923 223.795C248.923 219.98 252.017 216.886 255.832 216.886C259.648 216.886 262.742 219.98 262.742 223.795C262.742 227.611 259.648 230.705 255.832 230.705C252.017 230.705 248.923 227.611 248.923 223.795ZM220.272 216.886C216.457 216.886 213.363 219.979 213.363 223.795C213.363 227.611 216.457 230.704 220.272 230.704C224.088 230.704 227.181 227.611 227.181 223.795C227.181 219.979 224.088 216.886 220.272 216.886ZM177.803 223.795C177.803 219.979 180.896 216.886 184.712 216.886C188.528 216.886 191.621 219.979 191.621 223.795C191.621 227.611 188.528 230.704 184.712 230.704C180.896 230.704 177.803 227.611 177.803 223.795ZM149.152 216.886C145.336 216.886 142.243 219.98 142.243 223.795C142.243 227.611 145.336 230.705 149.152 230.705C152.968 230.705 156.061 227.611 156.061 223.795C156.061 219.98 152.968 216.886 149.152 216.886ZM106.683 223.795C106.683 219.98 109.776 216.886 113.592 216.886C117.408 216.886 120.501 219.98 120.501 223.795C120.501 227.611 117.408 230.705 113.592 230.705C109.776 230.705 106.683 227.611 106.683 223.795ZM78.0319 216.886C74.2161 216.886 71.1228 219.979 71.1228 223.795C71.1228 227.611 74.2161 230.704 78.0319 230.704C81.8477 230.704 84.941 227.611 84.941 223.795C84.941 219.979 81.8477 216.886 78.0319 216.886ZM35.5627 223.795C35.5627 219.979 38.656 216.886 42.4718 216.886C46.2876 216.886 49.3809 219.979 49.3809 223.795C49.3809 227.611 46.2876 230.704 42.4718 230.704C38.656 230.704 35.5627 227.611 35.5627 223.795ZM6.91167 216.886C3.09588 216.886 0.00255306 219.979 0.00255339 223.795C0.00255373 227.611 3.09588 230.704 6.91167 230.704C10.7275 230.704 13.8208 227.611 13.8208 223.795C13.8208 219.979 10.7275 216.886 6.91167 216.886ZM355.604 187.648C355.604 183.832 358.697 180.739 362.513 180.739C366.329 180.739 369.422 183.832 369.422 187.648C369.422 191.463 366.329 194.557 362.513 194.557C358.697 194.557 355.604 191.463 355.604 187.648ZM326.953 180.739C323.137 180.739 320.044 183.832 320.044 187.648C320.044 191.463 323.137 194.557 326.953 194.557C330.768 194.557 333.862 191.463 333.862 187.648C333.862 183.832 330.768 180.739 326.953 180.739ZM284.483 187.648C284.483 183.832 287.577 180.739 291.393 180.739C295.208 180.739 298.302 183.832 298.302 187.648C298.302 191.463 295.208 194.557 291.393 194.557C287.577 194.557 284.483 191.463 284.483 187.648ZM255.832 180.739C252.017 180.739 248.923 183.832 248.923 187.648C248.923 191.464 252.017 194.557 255.832 194.557C259.648 194.557 262.742 191.464 262.742 187.648C262.742 183.832 259.648 180.739 255.832 180.739ZM213.363 187.648C213.363 183.832 216.457 180.739 220.272 180.739C224.088 180.739 227.181 183.832 227.181 187.648C227.181 191.463 224.088 194.557 220.272 194.557C216.457 194.557 213.363 191.463 213.363 187.648ZM184.712 180.739C180.896 180.739 177.803 183.832 177.803 187.648C177.803 191.463 180.896 194.557 184.712 194.557C188.528 194.557 191.621 191.463 191.621 187.648C191.621 183.832 188.528 180.739 184.712 180.739ZM142.243 187.648C142.243 183.832 145.336 180.739 149.152 180.739C152.968 180.739 156.061 183.832 156.061 187.648C156.061 191.464 152.968 194.557 149.152 194.557C145.336 194.557 142.243 191.464 142.243 187.648ZM113.592 180.739C109.776 180.739 106.683 183.832 106.683 187.648C106.683 191.464 109.776 194.557 113.592 194.557C117.408 194.557 120.501 191.464 120.501 187.648C120.501 183.832 117.408 180.739 113.592 180.739ZM71.1228 187.648C71.1228 183.832 74.2161 180.739 78.0319 180.739C81.8477 180.739 84.941 183.832 84.941 187.648C84.941 191.463 81.8477 194.557 78.0319 194.557C74.2161 194.557 71.1228 191.463 71.1228 187.648ZM42.4718 180.739C38.656 180.739 35.5627 183.832 35.5627 187.648C35.5627 191.463 38.656 194.557 42.4718 194.557C46.2876 194.557 49.3809 191.463 49.3809 187.648C49.3809 183.832 46.2876 180.739 42.4718 180.739ZM0.00255023 187.648C0.0025499 183.832 3.09587 180.739 6.91167 180.739C10.7275 180.739 13.8208 183.832 13.8208 187.648C13.8208 191.463 10.7275 194.557 6.91167 194.557C3.09587 194.557 0.00255057 191.463 0.00255023 187.648ZM362.513 144.591C358.697 144.591 355.604 147.684 355.604 151.5C355.604 155.315 358.697 158.409 362.513 158.409C366.329 158.409 369.422 155.315 369.422 151.5C369.422 147.684 366.329 144.591 362.513 144.591ZM320.044 151.5C320.044 147.684 323.137 144.591 326.953 144.591C330.768 144.591 333.862 147.684 333.862 151.5C333.862 155.315 330.768 158.409 326.953 158.409C323.137 158.409 320.044 155.315 320.044 151.5ZM291.393 144.591C287.577 144.591 284.483 147.684 284.483 151.5C284.483 155.315 287.577 158.409 291.393 158.409C295.208 158.409 298.302 155.315 298.302 151.5C298.302 147.684 295.208 144.591 291.393 144.591ZM248.923 151.5C248.923 147.684 252.017 144.591 255.832 144.591C259.648 144.591 262.742 147.684 262.742 151.5C262.742 155.316 259.648 158.409 255.832 158.409C252.017 158.409 248.923 155.316 248.923 151.5ZM220.272 144.591C216.457 144.591 213.363 147.684 213.363 151.5C213.363 155.315 216.457 158.409 220.272 158.409C224.088 158.409 227.181 155.315 227.181 151.5C227.181 147.684 224.088 144.591 220.272 144.591ZM177.803 151.5C177.803 147.684 180.896 144.591 184.712 144.591C188.528 144.591 191.621 147.684 191.621 151.5C191.621 155.315 188.528 158.409 184.712 158.409C180.896 158.409 177.803 155.315 177.803 151.5ZM149.152 144.591C145.336 144.591 142.243 147.684 142.243 151.5C142.243 155.316 145.336 158.409 149.152 158.409C152.968 158.409 156.061 155.316 156.061 151.5C156.061 147.684 152.968 144.591 149.152 144.591ZM106.683 151.5C106.683 147.684 109.776 144.591 113.592 144.591C117.408 144.591 120.501 147.684 120.501 151.5C120.501 155.316 117.408 158.409 113.592 158.409C109.776 158.409 106.683 155.316 106.683 151.5ZM78.0319 144.591C74.2161 144.591 71.1228 147.684 71.1228 151.5C71.1228 155.316 74.2161 158.409 78.0319 158.409C81.8477 158.409 84.941 155.316 84.941 151.5C84.941 147.684 81.8477 144.591 78.0319 144.591ZM35.5627 151.5C35.5627 147.684 38.656 144.591 42.4718 144.591C46.2876 144.591 49.3809 147.684 49.3809 151.5C49.3809 155.316 46.2876 158.409 42.4718 158.409C38.656 158.409 35.5627 155.316 35.5627 151.5ZM6.91167 144.591C3.09587 144.591 0.00254674 147.684 0.00254707 151.5C0.00254741 155.316 3.09587 158.409 6.91167 158.409C10.7275 158.409 13.8208 155.316 13.8208 151.5C13.8208 147.684 10.7275 144.591 6.91167 144.591ZM355.604 115.352C355.604 111.536 358.697 108.443 362.513 108.443C366.329 108.443 369.422 111.536 369.422 115.352C369.422 119.168 366.329 122.261 362.513 122.261C358.697 122.261 355.604 119.168 355.604 115.352ZM326.953 108.443C323.137 108.443 320.044 111.536 320.044 115.352C320.044 119.168 323.137 122.261 326.953 122.261C330.768 122.261 333.862 119.168 333.862 115.352C333.862 111.536 330.768 108.443 326.953 108.443ZM284.483 115.352C284.483 111.536 287.577 108.443 291.393 108.443C295.208 108.443 298.302 111.536 298.302 115.352C298.302 119.168 295.208 122.261 291.393 122.261C287.577 122.261 284.483 119.168 284.483 115.352ZM255.832 108.443C252.017 108.443 248.923 111.536 248.923 115.352C248.923 119.168 252.017 122.261 255.832 122.261C259.648 122.261 262.742 119.168 262.742 115.352C262.742 111.536 259.648 108.443 255.832 108.443ZM213.363 115.352C213.363 111.536 216.457 108.443 220.272 108.443C224.088 108.443 227.181 111.536 227.181 115.352C227.181 119.168 224.088 122.261 220.272 122.261C216.457 122.261 213.363 119.168 213.363 115.352ZM184.712 108.443C180.896 108.443 177.803 111.536 177.803 115.352C177.803 119.168 180.896 122.261 184.712 122.261C188.528 122.261 191.621 119.168 191.621 115.352C191.621 111.536 188.528 108.443 184.712 108.443ZM142.243 115.352C142.243 111.536 145.336 108.443 149.152 108.443C152.968 108.443 156.061 111.536 156.061 115.352C156.061 119.168 152.968 122.261 149.152 122.261C145.336 122.261 142.243 119.168 142.243 115.352ZM113.592 108.443C109.776 108.443 106.683 111.536 106.683 115.352C106.683 119.168 109.776 122.261 113.592 122.261C117.408 122.261 120.501 119.168 120.501 115.352C120.501 111.536 117.408 108.443 113.592 108.443ZM71.1228 115.352C71.1228 111.536 74.2161 108.443 78.0319 108.443C81.8477 108.443 84.941 111.536 84.941 115.352C84.941 119.168 81.8477 122.261 78.0319 122.261C74.2161 122.261 71.1228 119.168 71.1228 115.352ZM42.4718 108.443C38.656 108.443 35.5627 111.536 35.5627 115.352C35.5627 119.168 38.656 122.261 42.4718 122.261C46.2876 122.261 49.3809 119.168 49.3809 115.352C49.3809 111.536 46.2876 108.443 42.4718 108.443ZM0.00254391 115.352C0.00254358 111.536 3.09587 108.443 6.91166 108.443C10.7275 108.443 13.8208 111.536 13.8208 115.352C13.8208 119.168 10.7275 122.261 6.91166 122.261C3.09587 122.261 0.00254425 119.168 0.00254391 115.352ZM362.513 72.2954C358.697 72.2954 355.604 75.3887 355.604 79.2045C355.604 83.0203 358.697 86.1136 362.513 86.1136C366.329 86.1136 369.422 83.0203 369.422 79.2045C369.422 75.3887 366.329 72.2954 362.513 72.2954ZM320.044 79.2045C320.044 75.3887 323.137 72.2954 326.953 72.2954C330.768 72.2954 333.862 75.3887 333.862 79.2045C333.862 83.0203 330.768 86.1137 326.953 86.1137C323.137 86.1137 320.044 83.0203 320.044 79.2045ZM291.393 72.2954C287.577 72.2954 284.483 75.3887 284.483 79.2045C284.483 83.0203 287.577 86.1137 291.393 86.1137C295.208 86.1137 298.302 83.0203 298.302 79.2045C298.302 75.3887 295.208 72.2954 291.393 72.2954ZM248.923 79.2044C248.923 75.3886 252.017 72.2953 255.832 72.2953C259.648 72.2953 262.742 75.3886 262.742 79.2044C262.742 83.0202 259.648 86.1135 255.832 86.1135C252.017 86.1135 248.923 83.0202 248.923 79.2044ZM220.272 72.2954C216.457 72.2954 213.363 75.3887 213.363 79.2045C213.363 83.0203 216.457 86.1137 220.272 86.1137C224.088 86.1137 227.181 83.0203 227.181 79.2045C227.181 75.3887 224.088 72.2954 220.272 72.2954ZM177.803 79.2045C177.803 75.3887 180.896 72.2954 184.712 72.2954C188.528 72.2954 191.621 75.3887 191.621 79.2045C191.621 83.0203 188.528 86.1137 184.712 86.1137C180.896 86.1137 177.803 83.0203 177.803 79.2045ZM149.152 72.2953C145.336 72.2953 142.243 75.3886 142.243 79.2044C142.243 83.0202 145.336 86.1135 149.152 86.1135C152.968 86.1135 156.061 83.0202 156.061 79.2044C156.061 75.3886 152.968 72.2953 149.152 72.2953ZM106.683 79.2044C106.683 75.3886 109.776 72.2953 113.592 72.2953C117.408 72.2953 120.501 75.3886 120.501 79.2044C120.501 83.0202 117.408 86.1135 113.592 86.1135C109.776 86.1135 106.683 83.0202 106.683 79.2044ZM78.0319 72.2954C74.2161 72.2954 71.1228 75.3888 71.1228 79.2046C71.1228 83.0204 74.2161 86.1137 78.0319 86.1137C81.8477 86.1137 84.941 83.0203 84.941 79.2046C84.941 75.3888 81.8477 72.2954 78.0319 72.2954ZM35.5627 79.2046C35.5627 75.3888 38.656 72.2954 42.4718 72.2954C46.2876 72.2954 49.3809 75.3888 49.3809 79.2046C49.3809 83.0204 46.2876 86.1137 42.4718 86.1137C38.656 86.1137 35.5627 83.0204 35.5627 79.2046ZM6.91166 72.2954C3.09586 72.2954 0.00254042 75.3888 0.00254075 79.2046C0.00254109 83.0204 3.09586 86.1137 6.91166 86.1137C10.7275 86.1137 13.8208 83.0204 13.8208 79.2046C13.8208 75.3888 10.7275 72.2954 6.91166 72.2954ZM355.604 43.0566C355.604 39.2408 358.697 36.1474 362.513 36.1474C366.329 36.1474 369.422 39.2408 369.422 43.0565C369.422 46.8723 366.329 49.9657 362.513 49.9657C358.697 49.9657 355.604 46.8723 355.604 43.0566ZM326.953 36.1474C323.137 36.1474 320.044 39.2408 320.044 43.0566C320.044 46.8723 323.137 49.9657 326.953 49.9657C330.768 49.9657 333.862 46.8723 333.862 43.0566C333.862 39.2408 330.768 36.1474 326.953 36.1474ZM284.483 43.0566C284.483 39.2408 287.577 36.1474 291.393 36.1474C295.208 36.1474 298.302 39.2408 298.302 43.0566C298.302 46.8724 295.208 49.9657 291.393 49.9657C287.577 49.9657 284.483 46.8724 284.483 43.0566ZM255.832 36.1473C252.017 36.1473 248.923 39.2406 248.923 43.0564C248.923 46.8722 252.017 49.9655 255.832 49.9655C259.648 49.9655 262.742 46.8722 262.742 43.0564C262.742 39.2406 259.648 36.1473 255.832 36.1473ZM213.363 43.0566C213.363 39.2408 216.457 36.1474 220.272 36.1474C224.088 36.1474 227.181 39.2408 227.181 43.0566C227.181 46.8724 224.088 49.9657 220.272 49.9657C216.457 49.9657 213.363 46.8724 213.363 43.0566ZM184.712 36.1474C180.896 36.1474 177.803 39.2408 177.803 43.0566C177.803 46.8724 180.896 49.9657 184.712 49.9657C188.528 49.9657 191.621 46.8724 191.621 43.0566C191.621 39.2408 188.528 36.1474 184.712 36.1474ZM142.243 43.0564C142.243 39.2406 145.336 36.1473 149.152 36.1473C152.968 36.1473 156.061 39.2406 156.061 43.0564C156.061 46.8722 152.968 49.9655 149.152 49.9655C145.336 49.9655 142.243 46.8722 142.243 43.0564ZM113.592 36.1473C109.776 36.1473 106.683 39.2406 106.683 43.0564C106.683 46.8722 109.776 49.9655 113.592 49.9655C117.408 49.9655 120.501 46.8722 120.501 43.0564C120.501 39.2406 117.408 36.1473 113.592 36.1473ZM71.1228 43.0566C71.1228 39.2408 74.2161 36.1475 78.0319 36.1475C81.8477 36.1475 84.941 39.2408 84.941 43.0566C84.941 46.8724 81.8477 49.9657 78.0319 49.9657C74.2161 49.9657 71.1228 46.8724 71.1228 43.0566ZM42.4718 36.1475C38.656 36.1475 35.5627 39.2408 35.5627 43.0566C35.5627 46.8724 38.656 49.9657 42.4718 49.9657C46.2876 49.9657 49.3809 46.8724 49.3809 43.0566C49.3809 39.2408 46.2876 36.1475 42.4718 36.1475ZM0.00253759 43.0566C0.00253726 39.2408 3.09586 36.1475 6.91166 36.1475C10.7275 36.1475 13.8208 39.2408 13.8208 43.0566C13.8208 46.8724 10.7275 49.9657 6.91166 49.9657C3.09586 49.9657 0.00253793 46.8724 0.00253759 43.0566ZM362.513 -0.000243537C358.697 -0.000243203 355.604 3.09308 355.604 6.90888C355.604 10.7247 358.697 13.818 362.513 13.818C366.329 13.818 369.422 10.7247 369.422 6.90887C369.422 3.09308 366.329 -0.00024387 362.513 -0.000243537ZM320.044 6.90888C320.044 3.09308 323.137 -0.000240094 326.953 -0.000240428C330.768 -0.000240761 333.862 3.09308 333.862 6.90888C333.862 10.7247 330.768 13.818 326.953 13.818C323.137 13.818 320.044 10.7247 320.044 6.90888ZM291.393 -0.000237319C287.577 -0.000236985 284.483 3.09309 284.483 6.90888C284.483 10.7247 287.577 13.818 291.393 13.818C295.208 13.818 298.302 10.7247 298.302 6.90888C298.302 3.09308 295.208 -0.000237653 291.393 -0.000237319ZM248.923 6.90873C248.923 3.09294 252.017 -0.000355947 255.832 -0.000356281C259.648 -0.000356614 262.742 3.09294 262.742 6.90873C262.742 10.7245 259.648 13.8179 255.832 13.8179C252.017 13.8179 248.923 10.7245 248.923 6.90873ZM220.272 -0.000231102C216.457 -0.000230768 213.363 3.09309 213.363 6.90889C213.363 10.7247 216.457 13.818 220.272 13.818C224.088 13.818 227.181 10.7247 227.181 6.90889C227.181 3.09309 224.088 -0.000231435 220.272 -0.000231102ZM177.803 6.90889C177.803 3.0931 180.896 -0.000227659 184.712 -0.000227993C188.528 -0.000228326 191.621 3.09309 191.621 6.90889C191.621 10.7247 188.528 13.818 184.712 13.818C180.896 13.818 177.803 10.7247 177.803 6.90889ZM149.152 -0.000346954C145.336 -0.000346621 142.243 3.09295 142.243 6.90874C142.243 10.7245 145.336 13.8179 149.152 13.8179C152.968 13.8179 156.061 10.7245 156.061 6.90874C156.061 3.09294 152.968 -0.000347288 149.152 -0.000346954ZM106.683 6.90874C106.683 3.09295 109.776 -0.000343512 113.592 -0.000343846C117.408 -0.000344179 120.501 3.09295 120.501 6.90874C120.501 10.7245 117.408 13.8179 113.592 13.8179C109.776 13.8179 106.683 10.7245 106.683 6.90874ZM78.0319 -0.000218667C74.2161 -0.000218333 71.1228 3.0931 71.1228 6.9089C71.1228 10.7247 74.2161 13.818 78.0319 13.818C81.8477 13.818 84.941 10.7247 84.941 6.9089C84.941 3.0931 81.8477 -0.000219 78.0319 -0.000218667ZM35.5627 6.9089C35.5627 3.09311 38.656 -0.000215224 42.4718 -0.000215558C46.2876 -0.000215891 49.3809 3.09311 49.3809 6.9089C49.3809 10.7247 46.2876 13.818 42.4718 13.818C38.656 13.818 35.5627 10.7247 35.5627 6.9089ZM6.91165 -0.000212449C3.09586 -0.000212115 0.0025341 3.09311 0.00253443 6.90891C0.00253476 10.7247 3.09586 13.818 6.91165 13.818C10.7274 13.818 13.8208 10.7247 13.8208 6.90891C13.8208 3.09311 10.7274 -0.000212783 6.91165 -0.000212449Z" fill="url(#paint0_linear_7359_102174)"/>
<defs>
<linearGradient id="paint0_linear_7359_102174" x1="72.9219" y1="512.648" x2="287.422" y2="237.648" gradientUnits="userSpaceOnUse">
<stop stop-color="#FF0000"/>
<stop offset="1" stop-color="#FF0000" stop-opacity="0"/>
</linearGradient>
</defs>
</svg>
