<svg width="12" height="12" viewBox="0 0 12 12" fill="none" xmlns="http://www.w3.org/2000/svg">
<path fill-rule="evenodd" clip-rule="evenodd" d="M11.7137 5.99944C11.7137 9.1423 9.1423 11.7137 5.99944 11.7137C2.85659 11.7137 0.285156 9.1423 0.285156 5.99944C0.285156 2.85659 2.85659 0.285156 5.99944 0.285156C9.1423 0.285156 11.7137 2.85659 11.7137 5.99944ZM5.9983 8.85659C5.68271 8.85659 5.42687 8.60075 5.42687 8.28516L5.42687 5.42801C5.42687 5.11242 5.68271 4.85659 5.9983 4.85659C6.31389 4.85659 6.56973 5.11242 6.56973 5.42801L6.56973 8.28516C6.56973 8.60075 6.31389 8.85659 5.9983 8.85659ZM6.57287 3.71373C6.57287 4.02932 6.31703 4.28516 6.00144 4.28516H5.9963C5.68071 4.28516 5.42488 4.02932 5.42488 3.71373C5.42488 3.39814 5.68071 3.1423 5.9963 3.1423H6.00144C6.31703 3.1423 6.57287 3.39814 6.57287 3.71373Z" fill="white"/>
</svg>
