<svg width="128" height="128" viewBox="0 0 128 128" fill="none" xmlns="http://www.w3.org/2000/svg">
<rect x="2" y="2" width="124" height="124" rx="62" fill="white"/>
<rect x="2" y="2" width="124" height="124" rx="62" stroke="#FF442A" stroke-width="4"/>
<path d="M57.9279 58.4624C57.7386 58.4624 57.5492 58.3985 57.3905 58.2746C57.1164 58.0618 56.9758 57.7037 57.0227 57.3418L57.9063 50.6418L53.5225 45.7783C53.2863 45.5171 53.2069 45.1378 53.3097 44.7933C53.4143 44.4488 53.6884 44.1914 54.022 44.1295L60.2325 42.9586L63.1881 36.9804C63.5055 36.3399 64.4864 36.3399 64.8038 36.9804L67.7594 42.9586L73.9699 44.1295C74.3017 44.1914 74.5758 44.4488 74.6804 44.7933C74.7832 45.1378 74.7038 45.519 74.4676 45.7783L70.0838 50.6418L70.9674 57.3418C71.0143 57.7018 70.8718 58.0618 70.5996 58.2746C70.3237 58.4895 69.9594 58.5243 69.66 58.3637L63.9959 55.393L58.33 58.3637C58.2038 58.4314 58.065 58.4643 57.9279 58.4643V58.4624ZM56.0345 45.7455L59.531 49.6219C59.7276 49.8386 59.8196 50.1425 59.7799 50.4424L59.0748 55.7839L63.5938 53.4151C63.8481 53.2815 64.1438 53.2815 64.3981 53.4151L68.9153 55.7839L68.2102 50.4424C68.1705 50.1405 68.2625 49.8386 68.4591 49.6219L71.9556 45.7435L67.0038 44.8107C66.7243 44.7584 66.4863 44.5707 66.3528 44.3036L63.9959 39.535L61.6391 44.3036C61.5074 44.5707 61.2676 44.7584 60.9881 44.8107L56.0345 45.7455Z" fill="#FF5348"/>
<path d="M81.8077 73.2752C81.7591 73.2752 81.7122 73.2713 81.6653 73.2636C81.3317 73.2055 81.0522 72.9539 80.944 72.6114L79.3553 67.6473L74.7281 65.9423C74.4089 65.8262 74.1745 65.5262 74.1204 65.1682C74.0681 64.8102 74.2051 64.4483 74.4738 64.2296L78.3851 61.0731L78.4663 55.8245C78.4717 55.4607 78.6646 55.1298 78.9658 54.9653C79.2705 54.7988 79.6312 54.8259 79.9071 55.0369L83.9122 58.0501L88.5899 56.5116C88.9127 56.4071 89.2679 56.5 89.5041 56.7574C89.744 57.0147 89.8305 57.3921 89.7313 57.7386L88.2977 62.7587L91.1073 67.0551C91.302 67.3532 91.3272 67.7422 91.174 68.0634C91.0207 68.3866 90.7123 68.5956 90.3751 68.5995L85.4828 68.6885L82.5417 72.8843C82.3686 73.1339 82.0945 73.2752 81.8113 73.2752H81.8077ZM76.9515 64.6863L80.3705 65.9462C80.6392 66.0449 80.8484 66.2694 80.9386 66.5558L82.1125 70.2232L84.2854 67.1229C84.455 66.8809 84.72 66.7377 84.9995 66.7319L88.6151 66.6661L86.5377 63.4922C86.3754 63.2445 86.3286 62.931 86.4133 62.6407L87.4736 58.9307L84.0168 60.0687C83.7481 60.1616 83.4523 60.1074 83.2233 59.9332L80.2641 57.7057L80.2046 61.584C80.1992 61.8879 80.0658 62.1704 79.8404 62.3523L76.9497 64.6844L76.9515 64.6863Z" fill="#FF5348"/>
<path d="M46.1964 73.2752C45.9115 73.2752 45.6392 73.1339 45.4661 72.8843L42.5249 68.6885L37.6327 68.5995C37.2954 68.5937 36.9871 68.3866 36.8338 68.0634C36.6805 67.7402 36.7058 67.3512 36.9005 67.0551L39.71 62.7587L38.2764 57.7386C38.1772 57.3921 38.2638 57.0128 38.5036 56.7574C38.7417 56.5 39.0969 56.409 39.4179 56.5116L44.0956 58.0501L48.0989 55.0369C48.3784 54.8259 48.7372 54.7988 49.0384 54.9653C49.3413 55.1298 49.5343 55.4607 49.5397 55.8226L49.6227 61.0731L53.5322 64.2296C53.8027 64.4483 53.9379 64.8082 53.8856 65.1682C53.8315 65.5262 53.5971 65.8262 53.2779 65.9423L48.6525 67.6473L47.0638 72.6114C46.9556 72.9539 46.6761 73.2055 46.3425 73.2636C46.2938 73.2713 46.2469 73.2752 46.2 73.2752H46.1964ZM39.3872 66.6681L43.0028 66.7339C43.2841 66.7397 43.5474 66.8829 43.7169 67.1248L45.8899 70.2252L47.0638 66.5577C47.1558 66.2694 47.3631 66.0449 47.6318 65.9481L51.049 64.6882L48.1602 62.3562C47.9348 62.1743 47.8013 61.8898 47.7959 61.5898L47.7346 57.7095L44.7772 59.9371C44.5464 60.1112 44.2561 60.1654 43.9838 60.0725L40.5269 58.9346L41.5872 62.6446C41.672 62.9349 41.6251 63.2484 41.4628 63.4961L39.3854 66.67L39.3872 66.6681Z" fill="#FF5348"/>
<path d="M80.6818 47.5724C80.4924 47.5724 80.3031 47.5085 80.1444 47.3847C79.8703 47.1718 79.7296 46.8137 79.7765 46.4518L80.0272 44.5494L78.7811 43.1676C78.5449 42.9064 78.4637 42.527 78.5683 42.1825C78.6729 41.8361 78.947 41.5807 79.2806 41.5187L81.0442 41.1878L81.8827 39.4905C82.1965 38.8538 83.1811 38.8499 83.4985 39.4905L84.3388 41.1878L86.1006 41.5187C86.4342 41.5807 86.7083 41.8361 86.8129 42.1825C86.9175 42.527 86.8363 42.9083 86.6001 43.1676L85.3559 44.5494L85.6065 46.4518C85.6534 46.8118 85.5109 47.1718 85.2386 47.3847C84.9646 47.5995 84.6003 47.6324 84.2991 47.4737L82.6906 46.6299L81.0839 47.4737C80.9577 47.5414 80.8188 47.5743 80.6818 47.5743V47.5724ZM82.6906 44.5514C82.8277 44.5514 82.9665 44.5843 83.0927 44.652L83.5544 44.8939L83.4823 44.3501C83.4426 44.0482 83.5345 43.7482 83.7311 43.5295L84.0863 43.1347L83.5832 43.038C83.3037 42.9857 83.0657 42.7999 82.9323 42.5309L82.6906 42.0451L82.4508 42.5309C82.3191 42.798 82.0793 42.9857 81.7998 43.038L81.2949 43.1347L81.6519 43.5295C81.8485 43.7463 81.9404 44.0501 81.9008 44.3501L81.8286 44.8939L82.2885 44.652C82.4147 44.5843 82.5536 44.5514 82.6906 44.5514Z" fill="#FF5348"/>
<path d="M43.2971 47.5724C43.1078 47.5724 42.9185 47.5085 42.7598 47.3847C42.4857 47.1718 42.3432 46.8137 42.3919 46.4518L42.6444 44.5494L41.3983 43.1676C41.1621 42.9064 41.0809 42.527 41.1855 42.1825C41.2901 41.8381 41.5642 41.5807 41.8978 41.5187L43.6596 41.1878L44.4999 39.4905C44.8173 38.8499 45.7983 38.8499 46.1157 39.4905L46.956 41.1878L48.7178 41.5187C49.0514 41.5807 49.3255 41.8361 49.4301 42.1825C49.5347 42.527 49.4535 42.9083 49.2173 43.1676L47.973 44.5494L48.2237 46.4518C48.2706 46.8118 48.1281 47.1718 47.8558 47.3847C47.5799 47.5995 47.2175 47.6324 46.9163 47.4737L45.3078 46.6299L43.6993 47.4737C43.573 47.5414 43.4342 47.5743 43.2971 47.5743V47.5724ZM45.3078 44.5514C45.4448 44.5514 45.5837 44.5843 45.7099 44.652L46.1716 44.8939L46.0994 44.3501C46.0598 44.0482 46.1517 43.7482 46.3483 43.5295L46.7035 43.1347L46.2004 43.038C45.9209 42.9857 45.6829 42.7999 45.5494 42.5309L45.3078 42.0432L45.0662 42.5309C44.9345 42.7999 44.6947 42.9857 44.4152 43.038L43.9103 43.1347L44.2673 43.5295C44.4639 43.7482 44.5558 44.0501 44.5162 44.3501L44.444 44.8939L44.9039 44.652C45.0301 44.5843 45.1689 44.5514 45.306 44.5514H45.3078Z" fill="#FF5348"/>
<path d="M64.0002 79.5514C63.4953 79.5514 63.0859 79.1121 63.0859 78.5702V58.2456C63.0859 57.7037 63.4953 57.2644 64.0002 57.2644C64.5051 57.2644 64.9145 57.7037 64.9145 58.2456V78.5702C64.9145 79.114 64.5051 79.5514 64.0002 79.5514Z" fill="#FF5348"/>
<path d="M65.1096 91.4981C64.6047 91.4981 64.1953 91.0587 64.1953 90.5169C64.1953 77.4206 76.7515 68.5821 77.2871 68.2144C77.7055 67.9144 78.2771 68.0518 78.5512 68.5066C78.8253 68.9633 78.7027 69.571 78.2789 69.8652C78.1563 69.9503 66.0256 78.5025 66.0256 90.5188C66.0256 91.0607 65.6163 91.5 65.1114 91.5L65.1096 91.4981Z" fill="#FF5348"/>
<path d="M62.8889 91.4981C62.3822 91.4981 61.9746 91.0587 61.9746 90.5169C61.9746 78.4812 49.8458 69.9503 49.7249 69.8633C49.2994 69.5691 49.1767 68.9614 49.4508 68.5066C49.7267 68.0499 50.2966 67.9202 50.7149 68.2124C51.2487 68.5821 63.8049 77.4206 63.8049 90.5149C63.8049 91.0568 63.3956 91.4961 62.8907 91.4961L62.8889 91.4981Z" fill="#FF5348"/>
<path d="M71.4463 90.8633C71.2443 90.8633 71.0406 90.7917 70.8711 90.6446C70.4779 90.304 70.4166 89.6847 70.7358 89.2628C70.9576 88.9686 76.1979 82.0596 80.7368 79.9559C81.1966 79.7372 81.7394 79.9675 81.9396 80.4687C82.1397 80.9661 81.927 81.5448 81.4617 81.7596C77.3376 83.6717 72.2109 90.4317 72.1586 90.4994C71.9783 90.7394 71.7132 90.8633 71.4481 90.8633H71.4463Z" fill="#FF5348"/>
<path d="M56.5493 90.8633C56.2824 90.8633 56.0191 90.7394 55.8388 90.4994C55.7865 90.4317 50.6598 83.6717 46.5375 81.7596C46.0722 81.5448 45.8594 80.9661 46.0596 80.4687C46.2616 79.9675 46.7971 79.7333 47.2624 79.9559C51.7994 82.0596 57.0398 88.9686 57.2616 89.2628C57.579 89.6847 57.5194 90.302 57.1263 90.6446C56.9568 90.7917 56.753 90.8633 56.5511 90.8633H56.5493Z" fill="#FF5348"/>
<path d="M85.9377 77.3703C85.431 77.3703 85.0234 76.931 85.0234 76.3891V72.9578C85.0234 72.4159 85.4328 71.9766 85.9377 71.9766C86.4426 71.9766 86.852 72.4159 86.852 72.9578V76.3891C86.852 76.9329 86.4426 77.3703 85.9377 77.3703Z" fill="#FF5348"/>
<path d="M42.0549 77.3703C41.55 77.3703 41.1406 76.931 41.1406 76.3891V72.9578C41.1406 72.4159 41.55 71.9766 42.0549 71.9766C42.5598 71.9766 42.9691 72.4159 42.9691 72.9578V76.3891C42.9691 76.9329 42.5598 77.3703 42.0549 77.3703Z" fill="#FF5348"/>
<path d="M85.9377 83.9058C85.431 83.9058 85.0234 83.4665 85.0234 82.9247V79.4933C85.0234 78.9515 85.4328 78.5121 85.9377 78.5121C86.4426 78.5121 86.852 78.9515 86.852 79.4933V82.9247C86.852 83.4665 86.4426 83.9058 85.9377 83.9058Z" fill="#FF5348"/>
<path d="M42.0549 83.9058C41.55 83.9058 41.1406 83.4665 41.1406 82.9247V79.4933C41.1406 78.9515 41.55 78.5121 42.0549 78.5121C42.5598 78.5121 42.9691 78.9515 42.9691 79.4933V82.9247C42.9691 83.4665 42.5598 83.9058 42.0549 83.9058Z" fill="#FF5348"/>
<path d="M90.582 78.9224H87.383C86.8781 78.9224 86.4688 78.4831 86.4688 77.9412C86.4688 77.3993 86.8781 76.96 87.383 76.96H90.582C91.0869 76.96 91.4963 77.3993 91.4963 77.9412C91.4963 78.4831 91.0869 78.9224 90.582 78.9224Z" fill="#FF5348"/>
<path d="M40.6133 78.9224H37.4143C36.9093 78.9224 36.5 78.4831 36.5 77.9412C36.5 77.3993 36.9093 76.96 37.4143 76.96H40.6115C41.1164 76.96 41.5257 77.3993 41.5257 77.9412C41.5257 78.4831 41.1164 78.9224 40.6115 78.9224H40.6133Z" fill="#FF5348"/>
<path d="M84.4943 78.9224H81.2971C80.7922 78.9224 80.3828 78.4831 80.3828 77.9412C80.3828 77.3993 80.7922 76.96 81.2971 76.96H84.4943C84.9992 76.96 85.4086 77.3993 85.4086 77.9412C85.4086 78.4831 84.9992 78.9224 84.4943 78.9224Z" fill="#FF5348"/>
<path d="M46.707 78.9224H43.508C43.0031 78.9224 42.5938 78.4831 42.5938 77.9412C42.5938 77.3993 43.0031 76.96 43.508 76.96H46.707C47.2119 76.96 47.6213 77.3993 47.6213 77.9412C47.6213 78.4831 47.2119 78.9224 46.707 78.9224Z" fill="#FF5348"/>
</svg>
