<svg width="35" height="24" viewBox="0 0 35 24" fill="none" xmlns="http://www.w3.org/2000/svg">
<path fill-rule="evenodd" clip-rule="evenodd" d="M27.313 0.506384L29.5037 0.731454C32.0972 1.02459 34.0448 3.23831 34.0051 5.84806V18.1519C34.0448 20.7617 32.0972 22.9754 29.5037 23.2685L27.403 23.4936C20.8483 24.1688 14.2416 24.1688 7.68684 23.4936L5.49615 23.2685C2.90261 22.9754 0.955057 20.7617 0.994736 18.1519V5.84806C0.955057 3.23831 2.90261 1.02459 5.49615 0.731454L7.59681 0.506384C14.1515 -0.168795 20.7583 -0.168795 27.313 0.506384ZM16.1643 16.8315L22.0012 12.9303H22.0912C22.4057 12.7254 22.5954 12.3754 22.5954 12C22.5954 11.6246 22.4057 11.2746 22.0912 11.0697L16.2544 7.16848C15.9098 6.93555 15.4648 6.9117 15.0972 7.10646C14.7297 7.30122 14.4996 7.68282 14.4988 8.09877V15.9012C14.5182 16.2885 14.7355 16.6385 15.074 16.8275C15.4125 17.0166 15.8245 17.0181 16.1643 16.8315Z" fill="white"/>
</svg>
